Advent Pro-Thin.ufo
<glyph name="exclam" format="1">
  <advance width="234"/>
  <unicode hex="0021"/>
  <outline>
    <contour>
      <point x="102" y="240" type="line"/>
      <point x="84" y="1380" type="line"/>
      <point x="84" y="1404"/>
      <point x="101" y="1416"/>
      <point x="120" y="1416" type="curve"/>
      <point x="139" y="1416"/>
      <point x="148" y="1404"/>
      <point x="148" y="1380" type="curve"/>
      <point x="132" y="240" type="line"/>
    </contour>
    <contour>
      <point x="150" y="36" type="curve"/>
      <point x="150" y="17"/>
      <point x="137" y="0"/>
      <point x="118" y="0" type="curve"/>
      <point x="99" y="0"/>
      <point x="82" y="17"/>
      <point x="82" y="36" type="curve"/>
      <point x="82" y="52"/>
      <point x="99" y="68"/>
      <point x="118" y="68" type="curve"/>
      <point x="137" y="68"/>
      <point x="150" y="52"/>
    </contour>
  </outline>
</glyph>
<glyph name="quotedbl" format="1">
  <advance width="444"/>
  <unicode hex="0022"/>
  <outline>
    <contour>
      <point x="336" y="1174" type="line"/>
      <point x="326" y="1442" type="line"/>
      <point x="326" y="1482"/>
      <point x="384" y="1482"/>
      <point x="384" y="1442" type="curve"/>
      <point x="370" y="1174" type="line"/>
    </contour>
    <contour>
      <point x="66" y="1174" type="line"/>
      <point x="56" y="1442" type="line"/>
      <point x="56" y="1482"/>
      <point x="112" y="1482"/>
      <point x="112" y="1442" type="curve"/>
      <point x="100" y="1174" type="line"/>
    </contour>
  </outline>
</glyph>
<glyph name="numbersign" format="1">
  <advance width="1214"/>
  <unicode hex="0023"/>
  <outline>
    <contour>
      <point x="860" y="828" type="line"/>
      <point x="778" y="486" type="line"/>
      <point x="1152" y="486" type="line"/>
      <point x="1152" y="452" type="line"/>
      <point x="772" y="452" type="line"/>
      <point x="666" y="0" type="line"/>
      <point x="630" y="0" type="line"/>
      <point x="734" y="452" type="line"/>
      <point x="352" y="452" type="line"/>
      <point x="246" y="0" type="line"/>
      <point x="210" y="0" type="line"/>
      <point x="314" y="452" type="line"/>
      <point x="58" y="452" type="line"/>
      <point x="58" y="486" type="line"/>
      <point x="324" y="486" type="line"/>
      <point x="402" y="828" type="line"/>
      <point x="58" y="828" type="line"/>
      <point x="58" y="862" type="line"/>
      <point x="414" y="862" type="line"/>
      <point x="536" y="1396" type="line"/>
      <point x="574" y="1396" type="line"/>
      <point x="452" y="862" type="line"/>
      <point x="830" y="862" type="line"/>
      <point x="954" y="1396" type="line"/>
      <point x="992" y="1396" type="line"/>
      <point x="866" y="862" type="line"/>
      <point x="1152" y="862" type="line"/>
      <point x="1152" y="828" type="line"/>
    </contour>
    <contour>
      <point x="360" y="486" type="line"/>
      <point x="742" y="486" type="line"/>
      <point x="820" y="828" type="line"/>
      <point x="440" y="828" type="line"/>
    </contour>
  </outline>
</glyph>
<glyph name="dollar" format="1">
  <advance width="1046"/>
  <unicode hex="0024"/>
  <outline>
    <contour>
      <point x="568" y="-226" type="line"/>
      <point x="530" y="-226" type="line"/>
      <point x="530" y="1630" type="line"/>
      <point x="568" y="1630" type="line"/>
    </contour>
    <component base="S"/>
  </outline>
</glyph>
<glyph name="percent" format="1">
  <advance width="1414"/>
  <unicode hex="0025"/>
  <outline>
    <contour>
      <point x="188" y="0" type="line"/>
      <point x="136" y="0" type="line"/>
      <point x="1210" y="1396" type="line"/>
      <point x="1262" y="1396" type="line"/>
    </contour>
    <contour>
      <point x="346" y="1424" type="curve"/>
      <point x="506" y="1424"/>
      <point x="636" y="1295"/>
      <point x="636" y="1132" type="curve"/>
      <point x="636" y="972"/>
      <point x="506" y="842"/>
      <point x="346" y="842" type="curve"/>
      <point x="185" y="842"/>
      <point x="54" y="972"/>
      <point x="54" y="1132" type="curve"/>
      <point x="54" y="1295"/>
      <point x="185" y="1424"/>
    </contour>
    <contour>
      <point x="346" y="1384" type="curve"/>
      <point x="207" y="1384"/>
      <point x="94" y="1271"/>
      <point x="94" y="1132" type="curve"/>
      <point x="94" y="996"/>
      <point x="207" y="882"/>
      <point x="346" y="882" type="curve"/>
      <point x="484" y="882"/>
      <point x="596" y="996"/>
      <point x="596" y="1132" type="curve"/>
      <point x="596" y="1271"/>
      <point x="484" y="1384"/>
    </contour>
    <contour>
      <point x="1064" y="552" type="curve"/>
      <point x="1226" y="552"/>
      <point x="1354" y="422"/>
      <point x="1354" y="262" type="curve"/>
      <point x="1354" y="102"/>
      <point x="1226" y="-28"/>
      <point x="1064" y="-28" type="curve"/>
      <point x="907" y="-28"/>
      <point x="776" y="102"/>
      <point x="776" y="262" type="curve"/>
      <point x="776" y="422"/>
      <point x="907" y="552"/>
    </contour>
    <contour>
      <point x="1064" y="512" type="curve"/>
      <point x="929" y="512"/>
      <point x="816" y="400"/>
      <point x="816" y="262" type="curve"/>
      <point x="816" y="125"/>
      <point x="929" y="14"/>
      <point x="1064" y="14" type="curve"/>
      <point x="1203" y="14"/>
      <point x="1316" y="125"/>
      <point x="1316" y="262" type="curve"/>
      <point x="1316" y="400"/>
      <point x="1203" y="512"/>
    </contour>
  </outline>
</glyph>
<glyph name="ampersand" format="1">
  <advance width="1054"/>
  <unicode hex="0026"/>
  <outline>
    <contour>
      <point x="804" y="1404" type="line"/>
      <point x="784" y="1364" type="line"/>
      <point x="480" y="1364" type="line" smooth="yes"/>
      <point x="308" y="1364"/>
      <point x="222" y="1255"/>
      <point x="222" y="1108" type="curve"/>
      <point x="222" y="926"/>
      <point x="437" y="806"/>
      <point x="548" y="806" type="curve"/>
      <point x="762" y="806" type="line"/>
      <point x="762" y="1010" type="line"/>
      <point x="794" y="1010" type="line"/>
      <point x="794" y="806" type="line"/>
      <point x="992" y="806" type="line"/>
      <point x="974" y="766" type="line"/>
      <point x="794" y="766" type="line"/>
      <point x="794" y="272" type="line" smooth="yes"/>
      <point x="794" y="125"/>
      <point x="852" y="56"/>
      <point x="982" y="14" type="curve"/>
      <point x="972" y="-18" type="line"/>
      <point x="841" y="19"/>
      <point x="778" y="93"/>
      <point x="762" y="210" type="curve"/>
      <point x="714" y="66"/>
      <point x="570" y="0"/>
      <point x="446" y="-8" type="curve"/>
      <point x="301" y="-19"/>
      <point x="58" y="9"/>
      <point x="58" y="322" type="curve"/>
      <point x="58" y="508" type="line" smooth="yes"/>
      <point x="58" y="636"/>
      <point x="95" y="806"/>
      <point x="366" y="806" type="curve"/>
      <point x="410" y="806" type="line"/>
      <point x="264" y="868"/>
      <point x="185" y="992"/>
      <point x="182" y="1106" type="curve"/>
      <point x="178" y="1280"/>
      <point x="296" y="1404"/>
      <point x="488" y="1404" type="curve"/>
    </contour>
    <contour>
      <point x="762" y="346" type="curve"/>
      <point x="762" y="766" type="line"/>
      <point x="362" y="766" type="line" smooth="yes"/>
      <point x="158" y="766"/>
      <point x="96" y="661"/>
      <point x="96" y="510" type="curve"/>
      <point x="96" y="318" type="line" smooth="yes"/>
      <point x="96" y="94"/>
      <point x="235" y="10"/>
      <point x="446" y="26" type="curve"/>
      <point x="638" y="42"/>
      <point x="762" y="182"/>
    </contour>
  </outline>
</glyph>
<glyph name="quotesingle" format="1">
  <advance width="174"/>
  <unicode hex="0027"/>
  <outline>
    <contour>
      <point x="68" y="1174" type="line"/>
      <point x="56" y="1444" type="line"/>
      <point x="56" y="1481"/>
      <point x="114" y="1481"/>
      <point x="114" y="1444" type="curve"/>
      <point x="100" y="1174" type="line"/>
    </contour>
  </outline>
</glyph>
<glyph name="parenleft" format="1">
  <advance width="338"/>
  <unicode hex="0028"/>
  <outline>
    <contour>
      <point x="286" y="1626" type="curve"/>
      <point x="306" y="1596" type="line"/>
      <point x="194" y="1516"/>
      <point x="120" y="1458"/>
      <point x="120" y="1270" type="curve"/>
      <point x="120" y="628"/>
      <point x="120" y="311"/>
      <point x="120" y="130" type="curve"/>
      <point x="120" y="-99"/>
      <point x="252" y="-162"/>
      <point x="308" y="-202" type="curve"/>
      <point x="286" y="-238" type="line"/>
      <point x="140" y="-141"/>
      <point x="82" y="-61"/>
      <point x="82" y="138" type="curve"/>
      <point x="82" y="1250" type="line" smooth="yes"/>
      <point x="82" y="1445"/>
      <point x="141" y="1534"/>
    </contour>
  </outline>
</glyph>
<glyph name="parenright" format="1">
  <advance width="342"/>
  <unicode hex="0029"/>
  <outline>
    <contour>
      <point x="32" y="1596" type="curve"/>
      <point x="52" y="1626" type="line"/>
      <point x="200" y="1534"/>
      <point x="258" y="1445"/>
      <point x="258" y="1250" type="curve"/>
      <point x="258" y="138" type="line" smooth="yes"/>
      <point x="258" y="-60"/>
      <point x="202" y="-142"/>
      <point x="52" y="-238" type="curve"/>
      <point x="30" y="-202" type="line"/>
      <point x="89" y="-159"/>
      <point x="220" y="-100"/>
      <point x="220" y="130" type="curve"/>
      <point x="220" y="311"/>
      <point x="220" y="628"/>
      <point x="220" y="1270" type="curve"/>
      <point x="220" y="1459"/>
      <point x="144" y="1516"/>
    </contour>
  </outline>
</glyph>
<glyph name="asterisk" format="1">
  <advance width="672"/>
  <unicode hex="002A"/>
  <outline>
    <contour>
      <point x="44" y="1184" type="line"/>
      <point x="58" y="1224" type="line"/>
      <point x="310" y="1122" type="line"/>
      <point x="308" y="1396" type="line"/>
      <point x="352" y="1396" type="line"/>
      <point x="350" y="1122" type="line"/>
      <point x="610" y="1224" type="line"/>
      <point x="624" y="1184" type="line"/>
      <point x="364" y="1092" type="line"/>
      <point x="528" y="880" type="line"/>
      <point x="496" y="854" type="line"/>
      <point x="332" y="1072" type="line"/>
      <point x="178" y="854" type="line"/>
      <point x="142" y="880" type="line"/>
      <point x="300" y="1092" type="line"/>
    </contour>
  </outline>
</glyph>
<glyph name="plus" format="1">
  <advance width="752"/>
  <unicode hex="002B"/>
  <outline>
    <contour>
      <point x="354" y="1056" type="line"/>
      <point x="392" y="1056" type="line"/>
      <point x="392" y="758" type="line"/>
      <point x="692" y="758" type="line"/>
      <point x="692" y="720" type="line"/>
      <point x="392" y="720" type="line"/>
      <point x="392" y="418" type="line"/>
      <point x="354" y="418" type="line"/>
      <point x="354" y="720" type="line"/>
      <point x="54" y="720" type="line"/>
      <point x="54" y="758" type="line"/>
      <point x="354" y="758" type="line"/>
    </contour>
  </outline>
</glyph>
<glyph name="comma" format="1">
  <advance width="222"/>
  <unicode hex="002C"/>
  <outline>
    <contour>
      <point x="78" y="-128" type="curve"/>
      <point x="60" y="-114" type="line"/>
      <point x="97" y="-77"/>
      <point x="109" y="-35"/>
      <point x="112" y="-6" type="curve"/>
      <point x="99" y="-1"/>
      <point x="90" y="10"/>
      <point x="90" y="26" type="curve"/>
      <point x="90" y="45"/>
      <point x="103" y="60"/>
      <point x="122" y="60" type="curve"/>
      <point x="143" y="60"/>
      <point x="156" y="47"/>
      <point x="156" y="26" type="curve"/>
      <point x="157" y="-80"/>
      <point x="77" y="-128"/>
    </contour>
  </outline>
</glyph>
<glyph name="hyphen" format="1">
  <advance width="780"/>
  <unicode hex="002D"/>
  <outline>
    <contour>
      <point x="704" y="786" type="line"/>
      <point x="66" y="786" type="line"/>
      <point x="66" y="826" type="line"/>
      <point x="704" y="826" type="line"/>
    </contour>
  </outline>
</glyph>
<glyph name="period" format="1">
  <advance width="204"/>
  <unicode hex="002E"/>
  <outline>
    <contour>
      <point x="68" y="26" type="curve"/>
      <point x="68" y="46"/>
      <point x="82" y="60"/>
      <point x="102" y="60" type="curve"/>
      <point x="122" y="60"/>
      <point x="136" y="46"/>
      <point x="136" y="26" type="curve"/>
      <point x="136" y="6"/>
      <point x="122" y="-8"/>
      <point x="102" y="-8" type="curve"/>
      <point x="82" y="-8"/>
      <point x="68" y="6"/>
    </contour>
  </outline>
</glyph>
<glyph name="one" format="1">
  <advance width="408"/>
  <unicode hex="0031"/>
  <outline>
    <contour>
      <point x="26" y="1180" type="curve"/>
      <point x="16" y="1212" type="line"/>
      <point x="116" y="1239"/>
      <point x="234" y="1316"/>
      <point x="282" y="1396" type="curve"/>
      <point x="322" y="1396" type="line"/>
      <point x="322" y="0" type="line"/>
      <point x="282" y="0" type="line"/>
      <point x="282" y="1328" type="line"/>
      <point x="215" y="1261"/>
      <point x="126" y="1204"/>
    </contour>
  </outline>
</glyph>
<glyph name="two" format="1">
  <advance width="824"/>
  <unicode hex="0032"/>
  <outline>
    <contour>
      <point x="118" y="1162" type="curve"/>
      <point x="80" y="1176" type="line"/>
      <point x="139" y="1336"/>
      <point x="255" y="1416"/>
      <point x="436" y="1416" type="curve"/>
      <point x="602" y="1416"/>
      <point x="762" y="1275"/>
      <point x="758" y="1092" type="curve"/>
      <point x="755" y="1007"/>
      <point x="723" y="915"/>
      <point x="662" y="822" type="curve"/>
      <point x="519" y="622"/>
      <point x="383" y="436"/>
      <point x="100" y="40" type="curve"/>
      <point x="754" y="40" type="line"/>
      <point x="754" y="0" type="line"/>
      <point x="56" y="0" type="line"/>
      <point x="56" y="40" type="line"/>
      <point x="248" y="307"/>
      <point x="439" y="572"/>
      <point x="634" y="844" type="curve"/>
      <point x="689" y="926"/>
      <point x="718" y="1009"/>
      <point x="718" y="1082" type="curve"/>
      <point x="722" y="1245"/>
      <point x="591" y="1378"/>
      <point x="424" y="1378" type="curve"/>
      <point x="253" y="1378"/>
      <point x="155" y="1285"/>
    </contour>
  </outline>
</glyph>
<glyph name="three" format="1">
  <advance width="878"/>
  <unicode hex="0033"/>
  <outline>
    <contour>
      <point x="314" y="826" type="line"/>
      <point x="400" y="826" type="line"/>
      <point x="517" y="826"/>
      <point x="620" y="783"/>
      <point x="700" y="700" type="curve"/>
      <point x="783" y="617"/>
      <point x="824" y="517"/>
      <point x="824" y="398" type="curve"/>
      <point x="824" y="279"/>
      <point x="783" y="180"/>
      <point x="700" y="100" type="curve"/>
      <point x="620" y="17"/>
      <point x="520" y="-24"/>
      <point x="400" y="-24" type="curve"/>
      <point x="256" y="-24"/>
      <point x="125" y="49"/>
      <point x="48" y="164" type="curve"/>
      <point x="82" y="188" type="line"/>
      <point x="159" y="73"/>
      <point x="263" y="14"/>
      <point x="388" y="14" type="curve"/>
      <point x="513" y="14"/>
      <point x="611" y="51"/>
      <point x="680" y="134" type="curve"/>
      <point x="752" y="214"/>
      <point x="786" y="307"/>
      <point x="786" y="414" type="curve"/>
      <point x="786" y="523"/>
      <point x="747" y="609"/>
      <point x="670" y="676" type="curve"/>
      <point x="590" y="745"/>
      <point x="505" y="786"/>
      <point x="412" y="786" type="curve"/>
      <point x="240" y="786" type="line"/>
      <point x="666" y="1356" type="line"/>
      <point x="136" y="1356" type="line"/>
      <point x="136" y="1396" type="line"/>
      <point x="714" y="1396" type="line"/>
      <point x="714" y="1356" type="line"/>
    </contour>
  </outline>
</glyph>
<glyph name="four" format="1">
  <advance width="926"/>
  <unicode hex="0034"/>
  <outline>
    <contour>
      <point x="726" y="0" type="line"/>
      <point x="690" y="0" type="line"/>
      <point x="688" y="786" type="line"/>
      <point x="30" y="786" type="line"/>
      <point x="372" y="1396" type="line"/>
      <point x="412" y="1396" type="line"/>
      <point x="96" y="826" type="line"/>
      <point x="688" y="826" type="line"/>
      <point x="688" y="1396" type="line"/>
      <point x="726" y="1396" type="line"/>
      <point x="726" y="826" type="line"/>
      <point x="872" y="826" type="line"/>
      <point x="862" y="786" type="line"/>
      <point x="726" y="786" type="line"/>
    </contour>
  </outline>
</glyph>
<glyph name="five" format="1">
  <advance width="878"/>
  <unicode hex="0035"/>
  <outline>
    <contour>
      <point x="216" y="1356" type="line"/>
      <point x="160" y="822" type="line"/>
      <point x="348" y="826" type="line"/>
      <point x="674" y="826"/>
      <point x="822" y="637"/>
      <point x="822" y="396" type="curve"/>
      <point x="822" y="151"/>
      <point x="631" y="-24"/>
      <point x="402" y="-24" type="curve"/>
      <point x="213" y="-27"/>
      <point x="55" y="87"/>
      <point x="56" y="84" type="curve"/>
      <point x="72" y="118" type="line"/>
      <point x="69" y="122"/>
      <point x="226" y="10"/>
      <point x="400" y="14" type="curve"/>
      <point x="591" y="14"/>
      <point x="784" y="154"/>
      <point x="784" y="398" type="curve"/>
      <point x="784" y="594"/>
      <point x="665" y="786"/>
      <point x="350" y="786" type="curve"/>
      <point x="118" y="786" type="line"/>
      <point x="182" y="1396" type="line"/>
      <point x="712" y="1396" type="line"/>
      <point x="712" y="1356" type="line"/>
    </contour>
  </outline>
</glyph>
<glyph name="six" format="1">
  <advance width="960"/>
  <unicode hex="0036"/>
  <outline>
    <contour>
      <point x="616" y="1358" type="line"/>
      <point x="550" y="1358" type="line"/>
      <point x="264" y="1358"/>
      <point x="100" y="1190"/>
      <point x="100" y="914" type="curve"/>
      <point x="100" y="576" type="line"/>
      <point x="180" y="754"/>
      <point x="330" y="828"/>
      <point x="482" y="828" type="curve"/>
      <point x="718" y="828"/>
      <point x="910" y="642"/>
      <point x="910" y="404" type="curve"/>
      <point x="910" y="170"/>
      <point x="718" y="-20"/>
      <point x="484" y="-20" type="curve"/>
      <point x="250" y="-20"/>
      <point x="60" y="170"/>
      <point x="60" y="404" type="curve"/>
      <point x="60" y="924" type="line" smooth="yes"/>
      <point x="60" y="1220"/>
      <point x="252" y="1394"/>
      <point x="548" y="1394" type="curve"/>
      <point x="616" y="1394" type="line"/>
    </contour>
    <contour>
      <point x="484" y="790" type="curve"/>
      <point x="273" y="790"/>
      <point x="100" y="617"/>
      <point x="100" y="404" type="curve"/>
      <point x="100" y="191"/>
      <point x="273" y="18"/>
      <point x="484" y="18" type="curve"/>
      <point x="698" y="18"/>
      <point x="870" y="191"/>
      <point x="870" y="404" type="curve"/>
      <point x="870" y="617"/>
      <point x="698" y="790"/>
    </contour>
  </outline>
</glyph>
<glyph name="seven" format="1">
  <advance width="856"/>
  <unicode hex="0037"/>
  <outline>
    <contour>
      <point x="832" y="1356" type="line"/>
      <point x="112" y="0" type="line"/>
      <point x="72" y="0" type="line"/>
      <point x="786" y="1356" type="line"/>
      <point x="50" y="1356" type="line"/>
      <point x="50" y="1396" type="line"/>
      <point x="832" y="1396" type="line"/>
    </contour>
  </outline>
</glyph>
<glyph name="eight" format="1">
  <advance width="936"/>
  <unicode hex="0038"/>
  <outline>
    <contour>
      <point x="468" y="1414" type="curve"/>
      <point x="567" y="1414"/>
      <point x="647" y="1381"/>
      <point x="708" y="1316" type="curve"/>
      <point x="772" y="1249"/>
      <point x="802" y="1168"/>
      <point x="802" y="1072" type="curve"/>
      <point x="802" y="1003"/>
      <point x="780" y="939"/>
      <point x="736" y="880" type="curve"/>
      <point x="699" y="832"/>
      <point x="645" y="791"/>
      <point x="578" y="770" type="curve"/>
      <point x="669" y="746"/>
      <point x="740" y="697"/>
      <point x="796" y="620" type="curve"/>
      <point x="849" y="545"/>
      <point x="878" y="465"/>
      <point x="878" y="382" type="curve"/>
      <point x="878" y="267"/>
      <point x="837" y="169"/>
      <point x="760" y="92" type="curve"/>
      <point x="683" y="15"/>
      <point x="585" y="-24"/>
      <point x="468" y="-24" type="curve"/>
      <point x="348" y="-24"/>
      <point x="249" y="15"/>
      <point x="170" y="92" type="curve"/>
      <point x="93" y="169"/>
      <point x="52" y="267"/>
      <point x="52" y="382" type="curve"/>
      <point x="52" y="467"/>
      <point x="80" y="550"/>
      <point x="136" y="622" type="curve"/>
      <point x="189" y="697"/>
      <point x="273" y="746"/>
      <point x="350" y="770" type="curve"/>
      <point x="289" y="791"/>
      <point x="237" y="831"/>
      <point x="194" y="888" type="curve"/>
      <point x="157" y="949"/>
      <point x="134" y="1011"/>
      <point x="134" y="1072" type="curve"/>
      <point x="134" y="1168"/>
      <point x="165" y="1249"/>
      <point x="228" y="1316" type="curve"/>
      <point x="292" y="1381"/>
      <point x="372" y="1414"/>
    </contour>
    <contour>
      <point x="468" y="782" type="curve"/>
      <point x="567" y="782"/>
      <point x="655" y="830"/>
      <point x="708" y="902" type="curve"/>
      <point x="745" y="953"/>
      <point x="764" y="1011"/>
      <point x="764" y="1078" type="curve"/>
      <point x="764" y="1241"/>
      <point x="631" y="1374"/>
      <point x="468" y="1374" type="curve"/>
      <point x="304" y="1374"/>
      <point x="170" y="1241"/>
      <point x="170" y="1078" type="curve"/>
      <point x="170" y="1010"/>
      <point x="191" y="949"/>
      <point x="234" y="896" type="curve"/>
      <point x="290" y="829"/>
      <point x="372" y="782"/>
    </contour>
    <contour>
      <point x="466" y="10" type="curve"/>
      <point x="671" y="10"/>
      <point x="840" y="178"/>
      <point x="840" y="378" type="curve"/>
      <point x="840" y="463"/>
      <point x="812" y="537"/>
      <point x="764" y="598" type="curve"/>
      <point x="697" y="689"/>
      <point x="589" y="746"/>
      <point x="466" y="746" type="curve"/>
      <point x="349" y="746"/>
      <point x="243" y="693"/>
      <point x="174" y="610" type="curve"/>
      <point x="123" y="549"/>
      <point x="92" y="466"/>
      <point x="92" y="378" type="curve"/>
      <point x="92" y="178"/>
      <point x="258" y="10"/>
    </contour>
  </outline>
</glyph>
<glyph name="nine" format="1">
  <advance width="958"/>
  <unicode hex="0039"/>
  <outline>
    <contour>
      <point x="468" y="1412" type="curve"/>
      <point x="587" y="1412"/>
      <point x="687" y="1371"/>
      <point x="768" y="1290" type="curve"/>
      <point x="851" y="1207"/>
      <point x="892" y="1107"/>
      <point x="892" y="988" type="curve"/>
      <point x="892" y="468" type="line" smooth="yes"/>
      <point x="892" y="361"/>
      <point x="859" y="257"/>
      <point x="790" y="164" type="curve"/>
      <point x="721" y="65"/>
      <point x="582" y="-2"/>
      <point x="406" y="-2" type="curve"/>
      <point x="336" y="-2" type="line"/>
      <point x="336" y="40" type="line"/>
      <point x="412" y="40" type="line" smooth="yes"/>
      <point x="524" y="40"/>
      <point x="623" y="69"/>
      <point x="706" y="130" type="curve"/>
      <point x="797" y="197"/>
      <point x="854" y="324"/>
      <point x="854" y="492" type="curve"/>
      <point x="854" y="816" type="line"/>
      <point x="773" y="638"/>
      <point x="624" y="566"/>
      <point x="470" y="566" type="curve"/>
      <point x="350" y="566"/>
      <point x="251" y="608"/>
      <point x="168" y="688" type="curve"/>
      <point x="85" y="771"/>
      <point x="44" y="871"/>
      <point x="44" y="988" type="curve"/>
      <point x="44" y="1107"/>
      <point x="85" y="1206"/>
      <point x="168" y="1286" type="curve"/>
      <point x="251" y="1370"/>
      <point x="351" y="1412"/>
    </contour>
    <contour>
      <point x="468" y="1374" type="curve"/>
      <point x="256" y="1374"/>
      <point x="82" y="1206"/>
      <point x="82" y="990" type="curve"/>
      <point x="82" y="776"/>
      <point x="256" y="602"/>
      <point x="468" y="602" type="curve"/>
      <point x="680" y="602"/>
      <point x="854" y="776"/>
      <point x="854" y="990" type="curve"/>
      <point x="854" y="1206"/>
      <point x="680" y="1374"/>
    </contour>
  </outline>
</glyph>
<glyph name="colon" format="1">
  <advance width="220"/>
  <unicode hex="003A"/>
  <outline>
    <contour>
      <point x="140" y="286" type="curve"/>
      <point x="140" y="267"/>
      <point x="125" y="254"/>
      <point x="106" y="254" type="curve"/>
      <point x="87" y="254"/>
      <point x="72" y="267"/>
      <point x="72" y="286" type="curve"/>
      <point x="72" y="307"/>
      <point x="87" y="318"/>
      <point x="106" y="318" type="curve"/>
      <point x="125" y="318"/>
      <point x="140" y="307"/>
    </contour>
    <contour>
      <point x="140" y="768" type="curve"/>
      <point x="140" y="749"/>
      <point x="125" y="734"/>
      <point x="106" y="734" type="curve"/>
      <point x="87" y="734"/>
      <point x="72" y="749"/>
      <point x="72" y="768" type="curve"/>
      <point x="72" y="787"/>
      <point x="87" y="800"/>
      <point x="106" y="800" type="curve"/>
      <point x="125" y="800"/>
      <point x="140" y="787"/>
    </contour>
  </outline>
</glyph>
<glyph name="semicolon" format="1">
  <advance width="244"/>
  <unicode hex="003B"/>
  <outline>
    <contour>
      <point x="86" y="126" type="curve"/>
      <point x="70" y="136" type="line"/>
      <point x="107" y="173"/>
      <point x="117" y="219"/>
      <point x="120" y="246" type="curve"/>
      <point x="107" y="251"/>
      <point x="98" y="264"/>
      <point x="98" y="280" type="curve"/>
      <point x="98" y="296"/>
      <point x="114" y="312"/>
      <point x="130" y="312" type="curve"/>
      <point x="151" y="312"/>
      <point x="164" y="301"/>
      <point x="164" y="280" type="curve"/>
      <point x="165" y="174"/>
      <point x="85" y="126"/>
    </contour>
    <contour>
      <point x="166" y="768" type="curve"/>
      <point x="166" y="749"/>
      <point x="150" y="734"/>
      <point x="134" y="734" type="curve"/>
      <point x="115" y="734"/>
      <point x="98" y="749"/>
      <point x="98" y="768" type="curve"/>
      <point x="98" y="787"/>
      <point x="115" y="800"/>
      <point x="134" y="800" type="curve"/>
      <point x="150" y="800"/>
      <point x="166" y="787"/>
    </contour>
  </outline>
</glyph>
<glyph name="less" format="1">
  <advance width="698"/>
  <unicode hex="003C"/>
  <outline>
    <contour>
      <point x="604" y="158" type="line"/>
      <point x="50" y="716" type="line"/>
      <point x="604" y="1270" type="line"/>
      <point x="632" y="1246" type="line"/>
      <point x="98" y="712" type="line"/>
      <point x="632" y="188" type="line"/>
    </contour>
  </outline>
</glyph>
<glyph name="equal" format="1">
  <advance width="772"/>
  <unicode hex="003D"/>
  <outline>
    <contour>
      <point x="702" y="786" type="line"/>
      <point x="64" y="786" type="line"/>
      <point x="64" y="822" type="line"/>
      <point x="702" y="822" type="line"/>
    </contour>
    <contour>
      <point x="702" y="576" type="line"/>
      <point x="64" y="576" type="line"/>
      <point x="64" y="614" type="line"/>
      <point x="702" y="614" type="line"/>
    </contour>
  </outline>
</glyph>
<glyph name="greater" format="1">
  <advance width="700"/>
  <unicode hex="003E"/>
  <outline>
    <contour>
      <point x="596" y="712" type="line"/>
      <point x="60" y="1246" type="line"/>
      <point x="88" y="1270" type="line"/>
      <point x="642" y="716" type="line"/>
      <point x="88" y="158" type="line"/>
      <point x="60" y="188" type="line"/>
    </contour>
  </outline>
</glyph>
<glyph name="question" format="1">
  <advance width="814"/>
  <unicode hex="003F"/>
  <outline>
    <contour>
      <point x="88" y="1060" type="curve"/>
      <point x="50" y="1060" type="line"/>
      <point x="51" y="1305"/>
      <point x="229" y="1418"/>
      <point x="405" y="1414" type="curve"/>
      <point x="581" y="1411"/>
      <point x="756" y="1292"/>
      <point x="756" y="1072" type="curve"/>
      <point x="756" y="926"/>
      <point x="693" y="839"/>
      <point x="608" y="746" type="curve"/>
      <point x="447" y="575"/>
      <point x="398" y="544"/>
      <point x="398" y="386" type="curve"/>
      <point x="398" y="238" type="line"/>
      <point x="362" y="238" type="line"/>
      <point x="362" y="374" type="line" smooth="yes"/>
      <point x="362" y="590"/>
      <point x="453" y="618"/>
      <point x="594" y="786" type="curve"/>
      <point x="682" y="894"/>
      <point x="720" y="963"/>
      <point x="720" y="1070" type="curve"/>
      <point x="720" y="1233"/>
      <point x="596" y="1378"/>
      <point x="404" y="1378" type="curve"/>
      <point x="252" y="1378"/>
      <point x="88" y="1279"/>
    </contour>
    <contour>
      <point x="382" y="60" type="curve"/>
      <point x="398" y="60"/>
      <point x="414" y="45"/>
      <point x="414" y="26" type="curve"/>
      <point x="414" y="7"/>
      <point x="398" y="-8"/>
      <point x="382" y="-8" type="curve"/>
      <point x="363" y="-8"/>
      <point x="346" y="7"/>
      <point x="346" y="26" type="curve"/>
      <point x="346" y="45"/>
      <point x="363" y="60"/>
    </contour>
  </outline>
</glyph>
<glyph name="at" format="1">
  <advance width="1434"/>
  <unicode hex="0040"/>
  <outline>
    <contour>
      <point x="1358" y="968" type="curve"/>
      <point x="1376" y="944" type="line"/>
      <point x="1327" y="904"/>
      <point x="1308" y="885"/>
      <point x="1308" y="772" type="curve"/>
      <point x="1308" y="340" type="line" smooth="yes"/>
      <point x="1308" y="45"/>
      <point x="989" y="-134"/>
      <point x="672" y="-134" type="curve"/>
      <point x="306" y="-134"/>
      <point x="60" y="63"/>
      <point x="60" y="402" type="curve"/>
      <point x="60" y="666" type="line" smooth="yes"/>
      <point x="60" y="943"/>
      <point x="239" y="1158"/>
      <point x="582" y="1158" type="curve"/>
      <point x="788" y="1158"/>
      <point x="976" y="1070"/>
      <point x="1016" y="884" type="curve"/>
      <point x="1154" y="884" type="line"/>
      <point x="1146" y="848" type="line"/>
      <point x="1022" y="848" type="line"/>
      <point x="1022" y="138" type="line"/>
      <point x="1025" y="140"/>
      <point x="800" y="122"/>
      <point x="656" y="122" type="curve"/>
      <point x="388" y="122"/>
      <point x="306" y="281"/>
      <point x="306" y="444" type="curve"/>
      <point x="306" y="576" type="line" smooth="yes"/>
      <point x="306" y="816"/>
      <point x="457" y="884"/>
      <point x="612" y="884" type="curve"/>
      <point x="984" y="884" type="line"/>
      <point x="949" y="1017"/>
      <point x="825" y="1122"/>
      <point x="582" y="1122" type="curve"/>
      <point x="343" y="1122"/>
      <point x="98" y="1001"/>
      <point x="98" y="676" type="curve"/>
      <point x="98" y="396" type="line" smooth="yes"/>
      <point x="98" y="107"/>
      <point x="294" y="-96"/>
      <point x="682" y="-96" type="curve"/>
      <point x="967" y="-96"/>
      <point x="1276" y="69"/>
      <point x="1276" y="336" type="curve"/>
      <point x="1276" y="742" type="line" smooth="yes"/>
      <point x="1276" y="874"/>
      <point x="1282" y="916"/>
    </contour>
    <contour>
      <point x="990" y="848" type="line"/>
      <point x="602" y="848" type="line"/>
      <point x="425" y="848"/>
      <point x="338" y="745"/>
      <point x="338" y="570" type="curve"/>
      <point x="338" y="454" type="line" smooth="yes"/>
      <point x="338" y="259"/>
      <point x="444" y="158"/>
      <point x="654" y="158" type="curve"/>
      <point x="792" y="158"/>
      <point x="993" y="176"/>
      <point x="990" y="174" type="curve"/>
    </contour>
  </outline>
</glyph>
<glyph name="A" format="1">
  <advance width="1084"/>
  <unicode hex="0041"/>
  <outline>
    <contour>
      <point x="558" y="1396" type="line"/>
      <point x="1048" y="0" type="line"/>
      <point x="1006" y="0" type="line"/>
      <point x="810" y="560" type="line"/>
      <point x="276" y="560" type="line"/>
      <point x="80" y="0" type="line"/>
      <point x="40" y="0" type="line"/>
      <point x="530" y="1396" type="line"/>
    </contour>
    <contour>
      <point x="544" y="1316" type="line"/>
      <point x="292" y="598" type="line"/>
      <point x="798" y="598" type="line"/>
    </contour>
  </outline>
</glyph>
<glyph name="B" format="1">
  <advance width="1004"/>
  <unicode hex="0042"/>
  <outline>
    <contour>
      <point x="82" y="1396" type="line"/>
      <point x="518" y="1396" type="line"/>
      <point x="737" y="1396"/>
      <point x="874" y="1287"/>
      <point x="874" y="1076" type="curve"/>
      <point x="874" y="965"/>
      <point x="806" y="845"/>
      <point x="698" y="806" type="curve"/>
      <point x="698" y="798" type="line"/>
      <point x="866" y="736"/>
      <point x="946" y="596"/>
      <point x="946" y="416" type="curve"/>
      <point x="946" y="166"/>
      <point x="804" y="0"/>
      <point x="538" y="0" type="curve"/>
      <point x="82" y="0" type="line"/>
    </contour>
    <contour>
      <point x="120" y="822" type="line"/>
      <point x="594" y="822" type="line"/>
      <point x="732" y="822"/>
      <point x="836" y="932"/>
      <point x="836" y="1080" type="curve"/>
      <point x="836" y="1242"/>
      <point x="739" y="1358"/>
      <point x="510" y="1358" type="curve"/>
      <point x="120" y="1358" type="line"/>
    </contour>
    <contour>
      <point x="120" y="38" type="line"/>
      <point x="540" y="38" type="line"/>
      <point x="781" y="38"/>
      <point x="908" y="186"/>
      <point x="908" y="416" type="curve"/>
      <point x="908" y="634"/>
      <point x="773" y="786"/>
      <point x="544" y="786" type="curve"/>
      <point x="120" y="786" type="line"/>
    </contour>
  </outline>
</glyph>
<glyph name="C" format="1">
  <advance width="840"/>
  <unicode hex="0043"/>
  <outline>
    <contour>
      <point x="740" y="1350" type="curve"/>
      <point x="724" y="1316" type="line"/>
      <point x="636" y="1362"/>
      <point x="545" y="1378"/>
      <point x="462" y="1378" type="curve"/>
      <point x="230" y="1378"/>
      <point x="106" y="1260"/>
      <point x="106" y="1024" type="curve"/>
      <point x="106" y="370" type="line"/>
      <point x="102" y="109"/>
      <point x="262" y="16"/>
      <point x="474" y="16" type="curve"/>
      <point x="553" y="16"/>
      <point x="666" y="36"/>
      <point x="778" y="82" type="curve"/>
      <point x="790" y="46" type="line"/>
      <point x="677" y="2"/>
      <point x="569" y="-20"/>
      <point x="466" y="-20" type="curve"/>
      <point x="426" y="-20"/>
      <point x="328" y="-21"/>
      <point x="232" y="30" type="curve"/>
      <point x="131" y="86"/>
      <point x="68" y="198"/>
      <point x="68" y="366" type="curve"/>
      <point x="68" y="1024" type="line" smooth="yes"/>
      <point x="68" y="1316"/>
      <point x="256" y="1416"/>
      <point x="456" y="1416" type="curve"/>
      <point x="564" y="1416"/>
      <point x="659" y="1394"/>
    </contour>
  </outline>
</glyph>
<glyph name="D" format="1">
  <advance width="988"/>
  <unicode hex="0044"/>
  <outline>
    <contour>
      <point x="82" y="1396" type="line"/>
      <point x="458" y="1396" type="line"/>
      <point x="759" y="1396"/>
      <point x="920" y="1218"/>
      <point x="920" y="946" type="curve"/>
      <point x="920" y="398" type="line" smooth="yes"/>
      <point x="920" y="134"/>
      <point x="781" y="0"/>
      <point x="498" y="0" type="curve"/>
      <point x="82" y="0" type="line"/>
    </contour>
    <contour>
      <point x="120" y="40" type="line"/>
      <point x="478" y="40" type="line"/>
      <point x="733" y="40"/>
      <point x="882" y="125"/>
      <point x="882" y="426" type="curve"/>
      <point x="882" y="932" type="line" smooth="yes"/>
      <point x="882" y="1185"/>
      <point x="748" y="1356"/>
      <point x="478" y="1356" type="curve"/>
      <point x="120" y="1356" type="line"/>
    </contour>
  </outline>
</glyph>
<glyph name="E" format="1">
  <advance width="804"/>
  <unicode hex="0045"/>
  <outline>
    <contour>
      <point x="744" y="0" type="line"/>
      <point x="82" y="0" type="line"/>
      <point x="82" y="1396" type="line"/>
      <point x="748" y="1396" type="line"/>
      <point x="748" y="1358" type="line"/>
      <point x="120" y="1358" type="line"/>
      <point x="120" y="822" type="line"/>
      <point x="574" y="822" type="line"/>
      <point x="562" y="786" type="line"/>
      <point x="120" y="786" type="line"/>
      <point x="120" y="38" type="line"/>
      <point x="744" y="38" type="line"/>
    </contour>
  </outline>
</glyph>
<glyph name="F" format="1">
  <advance width="774"/>
  <unicode hex="0046"/>
  <outline>
    <contour>
      <point x="82" y="1396" type="line"/>
      <point x="748" y="1396" type="line"/>
      <point x="748" y="1356" type="line"/>
      <point x="122" y="1356" type="line"/>
      <point x="122" y="822" type="line"/>
      <point x="576" y="822" type="line"/>
      <point x="562" y="786" type="line"/>
      <point x="122" y="786" type="line"/>
      <point x="122" y="0" type="line"/>
      <point x="82" y="0" type="line"/>
    </contour>
  </outline>
</glyph>
<glyph name="G" format="1">
  <advance width="950"/>
  <unicode hex="0047"/>
  <outline>
    <contour>
      <point x="738" y="1348" type="curve"/>
      <point x="724" y="1314" type="line"/>
      <point x="630" y="1360"/>
      <point x="537" y="1378"/>
      <point x="460" y="1378" type="curve"/>
      <point x="208" y="1378"/>
      <point x="106" y="1232"/>
      <point x="106" y="990" type="curve"/>
      <point x="106" y="372" type="line" smooth="yes"/>
      <point x="106" y="141"/>
      <point x="277" y="18"/>
      <point x="496" y="18" type="curve"/>
      <point x="718" y="18"/>
      <point x="850" y="139"/>
      <point x="850" y="364" type="curve"/>
      <point x="850" y="560" type="line"/>
      <point x="500" y="560" type="line"/>
      <point x="484" y="598" type="line"/>
      <point x="888" y="598" type="line"/>
      <point x="888" y="0" type="line"/>
      <point x="850" y="0" type="line"/>
      <point x="850" y="176" type="line"/>
      <point x="790" y="54"/>
      <point x="666" y="-20"/>
      <point x="490" y="-20" type="curve"/>
      <point x="262" y="-20"/>
      <point x="66" y="116"/>
      <point x="66" y="376" type="curve"/>
      <point x="66" y="1004" type="line" smooth="yes"/>
      <point x="66" y="1260"/>
      <point x="202" y="1414"/>
      <point x="454" y="1414" type="curve"/>
      <point x="558" y="1414"/>
      <point x="653" y="1392"/>
    </contour>
  </outline>
</glyph>
<glyph name="I" format="1">
  <advance width="324"/>
  <unicode hex="0049"/>
  <outline>
    <contour>
      <point x="202" y="1352" type="line"/>
      <point x="30" y="1358" type="line"/>
      <point x="30" y="1396" type="line"/>
      <point x="238" y="1396" type="line"/>
      <point x="238" y="0" type="line"/>
      <point x="202" y="0" type="line"/>
    </contour>
  </outline>
</glyph>
<glyph name="J" format="1">
  <advance width="354"/>
  <unicode hex="004A"/>
  <outline>
    <contour>
      <point x="272" y="1396" type="line"/>
      <point x="272" y="244" type="line"/>
      <point x="272" y="86"/>
      <point x="240" y="-44"/>
      <point x="64" y="-74" type="curve"/>
      <point x="52" y="-38" type="line"/>
      <point x="172" y="-19"/>
      <point x="236" y="71"/>
      <point x="236" y="236" type="curve"/>
      <point x="236" y="1352" type="line"/>
      <point x="66" y="1358" type="line"/>
      <point x="66" y="1396" type="line"/>
    </contour>
  </outline>
</glyph>
<glyph name="K" format="1">
  <advance width="914"/>
  <unicode hex="004B"/>
  <outline>
    <contour>
      <point x="120" y="1396" type="line"/>
      <point x="120" y="614" type="line"/>
      <point x="726" y="1396" type="line"/>
      <point x="770" y="1396" type="line"/>
      <point x="338" y="834" type="line"/>
      <point x="874" y="0" type="line"/>
      <point x="832" y="0" type="line"/>
      <point x="312" y="804" type="line"/>
      <point x="120" y="558" type="line"/>
      <point x="120" y="0" type="line"/>
      <point x="82" y="0" type="line"/>
      <point x="82" y="1396" type="line"/>
    </contour>
  </outline>
</glyph>
<glyph name="L" format="1">
  <advance width="838"/>
  <unicode hex="004C"/>
  <outline>
    <contour>
      <point x="802" y="0" type="line"/>
      <point x="82" y="0" type="line"/>
      <point x="82" y="1396" type="line"/>
      <point x="120" y="1396" type="line"/>
      <point x="120" y="40" type="line"/>
      <point x="802" y="40" type="line"/>
    </contour>
  </outline>
</glyph>
<glyph name="M" format="1">
  <advance width="1238"/>
  <unicode hex="004D"/>
  <outline>
    <contour>
      <point x="82" y="1396" type="line"/>
      <point x="118" y="1396" type="line"/>
      <point x="616" y="60" type="line"/>
      <point x="1116" y="1396" type="line"/>
      <point x="1152" y="1396" type="line"/>
      <point x="1152" y="0" type="line"/>
      <point x="1116" y="0" type="line"/>
      <point x="1116" y="1292" type="line"/>
      <point x="632" y="0" type="line"/>
      <point x="596" y="0" type="line"/>
      <point x="118" y="1292" type="line"/>
      <point x="118" y="0" type="line"/>
      <point x="82" y="0" type="line"/>
    </contour>
  </outline>
</glyph>
<glyph name="O" format="1">
  <advance width="972"/>
  <unicode hex="004F"/>
  <outline>
    <contour>
      <point x="66" y="370" type="curve"/>
      <point x="66" y="1012" type="line"/>
      <point x="66" y="1272"/>
      <point x="224" y="1428"/>
      <point x="488" y="1428" type="curve"/>
      <point x="749" y="1428"/>
      <point x="902" y="1271"/>
      <point x="902" y="1010" type="curve"/>
      <point x="902" y="370" type="line" smooth="yes"/>
      <point x="902" y="126"/>
      <point x="736" y="-22"/>
      <point x="486" y="-22" type="curve"/>
      <point x="253" y="-22"/>
      <point x="66" y="112"/>
    </contour>
    <contour>
      <point x="104" y="1012" type="curve"/>
      <point x="104" y="368" type="line"/>
      <point x="104" y="132"/>
      <point x="274" y="16"/>
      <point x="486" y="16" type="curve"/>
      <point x="702" y="16"/>
      <point x="866" y="132"/>
      <point x="866" y="368" type="curve"/>
      <point x="866" y="1016" type="line" smooth="yes"/>
      <point x="866" y="1242"/>
      <point x="738" y="1388"/>
      <point x="488" y="1388" type="curve"/>
      <point x="234" y="1388"/>
      <point x="104" y="1241"/>
    </contour>
  </outline>
</glyph>
<glyph name="P" format="1">
  <advance width="1004"/>
  <unicode hex="0050"/>
  <outline>
    <contour>
      <point x="82" y="1396" type="line"/>
      <point x="580" y="1396" type="line"/>
      <point x="833" y="1396"/>
      <point x="948" y="1242"/>
      <point x="948" y="984" type="curve"/>
      <point x="948" y="707"/>
      <point x="835" y="560"/>
      <point x="566" y="560" type="curve"/>
      <point x="448" y="560"/>
      <point x="278" y="560"/>
      <point x="120" y="560" type="curve"/>
      <point x="120" y="0" type="line"/>
      <point x="82" y="0" type="line"/>
    </contour>
    <contour>
      <point x="120" y="1356" type="line"/>
      <point x="120" y="598" type="line"/>
      <point x="295" y="598"/>
      <point x="457" y="598"/>
      <point x="564" y="598" type="curve"/>
      <point x="807" y="598"/>
      <point x="910" y="734"/>
      <point x="910" y="984" type="curve"/>
      <point x="910" y="1219"/>
      <point x="813" y="1356"/>
      <point x="582" y="1356" type="curve"/>
    </contour>
  </outline>
</glyph>
<glyph name="Q" format="1">
  <advance width="972"/>
  <unicode hex="0051"/>
  <outline>
    <contour>
      <point x="498" y="346" type="line"/>
      <point x="498" y="86" type="line"/>
      <point x="498" y="-79"/>
      <point x="590" y="-152"/>
      <point x="782" y="-152" type="curve"/>
      <point x="778" y="-192" type="line"/>
      <point x="562" y="-192"/>
      <point x="458" y="-103"/>
      <point x="458" y="86" type="curve"/>
      <point x="458" y="346" type="line"/>
    </contour>
    <component base="O"/>
  </outline>
</glyph>
<glyph name="R" format="1">
  <advance width="1014"/>
  <unicode hex="0052"/>
  <outline>
    <contour>
      <point x="82" y="1396" type="line"/>
      <point x="580" y="1396" type="line"/>
      <point x="833" y="1396"/>
      <point x="948" y="1242"/>
      <point x="948" y="984" type="curve"/>
      <point x="948" y="749"/>
      <point x="865" y="607"/>
      <point x="676" y="570" type="curve"/>
      <point x="948" y="0" type="line"/>
      <point x="908" y="0" type="line"/>
      <point x="638" y="566" type="line"/>
      <point x="614" y="563"/>
      <point x="590" y="560"/>
      <point x="566" y="560" type="curve"/>
      <point x="120" y="560" type="line"/>
      <point x="120" y="0" type="line"/>
      <point x="82" y="0" type="line"/>
    </contour>
    <contour>
      <point x="120" y="598" type="line"/>
      <point x="564" y="598" type="line"/>
      <point x="807" y="598"/>
      <point x="910" y="734"/>
      <point x="910" y="984" type="curve"/>
      <point x="910" y="1219"/>
      <point x="813" y="1356"/>
      <point x="582" y="1356" type="curve"/>
      <point x="120" y="1356" type="line"/>
    </contour>
  </outline>
</glyph>
<glyph name="S" format="1">
  <advance width="1046"/>
  <unicode hex="0053"/>
  <outline>
    <contour>
      <point x="868" y="1340" type="curve"/>
      <point x="854" y="1302" type="line"/>
      <point x="768" y="1356"/>
      <point x="648" y="1382"/>
      <point x="546" y="1382" type="curve"/>
      <point x="372" y="1382"/>
      <point x="154" y="1298"/>
      <point x="154" y="1094" type="curve"/>
      <point x="154" y="690"/>
      <point x="990" y="830"/>
      <point x="990" y="334" type="curve"/>
      <point x="990" y="78"/>
      <point x="744" y="-24"/>
      <point x="522" y="-24" type="curve"/>
      <point x="340" y="-24"/>
      <point x="148" y="44"/>
      <point x="42" y="198" type="curve"/>
      <point x="68" y="218" type="line"/>
      <point x="176" y="78"/>
      <point x="348" y="14"/>
      <point x="520" y="14" type="curve"/>
      <point x="724" y="14"/>
      <point x="952" y="100"/>
      <point x="952" y="338" type="curve"/>
      <point x="952" y="796"/>
      <point x="116" y="658"/>
      <point x="116" y="1094" type="curve"/>
      <point x="116" y="1326"/>
      <point x="354" y="1416"/>
      <point x="552" y="1416" type="curve"/>
      <point x="662" y="1416"/>
      <point x="772" y="1390"/>
    </contour>
  </outline>
</glyph>
<glyph name="T" format="1">
  <advance width="816"/>
  <unicode hex="0054"/>
  <outline>
    <contour>
      <point x="808" y="1356" type="line"/>
      <point x="420" y="1356" type="line"/>
      <point x="420" y="0" type="line"/>
      <point x="384" y="0" type="line"/>
      <point x="384" y="1356" type="line"/>
      <point x="4" y="1356" type="line"/>
      <point x="4" y="1396" type="line"/>
      <point x="808" y="1396" type="line"/>
    </contour>
  </outline>
</glyph>
<glyph name="U" format="1">
  <advance width="992"/>
  <unicode hex="0055"/>
  <outline>
    <contour>
      <point x="912" y="1396" type="line"/>
      <point x="912" y="370" type="line"/>
      <point x="912" y="235"/>
      <point x="871" y="136"/>
      <point x="788" y="72" type="curve"/>
      <point x="708" y="9"/>
      <point x="611" y="-22"/>
      <point x="496" y="-22" type="curve"/>
      <point x="380" y="-22"/>
      <point x="281" y="9"/>
      <point x="198" y="72" type="curve"/>
      <point x="117" y="136"/>
      <point x="76" y="235"/>
      <point x="76" y="370" type="curve"/>
      <point x="76" y="1396" type="line"/>
      <point x="112" y="1396" type="line"/>
      <point x="112" y="368" type="line" smooth="yes"/>
      <point x="112" y="251"/>
      <point x="149" y="163"/>
      <point x="224" y="104" type="curve"/>
      <point x="299" y="45"/>
      <point x="389" y="16"/>
      <point x="496" y="16" type="curve"/>
      <point x="600" y="16"/>
      <point x="692" y="44"/>
      <point x="764" y="100" type="curve"/>
      <point x="839" y="156"/>
      <point x="874" y="245"/>
      <point x="874" y="368" type="curve"/>
      <point x="874" y="1396" type="line"/>
    </contour>
  </outline>
</glyph>
<glyph name="V" format="1">
  <advance width="1012"/>
  <unicode hex="0056"/>
  <outline>
    <contour>
      <point x="484" y="0" type="line"/>
      <point x="26" y="1396" type="line"/>
      <point x="64" y="1396" type="line"/>
      <point x="504" y="52" type="line"/>
      <point x="942" y="1396" type="line"/>
      <point x="980" y="1396" type="line"/>
      <point x="528" y="0" type="line"/>
    </contour>
  </outline>
</glyph>
<glyph name="W" format="1">
  <advance width="1454"/>
  <unicode hex="0057"/>
  <outline>
    <contour>
      <point x="704" y="1396" type="line"/>
      <point x="746" y="1396" type="line"/>
      <point x="1038" y="70" type="line"/>
      <point x="1374" y="1396" type="line"/>
      <point x="1418" y="1396" type="line"/>
      <point x="1058" y="0" type="line"/>
      <point x="1016" y="0" type="line"/>
      <point x="726" y="1302" type="line"/>
      <point x="436" y="0" type="line"/>
      <point x="394" y="0" type="line"/>
      <point x="30" y="1396" type="line"/>
      <point x="72" y="1396" type="line"/>
      <point x="414" y="72" type="line"/>
    </contour>
  </outline>
</glyph>
<glyph name="Z" format="1">
  <advance width="1078"/>
  <unicode hex="005A"/>
  <outline>
    <contour>
      <point x="78" y="1396" type="line"/>
      <point x="1012" y="1396" type="line"/>
      <point x="1012" y="1358" type="line"/>
      <point x="100" y="38" type="line"/>
      <point x="1024" y="38" type="line"/>
      <point x="1024" y="0" type="line"/>
      <point x="54" y="0" type="line"/>
      <point x="54" y="38" type="line"/>
      <point x="964" y="1358" type="line"/>
      <point x="80" y="1358" type="line"/>
    </contour>
  </outline>
</glyph>
<glyph name="bracketleft" format="1">
  <advance width="436"/>
  <unicode hex="005B"/>
  <outline>
    <contour>
      <point x="406" y="1596" type="line"/>
      <point x="122" y="1592" type="line"/>
      <point x="122" y="-190" type="line"/>
      <point x="406" y="-192" type="line"/>
      <point x="406" y="-226" type="line"/>
      <point x="84" y="-226" type="line"/>
      <point x="84" y="1630" type="line"/>
      <point x="406" y="1630" type="line"/>
    </contour>
  </outline>
</glyph>
<glyph name="backslash" format="1">
  <advance width="754"/>
  <unicode hex="005C"/>
  <outline>
    <contour>
      <point x="720" y="-226" type="line"/>
      <point x="680" y="-226" type="line"/>
      <point x="32" y="1630" type="line"/>
      <point x="74" y="1630" type="line"/>
    </contour>
  </outline>
</glyph>
<glyph name="bracketright" format="1">
  <advance width="438"/>
  <unicode hex="005D"/>
  <outline>
    <contour>
      <point x="352" y="-226" type="line"/>
      <point x="30" y="-226" type="line"/>
      <point x="30" y="-192" type="line"/>
      <point x="314" y="-190" type="line"/>
      <point x="314" y="1592" type="line"/>
      <point x="30" y="1596" type="line"/>
      <point x="30" y="1630" type="line"/>
      <point x="352" y="1630" type="line"/>
    </contour>
  </outline>
</glyph>
<glyph name="asciicircum" format="1">
  <advance width="532"/>
  <unicode hex="005E"/>
  <outline>
    <contour>
      <point x="268" y="1794" type="line"/>
      <point x="508" y="1558" type="line"/>
      <point x="478" y="1526" type="line"/>
      <point x="268" y="1734" type="line"/>
      <point x="52" y="1526" type="line"/>
      <point x="22" y="1556" type="line"/>
    </contour>
  </outline>
</glyph>
<glyph name="underscore" format="1">
  <advance width="764"/>
  <unicode hex="005F"/>
  <outline>
    <contour>
      <point x="704" y="-40" type="line"/>
      <point x="66" y="-40" type="line"/>
      <point x="66" y="0" type="line"/>
      <point x="704" y="0" type="line"/>
    </contour>
  </outline>
</glyph>
<glyph name="grave" format="1">
  <advance width="532"/>
  <unicode hex="0060"/>
  <outline>
    <contour>
      <point x="182" y="1454" type="curve"/>
      <point x="286" y="1226" type="line"/>
      <point x="244" y="1226" type="line"/>
      <point x="132" y="1428" type="line" smooth="yes"/>
      <point x="124" y="1444"/>
      <point x="124" y="1463"/>
      <point x="140" y="1474" type="curve"/>
      <point x="156" y="1482"/>
      <point x="177" y="1473"/>
    </contour>
  </outline>
</glyph>
<glyph name="a" format="1">
  <advance width="888"/>
  <unicode hex="0061"/>
  <outline>
    <contour>
      <point x="780" y="690" type="curve"/>
      <point x="780" y="783"/>
      <point x="742" y="863"/>
      <point x="670" y="914" type="curve"/>
      <point x="611" y="954"/>
      <point x="536" y="976"/>
      <point x="400" y="976" type="curve"/>
      <point x="402" y="1014" type="line"/>
      <point x="533" y="1014"/>
      <point x="628" y="989"/>
      <point x="696" y="940" type="curve"/>
      <point x="778" y="880"/>
      <point x="818" y="790"/>
      <point x="818" y="670" type="curve"/>
      <point x="818" y="0" type="line"/>
      <point x="824" y="0"/>
      <point x="534" y="-20"/>
      <point x="458" y="-20" type="curve"/>
      <point x="170" y="-20"/>
      <point x="50" y="100"/>
      <point x="50" y="336" type="curve"/>
      <point x="50" y="502" type="line" smooth="yes"/>
      <point x="50" y="630"/>
      <point x="103" y="806"/>
      <point x="372" y="806" type="curve"/>
      <point x="519" y="806"/>
      <point x="660" y="749"/>
    </contour>
    <contour>
      <point x="780" y="36" type="curve"/>
      <point x="780" y="644" type="line"/>
      <point x="637" y="717"/>
      <point x="517" y="768"/>
      <point x="370" y="768" type="curve"/>
      <point x="164" y="768"/>
      <point x="86" y="646"/>
      <point x="86" y="498" type="curve"/>
      <point x="86" y="324" type="line" smooth="yes"/>
      <point x="86" y="179"/>
      <point x="146" y="16"/>
      <point x="458" y="16" type="curve"/>
      <point x="546" y="16"/>
      <point x="785" y="36"/>
    </contour>
  </outline>
</glyph>
<glyph name="b" format="1">
  <advance width="908"/>
  <unicode hex="0062"/>
  <outline>
    <contour>
      <point x="120" y="1396" type="line"/>
      <point x="120" y="940" type="line"/>
      <point x="221" y="985"/>
      <point x="347" y="1016"/>
      <point x="494" y="1016" type="curve"/>
      <point x="763" y="1016"/>
      <point x="850" y="842"/>
      <point x="850" y="716" type="curve"/>
      <point x="850" y="720"/>
      <point x="850" y="334"/>
      <point x="850" y="336" type="curve"/>
      <point x="850" y="99"/>
      <point x="736" y="-22"/>
      <point x="440" y="-22" type="curve"/>
      <point x="366" y="-22"/>
      <point x="76" y="-2"/>
      <point x="82" y="-2" type="curve"/>
      <point x="82" y="1396" type="line"/>
    </contour>
    <contour>
      <point x="120" y="36" type="curve"/>
      <point x="116" y="37"/>
      <point x="351" y="15"/>
      <point x="440" y="14" type="curve"/>
      <point x="755" y="9"/>
      <point x="812" y="179"/>
      <point x="812" y="322" type="curve"/>
      <point x="812" y="359"/>
      <point x="812" y="666"/>
      <point x="812" y="708" type="curve"/>
      <point x="812" y="859"/>
      <point x="703" y="982"/>
      <point x="496" y="982" type="curve"/>
      <point x="349" y="982"/>
      <point x="227" y="948"/>
      <point x="120" y="900" type="curve"/>
      <point x="120" y="902"/>
      <point x="120" y="34"/>
    </contour>
  </outline>
</glyph>
<glyph name="c" format="1">
  <advance width="754"/>
  <unicode hex="0063"/>
  <outline>
    <contour>
      <point x="694" y="952" type="curve"/>
      <point x="680" y="914" type="line"/>
      <point x="565" y="973"/>
      <point x="445" y="991"/>
      <point x="344" y="970" type="curve"/>
      <point x="261" y="951"/>
      <point x="191" y="906"/>
      <point x="146" y="834" type="curve"/>
      <point x="111" y="778"/>
      <point x="94" y="711"/>
      <point x="94" y="626" type="curve"/>
      <point x="94" y="350" type="line" smooth="yes"/>
      <point x="94" y="198"/>
      <point x="141" y="90"/>
      <point x="282" y="42" type="curve"/>
      <point x="457" y="-18"/>
      <point x="693" y="52"/>
      <point x="690" y="50" type="curve"/>
      <point x="698" y="10" type="line"/>
      <point x="565" y="-25"/>
      <point x="400" y="-35"/>
      <point x="280" y="2" type="curve"/>
      <point x="144" y="47"/>
      <point x="56" y="151"/>
      <point x="56" y="346" type="curve"/>
      <point x="56" y="636" type="line"/>
      <point x="61" y="724"/>
      <point x="75" y="788"/>
      <point x="110" y="852" type="curve"/>
      <point x="163" y="940"/>
      <point x="239" y="989"/>
      <point x="330" y="1008" type="curve"/>
      <point x="447" y="1032"/>
      <point x="579" y="1008"/>
    </contour>
  </outline>
</glyph>
<glyph name="d" format="1">
  <advance width="910"/>
  <unicode hex="0064"/>
  <outline>
    <contour>
      <point x="824" y="1396" type="line"/>
      <point x="824" y="-2" type="line"/>
      <point x="830" y="-2"/>
      <point x="540" y="-22"/>
      <point x="466" y="-22" type="curve"/>
      <point x="174" y="-22"/>
      <point x="56" y="99"/>
      <point x="56" y="336" type="curve"/>
      <point x="56" y="716" type="line" smooth="yes"/>
      <point x="56" y="841"/>
      <point x="147" y="1016"/>
      <point x="414" y="1016" type="curve"/>
      <point x="561" y="1016"/>
      <point x="682" y="985"/>
      <point x="786" y="940" type="curve"/>
      <point x="786" y="1396" type="line"/>
    </contour>
    <contour>
      <point x="786" y="36" type="curve"/>
      <point x="786" y="900" type="line"/>
      <point x="682" y="948"/>
      <point x="559" y="982"/>
      <point x="410" y="982" type="curve"/>
      <point x="206" y="982"/>
      <point x="96" y="859"/>
      <point x="96" y="708" type="curve"/>
      <point x="96" y="322" type="line" smooth="yes"/>
      <point x="96" y="179"/>
      <point x="154" y="12"/>
      <point x="468" y="14" type="curve"/>
      <point x="556" y="14"/>
      <point x="789" y="37"/>
    </contour>
  </outline>
</glyph>
<glyph name="e" format="1">
  <advance width="838"/>
  <unicode hex="0065"/>
  <outline>
    <contour>
      <point x="98" y="458" type="line"/>
      <point x="98" y="264" type="line"/>
      <point x="98" y="74"/>
      <point x="234" y="14"/>
      <point x="404" y="14" type="curve"/>
      <point x="513" y="14"/>
      <point x="597" y="40"/>
      <point x="712" y="104" type="curve"/>
      <point x="728" y="70" type="line"/>
      <point x="629" y="9"/>
      <point x="520" y="-24"/>
      <point x="408" y="-24" type="curve"/>
      <point x="214" y="-24"/>
      <point x="60" y="50"/>
      <point x="60" y="266" type="curve"/>
      <point x="60" y="676" type="line" smooth="yes"/>
      <point x="60" y="898"/>
      <point x="216" y="1016"/>
      <point x="428" y="1016" type="curve"/>
      <point x="638" y="1016"/>
      <point x="780" y="904"/>
      <point x="780" y="682" type="curve"/>
      <point x="780" y="492" type="line"/>
    </contour>
    <contour>
      <point x="740" y="528" type="line"/>
      <point x="740" y="684" type="line"/>
      <point x="740" y="886"/>
      <point x="610" y="982"/>
      <point x="420" y="982" type="curve"/>
      <point x="218" y="982"/>
      <point x="98" y="868"/>
      <point x="98" y="664" type="curve"/>
      <point x="98" y="496" type="line"/>
    </contour>
  </outline>
</glyph>
<glyph name="f" format="1">
  <advance width="492"/>
  <unicode hex="0066"/>
  <outline>
    <contour>
      <point x="446" y="1410" type="curve"/>
      <point x="438" y="1374" type="line"/>
      <point x="419" y="1379"/>
      <point x="405" y="1382"/>
      <point x="386" y="1382" type="curve"/>
      <point x="262" y="1386"/>
      <point x="118" y="1325"/>
      <point x="118" y="1096" type="curve"/>
      <point x="118" y="996" type="line"/>
      <point x="418" y="996" type="line"/>
      <point x="404" y="964" type="line"/>
      <point x="118" y="964" type="line"/>
      <point x="118" y="0" type="line"/>
      <point x="78" y="0" type="line"/>
      <point x="78" y="1096" type="line" smooth="yes"/>
      <point x="78" y="1341"/>
      <point x="235" y="1416"/>
      <point x="374" y="1416" type="curve"/>
      <point x="398" y="1416"/>
      <point x="425" y="1415"/>
    </contour>
  </outline>
</glyph>
<glyph name="g" format="1">
  <advance width="874"/>
  <unicode hex="0067"/>
  <outline>
    <contour>
      <point x="796" y="996" type="line"/>
      <point x="796" y="-128" type="line"/>
      <point x="796" y="-288"/>
      <point x="732" y="-372"/>
      <point x="580" y="-420" type="curve"/>
      <point x="568" y="-386" type="line"/>
      <point x="631" y="-358"/>
      <point x="756" y="-327"/>
      <point x="756" y="-126" type="curve"/>
      <point x="756" y="160" type="line"/>
      <point x="712" y="45"/>
      <point x="526" y="-24"/>
      <point x="406" y="-24" type="curve"/>
      <point x="185" y="-24"/>
      <point x="58" y="107"/>
      <point x="58" y="350" type="curve"/>
      <point x="58" y="688" type="line" smooth="yes"/>
      <point x="58" y="901"/>
      <point x="190" y="1016"/>
      <point x="408" y="1016" type="curve"/>
      <point x="503" y="1016"/>
      <point x="656" y="978"/>
      <point x="756" y="902" type="curve"/>
      <point x="756" y="996" type="line"/>
    </contour>
    <contour>
      <point x="756" y="294" type="curve"/>
      <point x="756" y="852" type="line"/>
      <point x="672" y="940"/>
      <point x="490" y="982"/>
      <point x="376" y="976" type="curve"/>
      <point x="234" y="970"/>
      <point x="98" y="902"/>
      <point x="98" y="692" type="curve"/>
      <point x="98" y="336" type="line" smooth="yes"/>
      <point x="98" y="133"/>
      <point x="206" y="26"/>
      <point x="376" y="16" type="curve"/>
      <point x="548" y="6"/>
      <point x="761" y="102"/>
    </contour>
  </outline>
</glyph>
<glyph name="i" format="1">
  <advance width="232"/>
  <unicode hex="0069"/>
  <outline>
    <contour>
      <point x="132" y="0" type="line"/>
      <point x="94" y="0" type="line"/>
      <point x="94" y="998" type="line"/>
      <point x="132" y="998" type="line"/>
    </contour>
    <contour>
      <point x="114" y="1416" type="curve"/>
      <point x="133" y="1416"/>
      <point x="148" y="1403"/>
      <point x="148" y="1382" type="curve"/>
      <point x="148" y="1363"/>
      <point x="133" y="1348"/>
      <point x="114" y="1348" type="curve"/>
      <point x="95" y="1348"/>
      <point x="80" y="1363"/>
      <point x="80" y="1382" type="curve"/>
      <point x="80" y="1403"/>
      <point x="95" y="1416"/>
    </contour>
  </outline>
</glyph>
<glyph name="j" format="1">
  <advance width="362"/>
  <unicode hex="006A"/>
  <outline>
    <contour>
      <point x="262" y="998" type="line"/>
      <point x="262" y="-136" type="line"/>
      <point x="262" y="-232"/>
      <point x="240" y="-299"/>
      <point x="192" y="-350" type="curve"/>
      <point x="157" y="-382"/>
      <point x="111" y="-407"/>
      <point x="50" y="-426" type="curve"/>
      <point x="38" y="-392" type="line"/>
      <point x="99" y="-368"/>
      <point x="119" y="-357"/>
      <point x="164" y="-322" type="curve"/>
      <point x="207" y="-285"/>
      <point x="228" y="-225"/>
      <point x="228" y="-134" type="curve"/>
      <point x="228" y="962" type="line"/>
      <point x="58" y="962" type="line"/>
      <point x="58" y="998" type="line"/>
    </contour>
    <contour>
      <point x="278" y="1382" type="curve"/>
      <point x="278" y="1363"/>
      <point x="267" y="1348"/>
      <point x="246" y="1348" type="curve"/>
      <point x="227" y="1348"/>
      <point x="212" y="1363"/>
      <point x="212" y="1382" type="curve"/>
      <point x="212" y="1403"/>
      <point x="227" y="1414"/>
      <point x="246" y="1414" type="curve"/>
      <point x="267" y="1414"/>
      <point x="278" y="1403"/>
    </contour>
  </outline>
</glyph>
<glyph name="k" format="1">
  <advance width="848"/>
  <unicode hex="006B"/>
  <outline>
    <contour>
      <point x="620" y="1012" type="line"/>
      <point x="346" y="756" type="line"/>
      <point x="814" y="0" type="line"/>
      <point x="768" y="0" type="line"/>
      <point x="318" y="730" type="line"/>
      <point x="122" y="552" type="line"/>
      <point x="122" y="0" type="line"/>
      <point x="82" y="0" type="line"/>
      <point x="82" y="1396" type="line"/>
      <point x="122" y="1396" type="line"/>
      <point x="122" y="600" type="line"/>
      <point x="594" y="1036" type="line"/>
    </contour>
  </outline>
</glyph>
<glyph name="l" format="1">
  <advance width="208"/>
  <unicode hex="006C"/>
  <outline>
    <contour>
      <point x="122" y="0" type="line"/>
      <point x="82" y="0" type="line"/>
      <point x="82" y="1396" type="line"/>
      <point x="122" y="1396" type="line"/>
    </contour>
  </outline>
</glyph>
<glyph name="m" format="1">
  <advance width="1430"/>
  <unicode hex="006D"/>
  <outline>
    <contour>
      <point x="1324" y="0" type="line"/>
      <point x="1324" y="688" type="line"/>
      <point x="1324" y="914"/>
      <point x="1220" y="1000"/>
      <point x="1004" y="984" type="curve"/>
      <point x="892" y="973"/>
      <point x="782" y="927"/>
      <point x="702" y="882" type="curve"/>
      <point x="723" y="834"/>
      <point x="740" y="771"/>
      <point x="740" y="686" type="curve"/>
      <point x="740" y="0" type="line"/>
      <point x="700" y="0" type="line"/>
      <point x="700" y="688" type="line" smooth="yes"/>
      <point x="700" y="914"/>
      <point x="595" y="1000"/>
      <point x="382" y="984" type="curve"/>
      <point x="262" y="973"/>
      <point x="189" y="939"/>
      <point x="114" y="902" type="curve"/>
      <point x="114" y="0" type="line"/>
      <point x="76" y="0" type="line"/>
      <point x="76" y="996" type="line"/>
      <point x="114" y="996" type="line"/>
      <point x="114" y="940" type="line"/>
      <point x="175" y="972"/>
      <point x="271" y="1006"/>
      <point x="372" y="1014" type="curve"/>
      <point x="487" y="1024"/>
      <point x="616" y="1015"/>
      <point x="684" y="908" type="curve"/>
      <point x="764" y="963"/>
      <point x="899" y="1009"/>
      <point x="996" y="1014" type="curve"/>
      <point x="1166" y="1030"/>
      <point x="1358" y="997"/>
      <point x="1358" y="686" type="curve"/>
      <point x="1358" y="0" type="line"/>
    </contour>
  </outline>
</glyph>
<glyph name="n" format="1">
  <advance width="884"/>
  <unicode hex="006E"/>
  <outline>
    <contour>
      <point x="776" y="0" type="line"/>
      <point x="776" y="690" type="line"/>
      <point x="776" y="918"/>
      <point x="648" y="998"/>
      <point x="432" y="986" type="curve"/>
      <point x="317" y="981"/>
      <point x="189" y="941"/>
      <point x="114" y="904" type="curve"/>
      <point x="114" y="0" type="line"/>
      <point x="76" y="0" type="line"/>
      <point x="76" y="998" type="line"/>
      <point x="114" y="998" type="line"/>
      <point x="114" y="942" type="line"/>
      <point x="200" y="982"/>
      <point x="312" y="1011"/>
      <point x="406" y="1016" type="curve"/>
      <point x="579" y="1026"/>
      <point x="812" y="1003"/>
      <point x="812" y="688" type="curve"/>
      <point x="812" y="0" type="line"/>
    </contour>
  </outline>
</glyph>
<glyph name="o" format="1">
  <advance width="852"/>
  <unicode hex="006F"/>
  <outline>
    <contour>
      <point x="792" y="630" type="curve"/>
      <point x="792" y="368" type="line"/>
      <point x="792" y="135"/>
      <point x="669" y="-20"/>
      <point x="428" y="-20" type="curve"/>
      <point x="171" y="-20"/>
      <point x="54" y="154"/>
      <point x="54" y="368" type="curve"/>
      <point x="54" y="630" type="line" smooth="yes"/>
      <point x="54" y="883"/>
      <point x="191" y="1020"/>
      <point x="428" y="1020" type="curve"/>
      <point x="665" y="1020"/>
      <point x="792" y="873"/>
    </contour>
    <contour>
      <point x="754" y="368" type="curve"/>
      <point x="754" y="638" type="line"/>
      <point x="754" y="867"/>
      <point x="617" y="984"/>
      <point x="428" y="984" type="curve"/>
      <point x="207" y="984"/>
      <point x="94" y="855"/>
      <point x="94" y="638" type="curve"/>
      <point x="94" y="368" type="line" smooth="yes"/>
      <point x="94" y="172"/>
      <point x="206" y="16"/>
      <point x="428" y="16" type="curve"/>
      <point x="656" y="16"/>
      <point x="754" y="168"/>
    </contour>
  </outline>
</glyph>
<glyph name="p" format="1">
  <advance width="878"/>
  <unicode hex="0070"/>
  <outline>
    <contour>
      <point x="816" y="688" type="curve"/>
      <point x="816" y="350" type="line"/>
      <point x="816" y="107"/>
      <point x="690" y="-24"/>
      <point x="468" y="-24" type="curve"/>
      <point x="331" y="-24"/>
      <point x="166" y="45"/>
      <point x="118" y="160" type="curve"/>
      <point x="118" y="-424" type="line"/>
      <point x="78" y="-412" type="line"/>
      <point x="78" y="996" type="line"/>
      <point x="118" y="996" type="line"/>
      <point x="118" y="892" type="line"/>
      <point x="224" y="958"/>
      <point x="347" y="1012"/>
      <point x="468" y="1016" type="curve"/>
      <point x="684" y="1023"/>
      <point x="816" y="901"/>
    </contour>
    <contour>
      <point x="782" y="336" type="curve"/>
      <point x="782" y="688" type="line"/>
      <point x="782" y="896"/>
      <point x="648" y="979"/>
      <point x="492" y="984" type="curve"/>
      <point x="374" y="988"/>
      <point x="214" y="924"/>
      <point x="118" y="852" type="curve"/>
      <point x="118" y="294" type="line"/>
      <point x="113" y="101"/>
      <point x="318" y="-2"/>
      <point x="496" y="8" type="curve"/>
      <point x="670" y="18"/>
      <point x="782" y="133"/>
    </contour>
  </outline>
</glyph>
<glyph name="q" format="1">
  <advance width="872"/>
  <unicode hex="0071"/>
  <outline>
    <contour>
      <point x="756" y="-414" type="line"/>
      <point x="756" y="162" type="line"/>
      <point x="683" y="29"/>
      <point x="529" y="-22"/>
      <point x="406" y="-22" type="curve"/>
      <point x="185" y="-22"/>
      <point x="58" y="109"/>
      <point x="58" y="352" type="curve"/>
      <point x="58" y="690" type="line" smooth="yes"/>
      <point x="58" y="912"/>
      <point x="189" y="1029"/>
      <point x="408" y="1018" type="curve"/>
      <point x="502" y="1014"/>
      <point x="634" y="982"/>
      <point x="756" y="900" type="curve"/>
      <point x="756" y="996" type="line"/>
      <point x="794" y="996" type="line"/>
      <point x="794" y="-422" type="line"/>
    </contour>
    <contour>
      <point x="756" y="296" type="curve"/>
      <point x="756" y="854" type="line"/>
      <point x="693" y="917"/>
      <point x="515" y="988"/>
      <point x="376" y="984" type="curve"/>
      <point x="234" y="980"/>
      <point x="98" y="917"/>
      <point x="98" y="696" type="curve"/>
      <point x="98" y="338" type="line" smooth="yes"/>
      <point x="98" y="130"/>
      <point x="218" y="12"/>
      <point x="402" y="12" type="curve"/>
      <point x="562" y="12"/>
      <point x="756" y="100"/>
    </contour>
  </outline>
</glyph>
<glyph name="r" format="1">
  <advance width="658"/>
  <unicode hex="0072"/>
  <outline>
    <contour>
      <point x="618" y="1012" type="curve"/>
      <point x="616" y="980" type="line"/>
      <point x="587" y="985"/>
      <point x="553" y="988"/>
      <point x="524" y="988" type="curve"/>
      <point x="424" y="988"/>
      <point x="311" y="952"/>
      <point x="114" y="864" type="curve"/>
      <point x="114" y="0" type="line"/>
      <point x="76" y="0" type="line"/>
      <point x="76" y="998" type="line"/>
      <point x="114" y="998" type="line"/>
      <point x="114" y="906" type="line"/>
      <point x="279" y="975"/>
      <point x="413" y="1026"/>
      <point x="528" y="1026" type="curve"/>
      <point x="560" y="1026"/>
      <point x="591" y="1020"/>
    </contour>
  </outline>
</glyph>
<glyph name="s" format="1">
  <advance width="810"/>
  <unicode hex="0073"/>
  <outline>
    <contour>
      <point x="668" y="948" type="curve"/>
      <point x="646" y="920" type="line"/>
      <point x="646" y="917"/>
      <point x="554" y="984"/>
      <point x="416" y="984" type="curve"/>
      <point x="292" y="984"/>
      <point x="146" y="932"/>
      <point x="138" y="788" type="curve"/>
      <point x="134" y="719"/>
      <point x="159" y="667"/>
      <point x="222" y="626" type="curve"/>
      <point x="273" y="593"/>
      <point x="346" y="567"/>
      <point x="442" y="532" type="curve"/>
      <point x="584" y="480"/>
      <point x="754" y="414"/>
      <point x="754" y="238" type="curve"/>
      <point x="754" y="166"/>
      <point x="724" y="104"/>
      <point x="670" y="56" type="curve"/>
      <point x="613" y="6"/>
      <point x="527" y="-30"/>
      <point x="404" y="-30" type="curve"/>
      <point x="324" y="-30"/>
      <point x="259" y="-17"/>
      <point x="206" y="8" type="curve"/>
      <point x="136" y="41"/>
      <point x="87" y="88"/>
      <point x="50" y="136" type="curve"/>
      <point x="76" y="162" type="line"/>
      <point x="160" y="50"/>
      <point x="266" y="4"/>
      <point x="404" y="4" type="curve"/>
      <point x="546" y="4"/>
      <point x="708" y="66"/>
      <point x="716" y="228" type="curve"/>
      <point x="721" y="287"/>
      <point x="704" y="337"/>
      <point x="648" y="388" type="curve"/>
      <point x="605" y="425"/>
      <point x="534" y="461"/>
      <point x="430" y="498" type="curve"/>
      <point x="337" y="530"/>
      <point x="256" y="558"/>
      <point x="196" y="600" type="curve"/>
      <point x="136" y="642"/>
      <point x="100" y="698"/>
      <point x="100" y="778" type="curve"/>
      <point x="100" y="860"/>
      <point x="138" y="922"/>
      <point x="206" y="966" type="curve"/>
      <point x="267" y="1003"/>
      <point x="347" y="1020"/>
      <point x="416" y="1020" type="curve"/>
      <point x="564" y="1020"/>
      <point x="666" y="950"/>
    </contour>
  </outline>
</glyph>
<glyph name="t" format="1">
  <advance width="476"/>
  <unicode hex="0074"/>
  <outline>
    <contour>
      <point x="118" y="962" type="line"/>
      <point x="118" y="264" type="line"/>
      <point x="118" y="117"/>
      <point x="169" y="53"/>
      <point x="302" y="8" type="curve"/>
      <point x="288" y="-26" type="line"/>
      <point x="141" y="17"/>
      <point x="78" y="107"/>
      <point x="78" y="264" type="curve"/>
      <point x="78" y="1396" type="line"/>
      <point x="118" y="1396" type="line"/>
      <point x="118" y="998" type="line"/>
      <point x="430" y="998" type="line"/>
      <point x="412" y="962" type="line"/>
    </contour>
  </outline>
</glyph>
<glyph name="u" format="1">
  <advance width="886"/>
  <unicode hex="0075"/>
  <outline>
    <contour>
      <point x="766" y="0" type="line"/>
      <point x="766" y="194" type="line"/>
      <point x="718" y="64"/>
      <point x="589" y="-10"/>
      <point x="456" y="-18" type="curve"/>
      <point x="310" y="-27"/>
      <point x="68" y="-1"/>
      <point x="68" y="312" type="curve"/>
      <point x="68" y="998" type="line"/>
      <point x="108" y="998" type="line"/>
      <point x="108" y="310" type="line" smooth="yes"/>
      <point x="108" y="86"/>
      <point x="240" y="3"/>
      <point x="456" y="18" type="curve"/>
      <point x="649" y="31"/>
      <point x="766" y="175"/>
      <point x="766" y="336" type="curve"/>
      <point x="766" y="998" type="line"/>
      <point x="808" y="998" type="line"/>
      <point x="808" y="0" type="line"/>
    </contour>
  </outline>
</glyph>
<glyph name="w" format="1">
  <advance width="1336"/>
  <unicode hex="0077"/>
  <outline>
    <contour>
      <point x="650" y="996" type="line"/>
      <point x="672" y="996" type="line"/>
      <point x="942" y="72" type="line"/>
      <point x="1250" y="996" type="line"/>
      <point x="1290" y="996" type="line"/>
      <point x="956" y="0" type="line"/>
      <point x="930" y="0" type="line"/>
      <point x="660" y="906" type="line"/>
      <point x="396" y="0" type="line"/>
      <point x="372" y="0" type="line"/>
      <point x="36" y="996" type="line"/>
      <point x="76" y="996" type="line"/>
      <point x="382" y="72" type="line"/>
    </contour>
  </outline>
</glyph>
<glyph name="x" format="1">
  <advance width="780"/>
  <unicode hex="0078"/>
  <outline>
    <contour>
      <point x="118" y="996" type="line"/>
      <point x="396" y="528" type="line"/>
      <point x="680" y="996" type="line"/>
      <point x="724" y="996" type="line"/>
      <point x="418" y="498" type="line"/>
      <point x="718" y="0" type="line"/>
      <point x="676" y="0" type="line"/>
      <point x="396" y="466" type="line"/>
      <point x="102" y="0" type="line"/>
      <point x="58" y="0" type="line"/>
      <point x="374" y="500" type="line"/>
      <point x="72" y="996" type="line"/>
    </contour>
  </outline>
</glyph>
<glyph name="y" format="1">
  <advance width="918"/>
  <unicode hex="0079"/>
  <outline>
    <contour>
      <point x="832" y="1020" type="curve"/>
      <point x="858" y="998" type="line"/>
      <point x="815" y="963"/>
      <point x="806" y="922"/>
      <point x="806" y="834" type="curve"/>
      <point x="806" y="-134" type="line" smooth="yes"/>
      <point x="806" y="-302"/>
      <point x="748" y="-372"/>
      <point x="596" y="-424" type="curve"/>
      <point x="584" y="-390" type="line"/>
      <point x="716" y="-338"/>
      <point x="772" y="-284"/>
      <point x="772" y="-132" type="curve"/>
      <point x="772" y="198" type="line"/>
      <point x="724" y="65"/>
      <point x="594" y="-8"/>
      <point x="458" y="-16" type="curve"/>
      <point x="310" y="-25"/>
      <point x="68" y="1"/>
      <point x="68" y="314" type="curve"/>
      <point x="68" y="998" type="line"/>
      <point x="108" y="998" type="line"/>
      <point x="108" y="312" type="line" smooth="yes"/>
      <point x="108" y="88"/>
      <point x="242" y="5"/>
      <point x="456" y="20" type="curve"/>
      <point x="648" y="33"/>
      <point x="772" y="177"/>
      <point x="772" y="338" type="curve"/>
      <point x="772" y="836" type="line" smooth="yes"/>
      <point x="772" y="930"/>
      <point x="783" y="971"/>
    </contour>
  </outline>
</glyph>
<glyph name="z" format="1">
  <advance width="842"/>
  <unicode hex="007A"/>
  <outline>
    <contour>
      <point x="76" y="998" type="line"/>
      <point x="750" y="998" type="line"/>
      <point x="750" y="962" type="line"/>
      <point x="104" y="38" type="line"/>
      <point x="790" y="38" type="line"/>
      <point x="790" y="0" type="line"/>
      <point x="58" y="0" type="line"/>
      <point x="58" y="38" type="line"/>
      <point x="702" y="962" type="line"/>
      <point x="76" y="962" type="line"/>
    </contour>
  </outline>
</glyph>
<glyph name="braceleft" format="1">
  <advance width="470"/>
  <unicode hex="007B"/>
  <outline>
    <contour>
      <point x="248" y="1256" type="curve"/>
      <point x="248" y="1030" type="line"/>
      <point x="248" y="974"/>
      <point x="241" y="919"/>
      <point x="227" y="864" type="curve"/>
      <point x="213" y="809"/>
      <point x="175" y="756"/>
      <point x="112" y="704" type="curve"/>
      <point x="175" y="652"/>
      <point x="213" y="599"/>
      <point x="227" y="544" type="curve"/>
      <point x="241" y="489"/>
      <point x="248" y="434"/>
      <point x="248" y="378" type="curve"/>
      <point x="248" y="152" type="line" smooth="yes"/>
      <point x="248" y="-137"/>
      <point x="433" y="-196"/>
      <point x="440" y="-196" type="curve"/>
      <point x="432" y="-234" type="line"/>
      <point x="426" y="-234"/>
      <point x="212" y="-169"/>
      <point x="212" y="152" type="curve"/>
      <point x="212" y="378" type="line" smooth="yes"/>
      <point x="212" y="434"/>
      <point x="205" y="487"/>
      <point x="190" y="538" type="curve"/>
      <point x="175" y="589"/>
      <point x="137" y="639"/>
      <point x="74" y="688" type="curve"/>
      <point x="52" y="704" type="line"/>
      <point x="74" y="720" type="line" smooth="yes"/>
      <point x="137" y="768"/>
      <point x="175" y="818"/>
      <point x="190" y="869" type="curve"/>
      <point x="205" y="920"/>
      <point x="212" y="974"/>
      <point x="212" y="1030" type="curve"/>
      <point x="212" y="1256" type="line" smooth="yes"/>
      <point x="212" y="1579"/>
      <point x="426" y="1634"/>
      <point x="432" y="1640" type="curve"/>
      <point x="438" y="1602" type="line"/>
      <point x="433" y="1602"/>
      <point x="248" y="1544"/>
    </contour>
  </outline>
</glyph>
<glyph name="bar" format="1">
  <advance width="206"/>
  <unicode hex="007C"/>
  <outline>
    <contour>
      <point x="120" y="-226" type="line"/>
      <point x="84" y="-226" type="line"/>
      <point x="84" y="1630" type="line"/>
      <point x="120" y="1630" type="line"/>
    </contour>
  </outline>
</glyph>
<glyph name="braceright" format="1">
  <advance width="476"/>
  <unicode hex="007D"/>
  <outline>
    <contour>
      <point x="30" y="1602" type="curve"/>
      <point x="40" y="1640" type="line"/>
      <point x="48" y="1636"/>
      <point x="258" y="1577"/>
      <point x="258" y="1256" type="curve"/>
      <point x="258" y="1030" type="line" smooth="yes"/>
      <point x="258" y="918"/>
      <point x="268" y="816"/>
      <point x="396" y="720" type="curve"/>
      <point x="418" y="704" type="line"/>
      <point x="396" y="688" type="line" smooth="yes"/>
      <point x="268" y="592"/>
      <point x="258" y="488"/>
      <point x="258" y="378" type="curve"/>
      <point x="258" y="152" type="line" smooth="yes"/>
      <point x="258" y="-169"/>
      <point x="46" y="-234"/>
      <point x="38" y="-234" type="curve"/>
      <point x="30" y="-196" type="line"/>
      <point x="38" y="-196"/>
      <point x="224" y="-137"/>
      <point x="224" y="152" type="curve"/>
      <point x="224" y="378" type="line" smooth="yes"/>
      <point x="224" y="491"/>
      <point x="237" y="599"/>
      <point x="358" y="704" type="curve"/>
      <point x="237" y="809"/>
      <point x="224" y="917"/>
      <point x="224" y="1030" type="curve"/>
      <point x="224" y="1256" type="line" smooth="yes"/>
      <point x="224" y="1544"/>
      <point x="38" y="1602"/>
    </contour>
  </outline>
</glyph>
<glyph name="asciitilde" format="1">
  <advance width="532"/>
  <unicode hex="007E"/>
  <outline>
    <contour>
      <point x="536" y="644" type="curve"/>
      <point x="556" y="614" type="line"/>
      <point x="508" y="571"/>
      <point x="461" y="556"/>
      <point x="416" y="556" type="curve"/>
      <point x="312" y="556"/>
      <point x="214" y="634"/>
      <point x="126" y="634" type="curve"/>
      <point x="86" y="634"/>
      <point x="43" y="619"/>
      <point x="-2" y="574" type="curve"/>
      <point x="-24" y="608" type="line"/>
      <point x="29" y="659"/>
      <point x="79" y="674"/>
      <point x="130" y="674" type="curve"/>
      <point x="230" y="674"/>
      <point x="320" y="598"/>
      <point x="408" y="594" type="curve"/>
      <point x="451" y="591"/>
      <point x="493" y="604"/>
    </contour>
  </outline>
</glyph>
<glyph name="exclamdown" format="1">
  <advance width="232"/>
  <unicode hex="00A1"/>
  <outline>
    <contour>
      <point x="130" y="1176" type="line"/>
      <point x="146" y="36" type="line"/>
      <point x="146" y="12"/>
      <point x="136" y="0"/>
      <point x="116" y="0" type="curve"/>
      <point x="100" y="0"/>
      <point x="82" y="15"/>
      <point x="82" y="36" type="curve"/>
      <point x="100" y="1176" type="line"/>
    </contour>
    <contour>
      <point x="148" y="1382" type="curve"/>
      <point x="148" y="1363"/>
      <point x="132" y="1348"/>
      <point x="116" y="1348" type="curve"/>
      <point x="97" y="1348"/>
      <point x="80" y="1363"/>
      <point x="80" y="1382" type="curve"/>
      <point x="80" y="1403"/>
      <point x="97" y="1416"/>
      <point x="116" y="1416" type="curve"/>
      <point x="132" y="1416"/>
      <point x="148" y="1403"/>
    </contour>
  </outline>
</glyph>
<glyph name="cent" format="1">
  <advance width="754"/>
  <unicode hex="00A2"/>
  <outline>
    <contour>
      <point x="430" y="-226" type="line"/>
      <point x="396" y="-226" type="line"/>
      <point x="396" y="1242" type="line"/>
      <point x="430" y="1242" type="line"/>
    </contour>
    <component base="c"/>
  </outline>
</glyph>
<glyph name="sterling" format="1">
  <advance width="848"/>
  <unicode hex="00A3"/>
  <outline>
    <contour>
      <point x="66" y="38" type="line"/>
      <point x="272" y="38" type="line"/>
      <point x="458" y="38"/>
      <point x="594" y="130"/>
      <point x="594" y="322" type="curve"/>
      <point x="592" y="422"/>
      <point x="542" y="530"/>
      <point x="452" y="632" type="curve"/>
      <point x="348" y="750" type="line"/>
      <point x="66" y="750" type="line"/>
      <point x="66" y="792" type="line"/>
      <point x="310" y="792" type="line"/>
      <point x="288" y="816" type="line" smooth="yes"/>
      <point x="194" y="924"/>
      <point x="124" y="1030"/>
      <point x="126" y="1142" type="curve"/>
      <point x="134" y="1294"/>
      <point x="240" y="1394"/>
      <point x="392" y="1410" type="curve"/>
      <point x="494" y="1421"/>
      <point x="615" y="1390"/>
      <point x="716" y="1334" type="curve"/>
      <point x="704" y="1300" type="line"/>
      <point x="619" y="1351"/>
      <point x="515" y="1383"/>
      <point x="406" y="1378" type="curve"/>
      <point x="264" y="1368"/>
      <point x="166" y="1268"/>
      <point x="164" y="1140" type="curve"/>
      <point x="164" y="1022"/>
      <point x="246" y="924"/>
      <point x="320" y="840" type="curve"/>
      <point x="362" y="792" type="line"/>
      <point x="782" y="792" type="line"/>
      <point x="782" y="750" type="line"/>
      <point x="400" y="750" type="line"/>
      <point x="482" y="658" type="line" smooth="yes"/>
      <point x="578" y="552"/>
      <point x="634" y="438"/>
      <point x="636" y="326" type="curve"/>
      <point x="642" y="192"/>
      <point x="572" y="90"/>
      <point x="448" y="38" type="curve"/>
      <point x="782" y="38" type="line"/>
      <point x="782" y="0" type="line"/>
      <point x="66" y="0" type="line"/>
    </contour>
  </outline>
</glyph>
<glyph name="currency" format="1">
  <advance width="886"/>
  <unicode hex="00A4"/>
  <outline>
    <contour>
      <point x="820" y="918" type="line"/>
      <point x="658" y="756" type="line"/>
      <point x="703" y="705"/>
      <point x="730" y="638"/>
      <point x="730" y="566" type="curve"/>
      <point x="730" y="491"/>
      <point x="703" y="425"/>
      <point x="658" y="372" type="curve"/>
      <point x="820" y="212" type="line"/>
      <point x="794" y="184" type="line"/>
      <point x="630" y="346" type="line"/>
      <point x="579" y="303"/>
      <point x="514" y="274"/>
      <point x="442" y="274" type="curve"/>
      <point x="367" y="274"/>
      <point x="301" y="303"/>
      <point x="248" y="346" type="curve"/>
      <point x="88" y="184" type="line"/>
      <point x="62" y="212" type="line"/>
      <point x="222" y="372" type="line"/>
      <point x="179" y="425"/>
      <point x="152" y="491"/>
      <point x="152" y="566" type="curve"/>
      <point x="152" y="638"/>
      <point x="179" y="705"/>
      <point x="222" y="756" type="curve"/>
      <point x="62" y="918" type="line"/>
      <point x="88" y="944" type="line"/>
      <point x="248" y="784" type="line"/>
      <point x="300" y="832"/>
      <point x="365" y="856"/>
      <point x="442" y="856" type="curve"/>
      <point x="514" y="856"/>
      <point x="583" y="829"/>
      <point x="634" y="784" type="curve"/>
      <point x="794" y="944" type="line"/>
    </contour>
    <contour>
      <point x="442" y="314" type="curve"/>
      <point x="577" y="314"/>
      <point x="690" y="427"/>
      <point x="690" y="566" type="curve"/>
      <point x="690" y="701"/>
      <point x="577" y="814"/>
      <point x="442" y="814" type="curve"/>
      <point x="305" y="814"/>
      <point x="190" y="701"/>
      <point x="190" y="566" type="curve"/>
      <point x="190" y="427"/>
      <point x="305" y="314"/>
    </contour>
  </outline>
</glyph>
<glyph name="yen" format="1">
  <advance width="1028"/>
  <unicode hex="00A5"/>
  <outline>
    <contour>
      <point x="494" y="434" type="line"/>
      <point x="194" y="434" type="line"/>
      <point x="194" y="470" type="line"/>
      <point x="494" y="470" type="line"/>
      <point x="494" y="682" type="line"/>
      <point x="42" y="1396" type="line"/>
      <point x="88" y="1396" type="line"/>
      <point x="512" y="722" type="line"/>
      <point x="938" y="1396" type="line"/>
      <point x="984" y="1396" type="line"/>
      <point x="528" y="682" type="line"/>
      <point x="528" y="470" type="line"/>
      <point x="832" y="470" type="line"/>
      <point x="832" y="434" type="line"/>
      <point x="528" y="434" type="line"/>
      <point x="528" y="262" type="line"/>
      <point x="832" y="262" type="line"/>
      <point x="832" y="222" type="line"/>
      <point x="528" y="222" type="line"/>
      <point x="528" y="0" type="line"/>
      <point x="494" y="0" type="line"/>
      <point x="494" y="222" type="line"/>
      <point x="194" y="222" type="line"/>
      <point x="194" y="262" type="line"/>
      <point x="494" y="262" type="line"/>
    </contour>
  </outline>
</glyph>
<glyph name="dieresis" format="1">
  <advance width="532"/>
  <unicode hex="00A8"/>
  <outline>
    <contour>
      <point x="108" y="1448" type="curve"/>
      <point x="129" y="1448"/>
      <point x="142" y="1433"/>
      <point x="142" y="1412" type="curve"/>
      <point x="142" y="1393"/>
      <point x="129" y="1380"/>
      <point x="108" y="1380" type="curve"/>
      <point x="89" y="1380"/>
      <point x="74" y="1393"/>
      <point x="74" y="1412" type="curve"/>
      <point x="74" y="1433"/>
      <point x="89" y="1448"/>
    </contour>
    <contour>
      <point x="424" y="1448" type="curve"/>
      <point x="443" y="1448"/>
      <point x="458" y="1433"/>
      <point x="458" y="1412" type="curve"/>
      <point x="458" y="1393"/>
      <point x="443" y="1380"/>
      <point x="424" y="1380" type="curve"/>
      <point x="405" y="1380"/>
      <point x="392" y="1393"/>
      <point x="392" y="1412" type="curve"/>
      <point x="392" y="1433"/>
      <point x="405" y="1448"/>
    </contour>
  </outline>
</glyph>
<glyph name="copyright" format="1">
  <advance width="1386"/>
  <unicode hex="00A9"/>
  <outline>
    <contour>
      <point x="1322" y="638" type="curve"/>
      <point x="1322" y="382" type="line"/>
      <point x="1322" y="41"/>
      <point x="1058" y="-136"/>
      <point x="690" y="-136" type="curve"/>
      <point x="325" y="-136"/>
      <point x="60" y="41"/>
      <point x="60" y="382" type="curve"/>
      <point x="60" y="638" type="line" smooth="yes"/>
      <point x="60" y="980"/>
      <point x="325" y="1158"/>
      <point x="690" y="1158" type="curve"/>
      <point x="1058" y="1158"/>
      <point x="1322" y="980"/>
    </contour>
    <contour>
      <point x="1288" y="388" type="curve"/>
      <point x="1288" y="632" type="line"/>
      <point x="1288" y="956"/>
      <point x="1037" y="1122"/>
      <point x="690" y="1122" type="curve"/>
      <point x="343" y="1122"/>
      <point x="92" y="956"/>
      <point x="92" y="632" type="curve"/>
      <point x="92" y="388" type="line" smooth="yes"/>
      <point x="92" y="65"/>
      <point x="343" y="-104"/>
      <point x="690" y="-104" type="curve"/>
      <point x="1037" y="-104"/>
      <point x="1288" y="65"/>
    </contour>
    <contour>
      <point x="1000" y="840" type="curve"/>
      <point x="984" y="808" type="line"/>
      <point x="892" y="852"/>
      <point x="804" y="870"/>
      <point x="724" y="870" type="curve"/>
      <point x="601" y="870"/>
      <point x="512" y="827"/>
      <point x="462" y="776" type="curve"/>
      <point x="413" y="726"/>
      <point x="372" y="633"/>
      <point x="372" y="508" type="curve"/>
      <point x="372" y="348"/>
      <point x="428" y="250"/>
      <point x="512" y="198" type="curve"/>
      <point x="575" y="159"/>
      <point x="663" y="150"/>
      <point x="740" y="150" type="curve"/>
      <point x="815" y="150"/>
      <point x="923" y="171"/>
      <point x="1038" y="218" type="curve"/>
      <point x="1050" y="180" type="line"/>
      <point x="938" y="137"/>
      <point x="830" y="116"/>
      <point x="726" y="116" type="curve"/>
      <point x="683" y="116"/>
      <point x="589" y="112"/>
      <point x="492" y="164" type="curve"/>
      <point x="394" y="216"/>
      <point x="330" y="330"/>
      <point x="330" y="498" type="curve"/>
      <point x="330" y="658"/>
      <point x="363" y="768"/>
      <point x="504" y="856" type="curve"/>
      <point x="561" y="892"/>
      <point x="633" y="906"/>
      <point x="716" y="906" type="curve"/>
      <point x="825" y="906"/>
      <point x="917" y="885"/>
    </contour>
  </outline>
</glyph>
<glyph name="ordfeminine" format="1">
  <advance width="650"/>
  <unicode hex="00AA"/>
  <outline>
    <contour>
      <point x="580" y="778" type="curve"/>
      <point x="487" y="767"/>
      <point x="423" y="761"/>
      <point x="380" y="756" type="curve"/>
      <point x="81" y="751"/>
      <point x="44" y="906"/>
      <point x="44" y="1030" type="curve"/>
      <point x="44" y="1128"/>
      <point x="96" y="1256"/>
      <point x="240" y="1256" type="curve"/>
      <point x="331" y="1256"/>
      <point x="432" y="1216"/>
      <point x="544" y="1136" type="curve"/>
      <point x="544" y="1219"/>
      <point x="524" y="1279"/>
      <point x="484" y="1316" type="curve"/>
      <point x="436" y="1361"/>
      <point x="358" y="1379"/>
      <point x="246" y="1382" type="curve"/>
      <point x="252" y="1414" type="line"/>
      <point x="377" y="1414"/>
      <point x="467" y="1389"/>
      <point x="512" y="1338" type="curve"/>
      <point x="557" y="1290"/>
      <point x="580" y="1213"/>
      <point x="580" y="1106" type="curve"/>
      <point x="580" y="1108"/>
      <point x="580" y="780"/>
    </contour>
    <contour>
      <point x="542" y="808" type="curve"/>
      <point x="542" y="1094" type="line"/>
      <point x="427" y="1179"/>
      <point x="327" y="1224"/>
      <point x="242" y="1224" type="curve"/>
      <point x="113" y="1224"/>
      <point x="82" y="1097"/>
      <point x="82" y="1024" type="curve"/>
      <point x="82" y="936"/>
      <point x="99" y="873"/>
      <point x="174" y="828" type="curve"/>
      <point x="255" y="779"/>
      <point x="411" y="792"/>
    </contour>
  </outline>
</glyph>
<glyph name="registered" format="1">
  <advance width="1386"/>
  <unicode hex="00AE"/>
  <outline>
    <contour>
      <point x="1322" y="638" type="curve"/>
      <point x="1322" y="382" type="line"/>
      <point x="1322" y="41"/>
      <point x="1058" y="-132"/>
      <point x="690" y="-136" type="curve"/>
      <point x="325" y="-132"/>
      <point x="60" y="41"/>
      <point x="60" y="382" type="curve"/>
      <point x="60" y="638" type="line" smooth="yes"/>
      <point x="60" y="980"/>
      <point x="325" y="1154"/>
      <point x="690" y="1158" type="curve"/>
      <point x="1058" y="1154"/>
      <point x="1322" y="980"/>
    </contour>
    <contour>
      <point x="1288" y="388" type="curve"/>
      <point x="1288" y="632" type="line"/>
      <point x="1288" y="956"/>
      <point x="1037" y="1122"/>
      <point x="690" y="1122" type="curve"/>
      <point x="343" y="1122"/>
      <point x="92" y="956"/>
      <point x="92" y="632" type="curve"/>
      <point x="92" y="388" type="line" smooth="yes"/>
      <point x="92" y="65"/>
      <point x="343" y="-100"/>
      <point x="690" y="-104" type="curve"/>
      <point x="1037" y="-100"/>
      <point x="1288" y="65"/>
    </contour>
    <contour>
      <point x="372" y="884" type="line"/>
      <point x="842" y="884" type="line"/>
      <point x="968" y="884"/>
      <point x="1052" y="836"/>
      <point x="1052" y="656" type="curve"/>
      <point x="1052" y="493"/>
      <point x="989" y="438"/>
      <point x="880" y="430" type="curve"/>
      <point x="1044" y="118" type="line"/>
      <point x="1004" y="118" type="line"/>
      <point x="838" y="424" type="line"/>
      <point x="412" y="424" type="line"/>
      <point x="412" y="118" type="line"/>
      <point x="372" y="118" type="line"/>
    </contour>
    <contour>
      <point x="412" y="464" type="line"/>
      <point x="858" y="464" type="line"/>
      <point x="978" y="464"/>
      <point x="1016" y="523"/>
      <point x="1016" y="654" type="curve"/>
      <point x="1013" y="787"/>
      <point x="973" y="844"/>
      <point x="858" y="844" type="curve"/>
      <point x="412" y="844" type="line"/>
    </contour>
  </outline>
</glyph>
<glyph name="degree" format="1">
  <advance width="694"/>
  <unicode hex="00B0"/>
  <outline>
    <contour>
      <point x="636" y="1126" type="curve"/>
      <point x="636" y="966"/>
      <point x="506" y="836"/>
      <point x="346" y="836" type="curve"/>
      <point x="185" y="836"/>
      <point x="54" y="966"/>
      <point x="54" y="1126" type="curve"/>
      <point x="54" y="1286"/>
      <point x="185" y="1416"/>
      <point x="346" y="1416" type="curve"/>
      <point x="506" y="1416"/>
      <point x="636" y="1286"/>
    </contour>
    <contour>
      <point x="346" y="1378" type="curve"/>
      <point x="207" y="1378"/>
      <point x="94" y="1265"/>
      <point x="94" y="1126" type="curve"/>
      <point x="94" y="990"/>
      <point x="207" y="876"/>
      <point x="346" y="876" type="curve"/>
      <point x="484" y="876"/>
      <point x="596" y="990"/>
      <point x="596" y="1126" type="curve"/>
      <point x="596" y="1265"/>
      <point x="484" y="1378"/>
    </contour>
  </outline>
</glyph>
<glyph name="plusminus" format="1">
  <advance width="760"/>
  <unicode hex="00B1"/>
  <outline>
    <contour>
      <point x="360" y="792" type="line"/>
      <point x="60" y="792" type="line"/>
      <point x="60" y="828" type="line"/>
      <point x="360" y="828" type="line"/>
      <point x="360" y="1126" type="line"/>
      <point x="398" y="1126" type="line"/>
      <point x="398" y="828" type="line"/>
      <point x="698" y="828" type="line"/>
      <point x="698" y="792" type="line"/>
      <point x="398" y="792" type="line"/>
      <point x="398" y="492" type="line"/>
      <point x="696" y="492" type="line"/>
      <point x="696" y="452" type="line"/>
      <point x="58" y="452" type="line"/>
      <point x="58" y="492" type="line"/>
      <point x="360" y="492" type="line"/>
    </contour>
  </outline>
</glyph>
<glyph name="acute" format="1">
  <advance width="532"/>
  <unicode hex="00B4"/>
  <outline>
    <contour>
      <point x="398" y="1372" type="curve"/>
      <point x="286" y="1172" type="line"/>
      <point x="244" y="1172" type="line"/>
      <point x="348" y="1402" type="line" smooth="yes"/>
      <point x="356" y="1419"/>
      <point x="374" y="1428"/>
      <point x="390" y="1420" type="curve"/>
      <point x="409" y="1409"/>
      <point x="407" y="1389"/>
    </contour>
  </outline>
</glyph>
<glyph name="mu" format="1">
  <advance width="920"/>
  <unicode hex="00B5"/>
  <outline>
    <contour>
      <point x="816" y="1016" type="line"/>
      <point x="816" y="140" type="line"/>
      <point x="816" y="83"/>
      <point x="823" y="53"/>
      <point x="860" y="20" type="curve"/>
      <point x="838" y="-4" type="line"/>
      <point x="841" y="-4"/>
      <point x="776" y="35"/>
      <point x="778" y="124" type="curve"/>
      <point x="734" y="39"/>
      <point x="618" y="-28"/>
      <point x="476" y="-28" type="curve"/>
      <point x="317" y="-28"/>
      <point x="184" y="24"/>
      <point x="114" y="160" type="curve"/>
      <point x="114" y="-420" type="line"/>
      <point x="78" y="-410" type="line"/>
      <point x="78" y="998" type="line"/>
      <point x="114" y="998" type="line"/>
      <point x="114" y="303" type="line" smooth="yes"/>
      <point x="114" y="176"/>
      <point x="219" y="4"/>
      <point x="470" y="4" type="curve"/>
      <point x="636" y="4"/>
      <point x="778" y="96"/>
      <point x="778" y="262" type="curve"/>
      <point x="778" y="1010" type="line"/>
    </contour>
  </outline>
</glyph>
<glyph name="paragraph" format="1">
  <advance width="1206"/>
  <unicode hex="00B6"/>
  <outline>
    <contour>
      <point x="884" y="564" type="line"/>
      <point x="438" y="564" type="line"/>
      <point x="171" y="564"/>
      <point x="58" y="712"/>
      <point x="58" y="986" type="curve"/>
      <point x="58" y="1247"/>
      <point x="173" y="1400"/>
      <point x="424" y="1400" type="curve"/>
      <point x="1120" y="1400" type="line"/>
      <point x="1120" y="2" type="line"/>
      <point x="1080" y="2" type="line"/>
      <point x="1080" y="1360" type="line"/>
      <point x="922" y="1360" type="line"/>
      <point x="922" y="2" type="line"/>
      <point x="884" y="2" type="line"/>
    </contour>
    <contour>
      <point x="884" y="1360" type="line"/>
      <point x="422" y="1360" type="line"/>
      <point x="193" y="1360"/>
      <point x="94" y="1225"/>
      <point x="94" y="986" type="curve"/>
      <point x="94" y="740"/>
      <point x="197" y="600"/>
      <point x="442" y="600" type="curve"/>
      <point x="884" y="600" type="line"/>
    </contour>
  </outline>
</glyph>
<glyph name="cedilla" format="1">
  <advance width="532"/>
  <unicode hex="00B8"/>
  <outline>
    <contour>
      <point x="258" y="0" type="line"/>
      <point x="300" y="0" type="line"/>
      <point x="246" y="-92" type="line"/>
      <point x="291" y="-92"/>
      <point x="298" y="-92"/>
      <point x="308" y="-92" type="curve"/>
      <point x="428" y="-92"/>
      <point x="496" y="-172"/>
      <point x="496" y="-272" type="curve"/>
      <point x="496" y="-380"/>
      <point x="420" y="-445"/>
      <point x="316" y="-452" type="curve"/>
      <point x="226" y="-452"/>
      <point x="183" y="-442"/>
      <point x="114" y="-426" type="curve"/>
      <point x="118" y="-410"/>
      <point x="122" y="-409"/>
      <point x="126" y="-392" type="curve"/>
      <point x="124" y="-392"/>
      <point x="215" y="-420"/>
      <point x="314" y="-414" type="curve"/>
      <point x="348" y="-410"/>
      <point x="458" y="-398"/>
      <point x="458" y="-272" type="curve"/>
      <point x="458" y="-192"/>
      <point x="399" y="-134"/>
      <point x="314" y="-134" type="curve"/>
      <point x="282" y="-134"/>
      <point x="243" y="-134"/>
      <point x="200" y="-134" type="curve"/>
      <point x="200" y="-92" type="line"/>
    </contour>
  </outline>
</glyph>
<glyph name="guillemotright" format="1">
  <advance width="962"/>
  <unicode hex="00BB"/>
  <outline>
    <contour>
      <point x="64" y="192" type="line"/>
      <point x="408" y="532" type="line"/>
      <point x="62" y="880" type="line"/>
      <point x="92" y="906" type="line"/>
      <point x="466" y="532" type="line"/>
      <point x="92" y="158" type="line"/>
    </contour>
    <contour>
      <point x="502" y="192" type="line"/>
      <point x="846" y="532" type="line"/>
      <point x="500" y="880" type="line"/>
      <point x="532" y="906" type="line"/>
      <point x="904" y="532" type="line"/>
      <point x="532" y="158" type="line"/>
    </contour>
  </outline>
</glyph>
<glyph name="questiondown" format="1">
  <advance width="822"/>
  <unicode hex="00BF"/>
  <outline>
    <contour>
      <point x="722" y="324" type="curve"/>
      <point x="762" y="324" type="line"/>
      <point x="761" y="80"/>
      <point x="587" y="-32"/>
      <point x="412" y="-30" type="curve"/>
      <point x="234" y="-28"/>
      <point x="56" y="92"/>
      <point x="56" y="312" type="curve"/>
      <point x="56" y="458"/>
      <point x="117" y="547"/>
      <point x="202" y="638" type="curve"/>
      <point x="364" y="811"/>
      <point x="412" y="839"/>
      <point x="412" y="998" type="curve"/>
      <point x="412" y="1146" type="line"/>
      <point x="450" y="1146" type="line"/>
      <point x="450" y="1006" type="line" smooth="yes"/>
      <point x="450" y="802"/>
      <point x="362" y="766"/>
      <point x="216" y="606" type="curve"/>
      <point x="122" y="504"/>
      <point x="92" y="420"/>
      <point x="92" y="312" type="curve"/>
      <point x="92" y="150"/>
      <point x="218" y="6"/>
      <point x="408" y="6" type="curve"/>
      <point x="563" y="6"/>
      <point x="722" y="107"/>
    </contour>
    <contour>
      <point x="430" y="1390" type="curve"/>
      <point x="451" y="1390"/>
      <point x="464" y="1379"/>
      <point x="464" y="1358" type="curve"/>
      <point x="464" y="1339"/>
      <point x="451" y="1324"/>
      <point x="430" y="1324" type="curve"/>
      <point x="411" y="1324"/>
      <point x="396" y="1339"/>
      <point x="396" y="1358" type="curve"/>
      <point x="396" y="1379"/>
      <point x="411" y="1390"/>
    </contour>
  </outline>
</glyph>
<glyph name="AE" format="1">
  <advance width="1484"/>
  <unicode hex="00C6"/>
  <outline>
    <contour>
      <point x="1428" y="0" type="line"/>
      <point x="764" y="0" type="line"/>
      <point x="764" y="558" type="line"/>
      <point x="298" y="558" type="line"/>
      <point x="82" y="0" type="line"/>
      <point x="38" y="0" type="line"/>
      <point x="580" y="1396" type="line"/>
      <point x="1428" y="1396" type="line"/>
      <point x="1428" y="1356" type="line"/>
      <point x="804" y="1356" type="line"/>
      <point x="804" y="826" type="line"/>
      <point x="1260" y="826" type="line"/>
      <point x="1244" y="786" type="line"/>
      <point x="804" y="786" type="line"/>
      <point x="804" y="40" type="line"/>
      <point x="1428" y="40" type="line"/>
    </contour>
    <contour>
      <point x="604" y="1356" type="line"/>
      <point x="312" y="598" type="line"/>
      <point x="764" y="598" type="line"/>
      <point x="764" y="1356" type="line"/>
    </contour>
  </outline>
</glyph>
<glyph name="Eth" format="1">
  <advance width="988"/>
  <unicode hex="00D0"/>
  <outline>
    <contour>
      <point x="562" y="786" type="line"/>
      <point x="100" y="786" type="line"/>
      <point x="100" y="822" type="line"/>
      <point x="574" y="822" type="line"/>
    </contour>
    <component base="D"/>
  </outline>
</glyph>
<glyph name="multiply" format="1">
  <advance width="644"/>
  <unicode hex="00D7"/>
  <outline>
    <contour>
      <point x="88" y="968" type="line"/>
      <point x="322" y="686" type="line"/>
      <point x="552" y="966" type="line"/>
      <point x="580" y="940" type="line"/>
      <point x="348" y="660" type="line"/>
      <point x="576" y="386" type="line"/>
      <point x="542" y="358" type="line"/>
      <point x="320" y="630" type="line"/>
      <point x="94" y="358" type="line"/>
      <point x="66" y="380" type="line"/>
      <point x="296" y="658" type="line"/>
      <point x="62" y="944" type="line"/>
    </contour>
  </outline>
</glyph>
<glyph name="Oslash" format="1">
  <advance width="972"/>
  <unicode hex="00D8"/>
  <outline>
    <contour>
      <point x="248" y="-226" type="line"/>
      <point x="208" y="-226" type="line"/>
      <point x="852" y="1630" type="line"/>
      <point x="894" y="1630" type="line"/>
    </contour>
    <component base="O"/>
  </outline>
</glyph>
<glyph name="Thorn" format="1">
  <advance width="794"/>
  <unicode hex="00DE"/>
  <outline>
    <contour>
      <point x="736" y="870" type="curve"/>
      <point x="736" y="578" type="line"/>
      <point x="736" y="383"/>
      <point x="647" y="281"/>
      <point x="514" y="236" type="curve"/>
      <point x="402" y="201"/>
      <point x="248" y="203"/>
      <point x="120" y="238" type="curve"/>
      <point x="120" y="0" type="line"/>
      <point x="82" y="0" type="line"/>
      <point x="82" y="1396" type="line"/>
      <point x="120" y="1396" type="line"/>
      <point x="120" y="1194" type="line"/>
      <point x="229" y="1242"/>
      <point x="355" y="1261"/>
      <point x="462" y="1240" type="curve"/>
      <point x="642" y="1202"/>
      <point x="736" y="1044"/>
    </contour>
    <contour>
      <point x="448" y="1204" type="curve"/>
      <point x="351" y="1223"/>
      <point x="231" y="1207"/>
      <point x="120" y="1148" type="curve"/>
      <point x="120" y="274" type="line"/>
      <point x="171" y="263"/>
      <point x="355" y="225"/>
      <point x="508" y="274" type="curve"/>
      <point x="652" y="322"/>
      <point x="698" y="430"/>
      <point x="698" y="582" type="curve"/>
      <point x="698" y="858" type="line" smooth="yes"/>
      <point x="698" y="1026"/>
      <point x="622" y="1164"/>
    </contour>
  </outline>
</glyph>
<glyph name="germandbls" format="1">
  <advance width="924"/>
  <unicode hex="00DF"/>
  <outline>
    <contour>
      <point x="118" y="1078" type="curve"/>
      <point x="118" y="0" type="line"/>
      <point x="105" y="0"/>
      <point x="91" y="0"/>
      <point x="78" y="0" type="curve"/>
      <point x="78" y="1078" type="line" smooth="yes"/>
      <point x="78" y="1326"/>
      <point x="208" y="1396"/>
      <point x="330" y="1396" type="curve"/>
      <point x="476" y="1396"/>
      <point x="568" y="1273"/>
      <point x="568" y="1166" type="curve"/>
      <point x="568" y="1081"/>
      <point x="524" y="997"/>
      <point x="428" y="984" type="curve"/>
      <point x="419" y="984"/>
      <point x="413" y="984"/>
      <point x="406" y="984" type="curve"/>
      <point x="387" y="949"/>
      <point x="381" y="915"/>
      <point x="384" y="886" type="curve"/>
      <point x="392" y="752"/>
      <point x="565" y="673"/>
      <point x="728" y="548" type="curve"/>
      <point x="823" y="475"/>
      <point x="874" y="390"/>
      <point x="874" y="270" type="curve"/>
      <point x="874" y="118"/>
      <point x="764" y="-22"/>
      <point x="564" y="-22" type="curve"/>
      <point x="363" y="-22"/>
      <point x="265" y="77"/>
      <point x="266" y="72" type="curve"/>
      <point x="286" y="100" type="line"/>
      <point x="285" y="104"/>
      <point x="386" y="16"/>
      <point x="550" y="16" type="curve"/>
      <point x="784" y="16"/>
      <point x="834" y="174"/>
      <point x="834" y="274" type="curve"/>
      <point x="834" y="440"/>
      <point x="723" y="509"/>
      <point x="608" y="588" type="curve"/>
      <point x="480" y="678"/>
      <point x="348" y="759"/>
      <point x="348" y="892" type="curve"/>
      <point x="348" y="927"/>
      <point x="357" y="967"/>
      <point x="378" y="1010" type="curve"/>
      <point x="487" y="1010"/>
      <point x="535" y="1084"/>
      <point x="532" y="1164" type="curve"/>
      <point x="528" y="1255"/>
      <point x="459" y="1358"/>
      <point x="332" y="1358" type="curve"/>
      <point x="189" y="1358"/>
      <point x="118" y="1266"/>
    </contour>
  </outline>
</glyph>
<glyph name="ae" format="1">
  <advance width="1568"/>
  <unicode hex="00E6"/>
  <outline>
    <contour>
      <point x="828" y="458" type="line"/>
      <point x="828" y="264" type="line"/>
      <point x="828" y="82"/>
      <point x="958" y="14"/>
      <point x="1134" y="14" type="curve"/>
      <point x="1243" y="14"/>
      <point x="1327" y="40"/>
      <point x="1442" y="104" type="curve"/>
      <point x="1460" y="70" type="line"/>
      <point x="1359" y="9"/>
      <point x="1250" y="-24"/>
      <point x="1138" y="-24" type="curve"/>
      <point x="975" y="-24"/>
      <point x="866" y="27"/>
      <point x="818" y="128" type="curve"/>
      <point x="818" y="0" type="line"/>
      <point x="821" y="0"/>
      <point x="535" y="-20"/>
      <point x="458" y="-20" type="curve"/>
      <point x="170" y="-20"/>
      <point x="50" y="100"/>
      <point x="50" y="336" type="curve"/>
      <point x="50" y="502" type="line" smooth="yes"/>
      <point x="50" y="630"/>
      <point x="103" y="806"/>
      <point x="372" y="806" type="curve"/>
      <point x="519" y="806"/>
      <point x="660" y="749"/>
      <point x="780" y="690" type="curve"/>
      <point x="780" y="852"/>
      <point x="688" y="976"/>
      <point x="400" y="976" type="curve"/>
      <point x="400" y="989"/>
      <point x="402" y="1003"/>
      <point x="402" y="1014" type="curve"/>
      <point x="633" y="1014"/>
      <point x="764" y="930"/>
      <point x="804" y="782" type="curve"/>
      <point x="844" y="931"/>
      <point x="979" y="1016"/>
      <point x="1158" y="1016" type="curve"/>
      <point x="1378" y="1016"/>
      <point x="1510" y="897"/>
      <point x="1510" y="682" type="curve"/>
      <point x="1510" y="492" type="line"/>
    </contour>
    <contour>
      <point x="780" y="36" type="curve"/>
      <point x="780" y="644" type="line"/>
      <point x="637" y="717"/>
      <point x="517" y="766"/>
      <point x="370" y="766" type="curve"/>
      <point x="164" y="766"/>
      <point x="86" y="646"/>
      <point x="86" y="498" type="curve"/>
      <point x="86" y="324" type="line" smooth="yes"/>
      <point x="86" y="179"/>
      <point x="146" y="11"/>
      <point x="458" y="16" type="curve"/>
      <point x="546" y="16"/>
      <point x="785" y="36"/>
    </contour>
    <contour>
      <point x="1470" y="528" type="line"/>
      <point x="1470" y="684" type="line"/>
      <point x="1470" y="924"/>
      <point x="1293" y="982"/>
      <point x="1152" y="982" type="curve"/>
      <point x="1017" y="982"/>
      <point x="828" y="925"/>
      <point x="828" y="664" type="curve"/>
      <point x="828" y="496" type="line"/>
    </contour>
  </outline>
</glyph>
<glyph name="eth" format="1">
  <advance width="836"/>
  <unicode hex="00F0"/>
  <outline>
    <contour>
      <point x="362" y="1372" type="curve"/>
      <point x="368" y="1398" type="line"/>
      <point x="500" y="1381"/>
      <point x="602" y="1330"/>
      <point x="675" y="1245" type="curve"/>
      <point x="748" y="1160"/>
      <point x="784" y="1058"/>
      <point x="784" y="938" type="curve"/>
      <point x="784" y="374" type="line" smooth="yes"/>
      <point x="784" y="121"/>
      <point x="649" y="-18"/>
      <point x="412" y="-18" type="curve"/>
      <point x="175" y="-18"/>
      <point x="46" y="131"/>
      <point x="46" y="374" type="curve"/>
      <point x="46" y="490" type="line" smooth="yes"/>
      <point x="46" y="735"/>
      <point x="175" y="866"/>
      <point x="396" y="866" type="curve"/>
      <point x="517" y="866"/>
      <point x="700" y="793"/>
      <point x="744" y="678" type="curve"/>
      <point x="744" y="938" type="line" smooth="yes"/>
      <point x="744" y="1261"/>
      <point x="491" y="1350"/>
    </contour>
    <contour>
      <point x="86" y="502" type="curve"/>
      <point x="86" y="364" type="line" smooth="yes"/>
      <point x="86" y="137"/>
      <point x="220" y="22"/>
      <point x="412" y="22" type="curve"/>
      <point x="630" y="22"/>
      <point x="744" y="149"/>
      <point x="744" y="364" type="curve"/>
      <point x="744" y="546" type="line"/>
      <point x="749" y="740"/>
      <point x="529" y="843"/>
      <point x="358" y="832" type="curve"/>
      <point x="185" y="821"/>
      <point x="86" y="705"/>
    </contour>
    <contour>
      <point x="716" y="1400" type="line"/>
      <point x="740" y="1378" type="line"/>
      <point x="394" y="1026" type="line"/>
      <point x="370" y="1048" type="line"/>
    </contour>
  </outline>
</glyph>
<glyph name="divide" format="1">
  <advance width="766"/>
  <unicode hex="00F7"/>
  <outline>
    <contour>
      <point x="698" y="744" type="line"/>
      <point x="60" y="744" type="line"/>
      <point x="60" y="786" type="line"/>
      <point x="698" y="786" type="line"/>
    </contour>
    <contour>
      <point x="380" y="1056" type="curve"/>
      <point x="401" y="1056"/>
      <point x="416" y="1041"/>
      <point x="416" y="1020" type="curve"/>
      <point x="416" y="1004"/>
      <point x="401" y="988"/>
      <point x="380" y="988" type="curve"/>
      <point x="364" y="988"/>
      <point x="348" y="1004"/>
      <point x="348" y="1020" type="curve"/>
      <point x="348" y="1041"/>
      <point x="364" y="1056"/>
    </contour>
    <contour>
      <point x="380" y="542" type="curve"/>
      <point x="401" y="542"/>
      <point x="416" y="529"/>
      <point x="416" y="508" type="curve"/>
      <point x="416" y="489"/>
      <point x="401" y="476"/>
      <point x="380" y="476" type="curve"/>
      <point x="364" y="476"/>
      <point x="348" y="489"/>
      <point x="348" y="508" type="curve"/>
      <point x="348" y="529"/>
      <point x="364" y="542"/>
    </contour>
  </outline>
</glyph>
<glyph name="oslash" format="1">
  <advance width="852"/>
  <unicode hex="00F8"/>
  <outline>
    <contour>
      <point x="646" y="1025" type="line"/>
      <point x="688" y="1025" type="line"/>
      <point x="210" y="-40" type="line"/>
      <point x="168" y="-40" type="line"/>
    </contour>
    <component base="o"/>
  </outline>
</glyph>
<glyph name="thorn" format="1">
  <advance width="886"/>
  <unicode hex="00FE"/>
  <outline>
    <contour>
      <point x="122" y="1396" type="line"/>
      <point x="122" y="798" type="line"/>
      <point x="191" y="945"/>
      <point x="316" y="1018"/>
      <point x="460" y="1018" type="curve"/>
      <point x="688" y="1018"/>
      <point x="838" y="853"/>
      <point x="838" y="618" type="curve"/>
      <point x="838" y="410"/>
      <point x="684" y="232"/>
      <point x="462" y="232" type="curve"/>
      <point x="310" y="232"/>
      <point x="181" y="311"/>
      <point x="122" y="468" type="curve"/>
      <point x="122" y="0" type="line"/>
      <point x="82" y="0" type="line"/>
      <point x="82" y="1396" type="line"/>
    </contour>
    <contour>
      <point x="464" y="986" type="curve"/>
      <point x="276" y="986"/>
      <point x="126" y="834"/>
      <point x="126" y="638" type="curve"/>
      <point x="126" y="453"/>
      <point x="232" y="266"/>
      <point x="460" y="266" type="curve"/>
      <point x="659" y="266"/>
      <point x="802" y="425"/>
      <point x="802" y="630" type="curve"/>
      <point x="802" y="818"/>
      <point x="668" y="986"/>
    </contour>
  </outline>
</glyph>
<glyph name="dcroat" format="1">
  <advance width="910"/>
  <unicode hex="0111"/>
  <outline>
    <contour>
      <point x="918" y="1230" type="line"/>
      <point x="918" y="1190" type="line"/>
      <point x="446" y="1190" type="line"/>
      <point x="446" y="1230" type="line"/>
    </contour>
    <component base="d"/>
  </outline>
</glyph>
<glyph name="Hbar" format="1">
  <advance width="1026"/>
  <unicode hex="0126"/>
  <outline>
    <contour>
      <point x="1006" y="1036" type="line"/>
      <point x="1006" y="996" type="line"/>
      <point x="12" y="996" type="line"/>
      <point x="12" y="1036" type="line"/>
    </contour>
    <component base="Eta"/>
  </outline>
</glyph>
<glyph name="hbar" format="1">
  <advance width="936"/>
  <unicode hex="0127"/>
  <outline>
    <contour>
      <point x="518" y="1230" type="line"/>
      <point x="518" y="1190" type="line"/>
      <point x="48" y="1190" type="line"/>
      <point x="48" y="1230" type="line"/>
    </contour>
    <contour>
      <point x="174" y="1396" type="line"/>
      <point x="174" y="942" type="line"/>
      <point x="238" y="971"/>
      <point x="360" y="1011"/>
      <point x="464" y="1016" type="curve"/>
      <point x="638" y="1027"/>
      <point x="872" y="1003"/>
      <point x="872" y="690" type="curve"/>
      <point x="872" y="0" type="line"/>
      <point x="834" y="0" type="line"/>
      <point x="834" y="692" type="line" smooth="yes"/>
      <point x="834" y="919"/>
      <point x="706" y="998"/>
      <point x="490" y="986" type="curve"/>
      <point x="375" y="981"/>
      <point x="246" y="943"/>
      <point x="174" y="906" type="curve"/>
      <point x="174" y="0" type="line"/>
      <point x="134" y="0" type="line"/>
      <point x="134" y="1396" type="line"/>
    </contour>
  </outline>
</glyph>
<glyph name="IJ" format="1">
  <advance width="1116"/>
  <unicode hex="0132"/>
  <outline>
    <contour>
      <point x="830" y="1396" type="line"/>
      <point x="1038" y="1396" type="line"/>
      <point x="1038" y="370" type="line" smooth="yes"/>
      <point x="1038" y="115"/>
      <point x="868" y="-22"/>
      <point x="622" y="-22" type="curve"/>
      <point x="372" y="-22"/>
      <point x="202" y="110"/>
      <point x="202" y="370" type="curve"/>
      <point x="202" y="468" type="line"/>
      <point x="238" y="468" type="line"/>
      <point x="238" y="368" type="line" smooth="yes"/>
      <point x="238" y="128"/>
      <point x="411" y="14"/>
      <point x="622" y="14" type="curve"/>
      <point x="848" y="14"/>
      <point x="1000" y="133"/>
      <point x="1000" y="368" type="curve"/>
      <point x="1000" y="1354" type="line"/>
      <point x="830" y="1358" type="line"/>
    </contour>
    <contour>
      <point x="30" y="1396" type="line"/>
      <point x="238" y="1396" type="line"/>
      <point x="238" y="524" type="line"/>
      <point x="202" y="524" type="line"/>
      <point x="202" y="1352" type="line"/>
      <point x="30" y="1358" type="line"/>
    </contour>
  </outline>
</glyph>
<glyph name="ij" format="1">
  <advance width="918"/>
  <unicode hex="0133"/>
  <outline>
    <contour>
      <point x="114" y="1416" type="curve"/>
      <point x="133" y="1416"/>
      <point x="148" y="1403"/>
      <point x="148" y="1382" type="curve"/>
      <point x="148" y="1363"/>
      <point x="133" y="1348"/>
      <point x="114" y="1348" type="curve"/>
      <point x="95" y="1348"/>
      <point x="80" y="1363"/>
      <point x="80" y="1382" type="curve"/>
      <point x="80" y="1403"/>
      <point x="95" y="1416"/>
    </contour>
    <contour>
      <point x="846" y="1382" type="curve"/>
      <point x="846" y="1363"/>
      <point x="833" y="1348"/>
      <point x="812" y="1348" type="curve"/>
      <point x="793" y="1348"/>
      <point x="780" y="1363"/>
      <point x="780" y="1382" type="curve"/>
      <point x="780" y="1403"/>
      <point x="793" y="1414"/>
      <point x="812" y="1414" type="curve"/>
      <point x="833" y="1414"/>
      <point x="846" y="1403"/>
    </contour>
    <contour>
      <point x="796" y="338" type="curve"/>
      <point x="796" y="998" type="line"/>
      <point x="830" y="998" type="line"/>
      <point x="830" y="-134" type="line" smooth="yes"/>
      <point x="830" y="-302"/>
      <point x="772" y="-372"/>
      <point x="620" y="-424" type="curve"/>
      <point x="608" y="-390" type="line"/>
      <point x="740" y="-344"/>
      <point x="796" y="-284"/>
      <point x="796" y="-132" type="curve"/>
      <point x="796" y="198" type="line"/>
      <point x="748" y="65"/>
      <point x="618" y="-8"/>
      <point x="482" y="-16" type="curve"/>
      <point x="334" y="-24"/>
      <point x="92" y="1"/>
      <point x="92" y="314" type="curve"/>
      <point x="92" y="998" type="line"/>
      <point x="132" y="998" type="line"/>
      <point x="132" y="312" type="line" smooth="yes"/>
      <point x="132" y="88"/>
      <point x="266" y="6"/>
      <point x="480" y="20" type="curve"/>
      <point x="672" y="34"/>
      <point x="796" y="177"/>
    </contour>
  </outline>
</glyph>
<glyph name="Lslash" format="1">
  <advance width="1008"/>
  <unicode hex="0141"/>
  <outline>
    <contour>
      <point x="972" y="0" type="line"/>
      <point x="250" y="0" type="line"/>
      <point x="250" y="772" type="line"/>
      <point x="50" y="682" type="line"/>
      <point x="34" y="716" type="line"/>
      <point x="250" y="812" type="line"/>
      <point x="250" y="1396" type="line"/>
      <point x="290" y="1396" type="line"/>
      <point x="290" y="830" type="line"/>
      <point x="614" y="976" type="line"/>
      <point x="630" y="944" type="line"/>
      <point x="290" y="790" type="line"/>
      <point x="290" y="40" type="line"/>
      <point x="972" y="40" type="line"/>
    </contour>
  </outline>
</glyph>
<glyph name="lslash" format="1">
  <advance width="666"/>
  <unicode hex="0142"/>
  <outline>
    <contour>
      <point x="28" y="712" type="line"/>
      <point x="320" y="844" type="line"/>
      <point x="320" y="1396" type="line"/>
      <point x="358" y="1396" type="line"/>
      <point x="358" y="860" type="line"/>
      <point x="608" y="974" type="line"/>
      <point x="624" y="942" type="line"/>
      <point x="358" y="820" type="line"/>
      <point x="358" y="0" type="line"/>
      <point x="320" y="0" type="line"/>
      <point x="320" y="806" type="line"/>
      <point x="42" y="680" type="line"/>
    </contour>
  </outline>
</glyph>
<glyph name="Eng" format="1">
  <advance width="1152"/>
  <unicode hex="014A"/>
  <outline>
    <contour>
      <point x="1066" y="1396" type="line"/>
      <point x="1066" y="-134" type="line"/>
      <point x="1066" y="-227"/>
      <point x="1045" y="-297"/>
      <point x="992" y="-348" type="curve"/>
      <point x="960" y="-380"/>
      <point x="913" y="-403"/>
      <point x="852" y="-424" type="curve"/>
      <point x="842" y="-390" type="line"/>
      <point x="903" y="-366"/>
      <point x="923" y="-355"/>
      <point x="966" y="-320" type="curve"/>
      <point x="1009" y="-283"/>
      <point x="1032" y="-223"/>
      <point x="1032" y="-132" type="curve"/>
      <point x="1032" y="2" type="line"/>
      <point x="122" y="1336" type="line"/>
      <point x="122" y="0" type="line"/>
      <point x="82" y="0" type="line"/>
      <point x="82" y="1396" type="line"/>
      <point x="120" y="1396" type="line"/>
      <point x="1032" y="66" type="line"/>
      <point x="1032" y="1396" type="line"/>
    </contour>
  </outline>
</glyph>
<glyph name="eng" format="1">
  <advance width="884"/>
  <unicode hex="014B"/>
  <outline>
    <contour>
      <point x="812" y="690" type="curve"/>
      <point x="812" y="-96" type="line"/>
      <point x="812" y="-195"/>
      <point x="791" y="-262"/>
      <point x="740" y="-310" type="curve"/>
      <point x="705" y="-345"/>
      <point x="659" y="-369"/>
      <point x="598" y="-390" type="curve"/>
      <point x="586" y="-354" type="line"/>
      <point x="647" y="-330"/>
      <point x="664" y="-321"/>
      <point x="712" y="-284" type="curve"/>
      <point x="755" y="-247"/>
      <point x="772" y="-184"/>
      <point x="772" y="-96" type="curve"/>
      <point x="772" y="692" type="line" smooth="yes"/>
      <point x="772" y="919"/>
      <point x="648" y="998"/>
      <point x="432" y="986" type="curve"/>
      <point x="312" y="981"/>
      <point x="189" y="943"/>
      <point x="114" y="906" type="curve"/>
      <point x="114" y="0" type="line"/>
      <point x="76" y="0" type="line"/>
      <point x="76" y="996" type="line"/>
      <point x="114" y="996" type="line"/>
      <point x="114" y="942" type="line"/>
      <point x="181" y="971"/>
      <point x="302" y="1011"/>
      <point x="406" y="1016" type="curve"/>
      <point x="579" y="1026"/>
      <point x="812" y="1003"/>
    </contour>
  </outline>
</glyph>
<glyph name="OE" format="1">
  <advance width="1588"/>
  <unicode hex="0152"/>
  <outline>
    <contour>
      <point x="1528" y="0" type="line"/>
      <point x="866" y="0" type="line"/>
      <point x="866" y="190" type="line"/>
      <point x="801" y="57"/>
      <point x="666" y="-22"/>
      <point x="486" y="-22" type="curve"/>
      <point x="253" y="-22"/>
      <point x="66" y="112"/>
      <point x="66" y="370" type="curve"/>
      <point x="66" y="1012" type="line" smooth="yes"/>
      <point x="66" y="1284"/>
      <point x="226" y="1428"/>
      <point x="490" y="1428" type="curve"/>
      <point x="674" y="1428"/>
      <point x="805" y="1347"/>
      <point x="866" y="1208" type="curve"/>
      <point x="866" y="1396" type="line"/>
      <point x="1532" y="1396" type="line"/>
      <point x="1532" y="1358" type="line"/>
      <point x="902" y="1358" type="line"/>
      <point x="902" y="822" type="line"/>
      <point x="1358" y="822" type="line"/>
      <point x="1344" y="786" type="line"/>
      <point x="902" y="786" type="line"/>
      <point x="902" y="38" type="line"/>
      <point x="1528" y="38" type="line"/>
    </contour>
    <contour>
      <point x="104" y="1012" type="curve"/>
      <point x="104" y="368" type="line"/>
      <point x="104" y="154"/>
      <point x="274" y="16"/>
      <point x="486" y="16" type="curve"/>
      <point x="702" y="16"/>
      <point x="866" y="132"/>
      <point x="866" y="368" type="curve"/>
      <point x="866" y="1034" type="line"/>
      <point x="858" y="1255"/>
      <point x="729" y="1386"/>
      <point x="484" y="1386" type="curve"/>
      <point x="233" y="1386"/>
      <point x="104" y="1241"/>
    </contour>
  </outline>
</glyph>
<glyph name="oe" format="1">
  <advance width="1544"/>
  <unicode hex="0153"/>
  <outline>
    <contour>
      <point x="804" y="458" type="line"/>
      <point x="804" y="264" type="line"/>
      <point x="804" y="73"/>
      <point x="940" y="14"/>
      <point x="1110" y="14" type="curve"/>
      <point x="1219" y="14"/>
      <point x="1303" y="40"/>
      <point x="1418" y="104" type="curve"/>
      <point x="1436" y="70" type="line"/>
      <point x="1335" y="9"/>
      <point x="1226" y="-24"/>
      <point x="1114" y="-24" type="curve"/>
      <point x="947" y="-24"/>
      <point x="799" y="29"/>
      <point x="768" y="210" type="curve"/>
      <point x="725" y="71"/>
      <point x="609" y="-20"/>
      <point x="428" y="-20" type="curve"/>
      <point x="171" y="-20"/>
      <point x="54" y="154"/>
      <point x="54" y="368" type="curve"/>
      <point x="54" y="630" type="line" smooth="yes"/>
      <point x="54" y="883"/>
      <point x="191" y="1020"/>
      <point x="428" y="1020" type="curve"/>
      <point x="615" y="1020"/>
      <point x="733" y="925"/>
      <point x="776" y="768" type="curve"/>
      <point x="812" y="939"/>
      <point x="971" y="1016"/>
      <point x="1134" y="1016" type="curve"/>
      <point x="1344" y="1016"/>
      <point x="1486" y="903"/>
      <point x="1486" y="682" type="curve"/>
      <point x="1486" y="492" type="line"/>
    </contour>
    <contour>
      <point x="754" y="368" type="curve"/>
      <point x="754" y="638" type="line"/>
      <point x="754" y="867"/>
      <point x="617" y="984"/>
      <point x="428" y="984" type="curve"/>
      <point x="207" y="984"/>
      <point x="94" y="855"/>
      <point x="94" y="638" type="curve"/>
      <point x="94" y="368" type="line" smooth="yes"/>
      <point x="94" y="172"/>
      <point x="206" y="16"/>
      <point x="428" y="16" type="curve"/>
      <point x="656" y="16"/>
      <point x="754" y="168"/>
    </contour>
    <contour>
      <point x="1446" y="528" type="line"/>
      <point x="1446" y="684" type="line"/>
      <point x="1446" y="884"/>
      <point x="1318" y="982"/>
      <point x="1128" y="982" type="curve"/>
      <point x="926" y="982"/>
      <point x="804" y="869"/>
      <point x="804" y="664" type="curve"/>
      <point x="804" y="496" type="line"/>
    </contour>
  </outline>
</glyph>
<glyph name="Tbar" format="1">
  <advance width="914"/>
  <unicode hex="0166"/>
  <outline>
    <contour>
      <point x="50" y="718" type="line"/>
      <point x="50" y="756" type="line"/>
      <point x="850" y="756" type="line"/>
      <point x="850" y="718" type="line"/>
    </contour>
    <contour>
      <point x="854" y="1356" type="line"/>
      <point x="466" y="1356" type="line"/>
      <point x="466" y="0" type="line"/>
      <point x="430" y="0" type="line"/>
      <point x="428" y="1356" type="line"/>
      <point x="50" y="1356" type="line"/>
      <point x="50" y="1396" type="line"/>
      <point x="854" y="1396" type="line"/>
    </contour>
  </outline>
</glyph>
<glyph name="tbar" format="1">
  <advance width="568"/>
  <unicode hex="0167"/>
  <outline>
    <contour>
      <point x="508" y="710" type="line"/>
      <point x="508" y="678" type="line"/>
      <point x="48" y="678" type="line"/>
      <point x="48" y="710" type="line"/>
    </contour>
    <contour>
      <point x="198" y="962" type="line"/>
      <point x="198" y="264" type="line"/>
      <point x="198" y="117"/>
      <point x="249" y="53"/>
      <point x="382" y="8" type="curve"/>
      <point x="368" y="-26" type="line"/>
      <point x="221" y="17"/>
      <point x="158" y="107"/>
      <point x="158" y="264" type="curve"/>
      <point x="158" y="1396" type="line"/>
      <point x="198" y="1396" type="line"/>
      <point x="198" y="998" type="line"/>
      <point x="510" y="998" type="line"/>
      <point x="492" y="962" type="line"/>
    </contour>
  </outline>
</glyph>
<glyph name="dotlessj" format="1">
  <advance width="338"/>
  <unicode hex="0237"/>
  <outline>
    <contour>
      <point x="260" y="998" type="line"/>
      <point x="260" y="-136" type="line"/>
      <point x="260" y="-298"/>
      <point x="200" y="-380"/>
      <point x="48" y="-426" type="curve"/>
      <point x="36" y="-392" type="line"/>
      <point x="170" y="-340"/>
      <point x="226" y="-288"/>
      <point x="226" y="-134" type="curve"/>
      <point x="226" y="962" type="line"/>
      <point x="56" y="962" type="line"/>
      <point x="56" y="998" type="line"/>
    </contour>
  </outline>
</glyph>
<glyph name="caron" format="1">
  <advance width="532"/>
  <unicode hex="02C7"/>
  <outline>
    <contour>
      <point x="480" y="1442" type="line"/>
      <point x="508" y="1412" type="line"/>
      <point x="264" y="1174" type="line"/>
      <point x="24" y="1410" type="line"/>
      <point x="54" y="1442" type="line"/>
      <point x="264" y="1234" type="line"/>
    </contour>
  </outline>
</glyph>
<glyph name="breve" format="1">
  <advance width="532"/>
  <unicode hex="02D8"/>
  <outline>
    <contour>
      <point x="450" y="1404" type="line"/>
      <point x="490" y="1404" type="line"/>
      <point x="490" y="1390" type="line" smooth="yes"/>
      <point x="490" y="1265"/>
      <point x="390" y="1164"/>
      <point x="266" y="1164" type="curve"/>
      <point x="143" y="1164"/>
      <point x="40" y="1265"/>
      <point x="40" y="1390" type="curve"/>
      <point x="40" y="1404" type="line"/>
      <point x="84" y="1404" type="line"/>
      <point x="84" y="1390" type="line" smooth="yes"/>
      <point x="84" y="1291"/>
      <point x="167" y="1208"/>
      <point x="266" y="1208" type="curve"/>
      <point x="366" y="1208"/>
      <point x="450" y="1289"/>
      <point x="450" y="1390" type="curve"/>
    </contour>
  </outline>
</glyph>
<glyph name="dotaccent" format="1">
  <advance width="532"/>
  <unicode hex="02D9"/>
  <outline>
    <contour>
      <point x="266" y="1464" type="curve"/>
      <point x="285" y="1464"/>
      <point x="298" y="1449"/>
      <point x="298" y="1428" type="curve"/>
      <point x="298" y="1409"/>
      <point x="285" y="1394"/>
      <point x="266" y="1394" type="curve"/>
      <point x="247" y="1394"/>
      <point x="232" y="1409"/>
      <point x="232" y="1428" type="curve"/>
      <point x="232" y="1449"/>
      <point x="247" y="1464"/>
    </contour>
  </outline>
</glyph>
<glyph name="ring" format="1">
  <advance width="532"/>
  <unicode hex="02DA"/>
  <outline>
    <contour>
      <point x="266" y="1546" type="curve"/>
      <point x="389" y="1546"/>
      <point x="492" y="1447"/>
      <point x="492" y="1320" type="curve"/>
      <point x="492" y="1191"/>
      <point x="389" y="1092"/>
      <point x="266" y="1092" type="curve"/>
      <point x="142" y="1092"/>
      <point x="38" y="1191"/>
      <point x="38" y="1320" type="curve"/>
      <point x="38" y="1447"/>
      <point x="142" y="1546"/>
    </contour>
    <contour>
      <point x="266" y="1508" type="curve"/>
      <point x="214" y="1508"/>
      <point x="169" y="1490"/>
      <point x="132" y="1453" type="curve"/>
      <point x="95" y="1416"/>
      <point x="76" y="1372"/>
      <point x="76" y="1320" type="curve"/>
      <point x="76" y="1265"/>
      <point x="99" y="1216"/>
      <point x="136" y="1182" type="curve"/>
      <point x="170" y="1150"/>
      <point x="216" y="1130"/>
      <point x="266" y="1130" type="curve"/>
      <point x="317" y="1130"/>
      <point x="361" y="1148"/>
      <point x="398" y="1185" type="curve"/>
      <point x="435" y="1222"/>
      <point x="454" y="1267"/>
      <point x="454" y="1320" type="curve"/>
      <point x="454" y="1372"/>
      <point x="435" y="1416"/>
      <point x="398" y="1453" type="curve"/>
      <point x="361" y="1490"/>
      <point x="317" y="1508"/>
    </contour>
  </outline>
</glyph>
<glyph name="ogonek" format="1">
  <advance width="532"/>
  <unicode hex="02DB"/>
  <outline>
    <contour>
      <point x="254" y="20" type="line"/>
      <point x="286" y="22" type="line"/>
      <point x="286" y="4" type="line"/>
      <point x="142" y="-246" type="line" smooth="yes"/>
      <point x="83" y="-353"/>
      <point x="169" y="-449"/>
      <point x="300" y="-408" type="curve"/>
      <point x="367" y="-383"/>
      <point x="444" y="-355"/>
      <point x="444" y="-356" type="curve"/>
      <point x="456" y="-396" type="line"/>
      <point x="458" y="-395"/>
      <point x="298" y="-450"/>
      <point x="276" y="-454" type="curve"/>
      <point x="129" y="-476"/>
      <point x="41" y="-356"/>
      <point x="110" y="-228" type="curve"/>
      <point x="254" y="6" type="line"/>
    </contour>
  </outline>
</glyph>
<glyph name="tilde" format="1">
  <advance width="532"/>
  <unicode hex="02DC"/>
  <outline>
    <contour>
      <point x="440" y="1390" type="curve"/>
      <point x="440" y="1408" type="line"/>
      <point x="480" y="1408" type="line"/>
      <point x="480" y="1390" type="line" smooth="yes"/>
      <point x="480" y="1329"/>
      <point x="457" y="1262"/>
      <point x="382" y="1262" type="curve"/>
      <point x="350" y="1262"/>
      <point x="323" y="1277"/>
      <point x="294" y="1296" type="curve"/>
      <point x="259" y="1317"/>
      <point x="227" y="1341"/>
      <point x="198" y="1360" type="curve"/>
      <point x="174" y="1373"/>
      <point x="142" y="1382"/>
      <point x="118" y="1366" type="curve"/>
      <point x="94" y="1350"/>
      <point x="92" y="1313"/>
      <point x="92" y="1286" type="curve"/>
      <point x="92" y="1270" type="line"/>
      <point x="52" y="1270" type="line"/>
      <point x="52" y="1286" type="line" smooth="yes"/>
      <point x="52" y="1329"/>
      <point x="59" y="1381"/>
      <point x="102" y="1402" type="curve"/>
      <point x="147" y="1429"/>
      <point x="200" y="1407"/>
      <point x="240" y="1380" type="curve"/>
      <point x="267" y="1361"/>
      <point x="290" y="1347"/>
      <point x="314" y="1328" type="curve"/>
      <point x="335" y="1317"/>
      <point x="354" y="1302"/>
      <point x="378" y="1302" type="curve"/>
      <point x="431" y="1299"/>
      <point x="440" y="1347"/>
    </contour>
  </outline>
</glyph>
<glyph name="hungarumlaut" format="1">
  <advance width="532"/>
  <unicode hex="02DD"/>
  <outline>
    <contour>
      <point x="284" y="1364" type="curve"/>
      <point x="174" y="1164" type="line"/>
      <point x="132" y="1164" type="line"/>
      <point x="232" y="1392" type="line" smooth="yes"/>
      <point x="240" y="1411"/>
      <point x="260" y="1421"/>
      <point x="276" y="1410" type="curve"/>
      <point x="292" y="1402"/>
      <point x="293" y="1381"/>
    </contour>
    <contour>
      <point x="508" y="1364" type="curve"/>
      <point x="396" y="1164" type="line"/>
      <point x="354" y="1164" type="line"/>
      <point x="456" y="1392" type="line" smooth="yes"/>
      <point x="464" y="1411"/>
      <point x="483" y="1419"/>
      <point x="498" y="1410" type="curve"/>
      <point x="516" y="1400"/>
      <point x="516" y="1380"/>
    </contour>
  </outline>
</glyph>
<glyph name="uni0302" format="1">
  <advance width="532"/>
  <unicode hex="0302"/>
  <outline>
    <contour>
      <point x="266" y="1538" type="line"/>
      <point x="508" y="1300" type="line"/>
      <point x="478" y="1272" type="line"/>
      <point x="266" y="1478" type="line"/>
      <point x="50" y="1272" type="line"/>
      <point x="22" y="1300" type="line"/>
    </contour>
  </outline>
</glyph>
<glyph name="uni0304" format="1">
  <advance width="532"/>
  <unicode hex="0304"/>
  <outline>
    <contour>
      <point x="46" y="1350" type="line"/>
      <point x="486" y="1350" type="line"/>
      <point x="486" y="1312" type="line"/>
      <point x="46" y="1312" type="line"/>
    </contour>
  </outline>
</glyph>
<glyph name="uni0306" format="1">
  <advance width="532"/>
  <unicode hex="0306"/>
  <outline>
    <contour>
      <point x="450" y="1404" type="line"/>
      <point x="490" y="1404" type="line"/>
      <point x="490" y="1390" type="line" smooth="yes"/>
      <point x="490" y="1326"/>
      <point x="464" y="1270"/>
      <point x="424" y="1230" type="curve"/>
      <point x="384" y="1190"/>
      <point x="328" y="1164"/>
      <point x="266" y="1164" type="curve"/>
      <point x="204" y="1164"/>
      <point x="148" y="1190"/>
      <point x="108" y="1230" type="curve"/>
      <point x="66" y="1270"/>
      <point x="40" y="1326"/>
      <point x="40" y="1390" type="curve"/>
      <point x="40" y="1404" type="line"/>
      <point x="84" y="1404" type="line"/>
      <point x="84" y="1390" type="line" smooth="yes"/>
      <point x="84" y="1296"/>
      <point x="172" y="1208"/>
      <point x="266" y="1208" type="curve"/>
      <point x="360" y="1208"/>
      <point x="450" y="1284"/>
      <point x="450" y="1390" type="curve"/>
    </contour>
  </outline>
</glyph>
<glyph name="uni0307" format="1">
  <advance width="532"/>
  <unicode hex="0307"/>
  <outline>
    <contour>
      <point x="266" y="1464" type="curve"/>
      <point x="288" y="1464"/>
      <point x="298" y="1452"/>
      <point x="298" y="1428" type="curve"/>
      <point x="298" y="1410"/>
      <point x="284" y="1394"/>
      <point x="266" y="1394" type="curve"/>
      <point x="248" y="1394"/>
      <point x="232" y="1410"/>
      <point x="232" y="1428" type="curve"/>
      <point x="232" y="1450"/>
      <point x="248" y="1464"/>
    </contour>
  </outline>
</glyph>
<glyph name="uni0308" format="1">
  <advance width="532"/>
  <unicode hex="0308"/>
  <outline>
    <contour>
      <point x="108" y="1448" type="curve"/>
      <point x="130" y="1448"/>
      <point x="142" y="1436"/>
      <point x="142" y="1412" type="curve"/>
      <point x="142" y="1390"/>
      <point x="130" y="1380"/>
      <point x="108" y="1380" type="curve"/>
      <point x="90" y="1380"/>
      <point x="74" y="1394"/>
      <point x="74" y="1412" type="curve"/>
      <point x="74" y="1434"/>
      <point x="90" y="1448"/>
    </contour>
    <contour>
      <point x="424" y="1448" type="curve"/>
      <point x="442" y="1448"/>
      <point x="458" y="1434"/>
      <point x="458" y="1412" type="curve"/>
      <point x="458" y="1394"/>
      <point x="442" y="1380"/>
      <point x="424" y="1380" type="curve"/>
      <point x="402" y="1380"/>
      <point x="392" y="1390"/>
      <point x="392" y="1412" type="curve"/>
      <point x="392" y="1436"/>
      <point x="402" y="1448"/>
    </contour>
  </outline>
</glyph>
<glyph name="dieresistonos" format="1">
  <advance width="532"/>
  <unicode hex="0385"/>
  <outline>
    <contour>
      <point x="142" y="1380" type="curve"/>
      <point x="142" y="1361"/>
      <point x="127" y="1346"/>
      <point x="108" y="1346" type="curve"/>
      <point x="89" y="1346"/>
      <point x="72" y="1361"/>
      <point x="72" y="1380" type="curve"/>
      <point x="72" y="1401"/>
      <point x="89" y="1412"/>
      <point x="108" y="1412" type="curve"/>
      <point x="127" y="1412"/>
      <point x="142" y="1401"/>
    </contour>
    <contour>
      <point x="458" y="1380" type="curve"/>
      <point x="458" y="1361"/>
      <point x="443" y="1346"/>
      <point x="422" y="1346" type="curve"/>
      <point x="403" y="1346"/>
      <point x="390" y="1361"/>
      <point x="390" y="1380" type="curve"/>
      <point x="390" y="1401"/>
      <point x="403" y="1412"/>
      <point x="422" y="1412" type="curve"/>
      <point x="443" y="1412"/>
      <point x="458" y="1401"/>
    </contour>
    <contour>
      <point x="388" y="1648" type="curve"/>
      <point x="278" y="1448" type="line"/>
      <point x="234" y="1448" type="line"/>
      <point x="336" y="1674" type="line"/>
      <point x="346" y="1698"/>
      <point x="370" y="1701"/>
      <point x="384" y="1692" type="curve"/>
      <point x="397" y="1684"/>
      <point x="401" y="1666"/>
    </contour>
  </outline>
</glyph>
<glyph name="Deltagreek" format="1">
  <advance width="1084"/>
  <unicode hex="0394"/>
  <outline>
    <contour>
      <point x="558" y="1396" type="line"/>
      <point x="1048" y="0" type="line"/>
      <point x="40" y="0" type="line"/>
      <point x="520" y="1396" type="line"/>
    </contour>
    <contour>
      <point x="540" y="1346" type="line"/>
      <point x="96" y="40" type="line"/>
      <point x="994" y="40" type="line"/>
    </contour>
  </outline>
</glyph>
<glyph name="Zeta" format="1">
  <advance width="1080"/>
  <unicode hex="0396"/>
  <outline>
    <contour>
      <point x="80" y="1396" type="line"/>
      <point x="1012" y="1396" type="line"/>
      <point x="1012" y="1358" type="line"/>
      <point x="102" y="38" type="line"/>
      <point x="1026" y="38" type="line"/>
      <point x="1026" y="0" type="line"/>
      <point x="54" y="0" type="line"/>
      <point x="54" y="38" type="line"/>
      <point x="964" y="1358" type="line"/>
      <point x="82" y="1358" type="line"/>
    </contour>
  </outline>
</glyph>
<glyph name="Eta" format="1">
  <advance width="1026"/>
  <unicode hex="0397"/>
  <outline>
    <contour>
      <point x="120" y="822" type="line"/>
      <point x="902" y="822" type="line"/>
      <point x="902" y="1396" type="line"/>
      <point x="940" y="1396" type="line"/>
      <point x="940" y="0" type="line"/>
      <point x="902" y="0" type="line"/>
      <point x="902" y="786" type="line"/>
      <point x="120" y="786" type="line"/>
      <point x="120" y="0" type="line"/>
      <point x="82" y="0" type="line"/>
      <point x="82" y="1396" type="line"/>
      <point x="120" y="1396" type="line"/>
    </contour>
  </outline>
</glyph>
<glyph name="Theta" format="1">
  <advance width="972"/>
  <unicode hex="0398"/>
  <outline>
    <contour>
      <point x="66" y="370" type="curve"/>
      <point x="66" y="1012" type="line"/>
      <point x="66" y="1284"/>
      <point x="226" y="1428"/>
      <point x="490" y="1428" type="curve"/>
      <point x="751" y="1428"/>
      <point x="902" y="1271"/>
      <point x="902" y="1010" type="curve"/>
      <point x="902" y="370" type="line" smooth="yes"/>
      <point x="902" y="126"/>
      <point x="736" y="-22"/>
      <point x="486" y="-22" type="curve"/>
      <point x="253" y="-22"/>
      <point x="66" y="112"/>
    </contour>
    <contour>
      <point x="866" y="718" type="line"/>
      <point x="866" y="1016" type="line"/>
      <point x="866" y="1244"/>
      <point x="737" y="1388"/>
      <point x="484" y="1388" type="curve"/>
      <point x="233" y="1388"/>
      <point x="104" y="1242"/>
      <point x="104" y="1012" type="curve"/>
      <point x="104" y="718" type="line"/>
    </contour>
    <contour>
      <point x="486" y="16" type="curve"/>
      <point x="702" y="16"/>
      <point x="866" y="132"/>
      <point x="866" y="368" type="curve"/>
      <point x="866" y="678" type="line"/>
      <point x="104" y="678" type="line"/>
      <point x="104" y="368" type="line" smooth="yes"/>
      <point x="104" y="136"/>
      <point x="274" y="16"/>
    </contour>
  </outline>
</glyph>
<glyph name="Lambda" format="1">
  <advance width="1086"/>
  <unicode hex="039B"/>
  <outline>
    <contour>
      <point x="1008" y="0" type="line"/>
      <point x="540" y="1336" type="line"/>
      <point x="78" y="0" type="line"/>
      <point x="40" y="0" type="line"/>
      <point x="522" y="1396" type="line"/>
      <point x="560" y="1396" type="line"/>
      <point x="1048" y="0" type="line"/>
    </contour>
  </outline>
</glyph>
<glyph name="Xi" format="1">
  <advance width="1118"/>
  <unicode hex="039E"/>
  <outline>
    <contour>
      <point x="80" y="1172" type="curve"/>
      <point x="44" y="1186" type="line"/>
      <point x="87" y="1335"/>
      <point x="177" y="1396"/>
      <point x="334" y="1396" type="curve"/>
      <point x="982" y="1396" type="line"/>
      <point x="964" y="1356" type="line"/>
      <point x="334" y="1356" type="line" smooth="yes"/>
      <point x="189" y="1356"/>
      <point x="118" y="1305"/>
    </contour>
    <contour>
      <point x="828" y="724" type="line"/>
      <point x="828" y="684" type="line"/>
      <point x="296" y="684" type="line"/>
      <point x="296" y="724" type="line"/>
    </contour>
    <contour>
      <point x="140" y="40" type="line"/>
      <point x="770" y="40" type="line"/>
      <point x="916" y="40"/>
      <point x="982" y="92"/>
      <point x="1022" y="226" type="curve"/>
      <point x="1060" y="212" type="line"/>
      <point x="1020" y="63"/>
      <point x="927" y="0"/>
      <point x="770" y="0" type="curve"/>
      <point x="124" y="0" type="line"/>
    </contour>
  </outline>
</glyph>
<glyph name="Pi" format="1">
  <advance width="1026"/>
  <unicode hex="03A0"/>
  <outline>
    <contour>
      <point x="940" y="0" type="line"/>
      <point x="900" y="0" type="line"/>
      <point x="900" y="1356" type="line"/>
      <point x="122" y="1356" type="line"/>
      <point x="122" y="0" type="line"/>
      <point x="82" y="0" type="line"/>
      <point x="82" y="1396" type="line"/>
      <point x="940" y="1396" type="line"/>
    </contour>
  </outline>
</glyph>
<glyph name="Sigma" format="1">
  <advance width="1040"/>
  <unicode hex="03A3"/>
  <outline>
    <contour>
      <point x="118" y="40" type="line"/>
      <point x="660" y="40" type="line"/>
      <point x="811" y="40"/>
      <point x="898" y="70"/>
      <point x="942" y="224" type="curve"/>
      <point x="982" y="212" type="line"/>
      <point x="939" y="63"/>
      <point x="851" y="0"/>
      <point x="694" y="0" type="curve"/>
      <point x="50" y="0" type="line"/>
      <point x="500" y="766" type="line"/>
      <point x="82" y="1400" type="line"/>
      <point x="936" y="1400" type="line"/>
      <point x="918" y="1360" type="line"/>
      <point x="152" y="1360" type="line"/>
      <point x="546" y="764" type="line"/>
    </contour>
  </outline>
</glyph>
<glyph name="Upsilon" format="1">
  <advance width="1026"/>
  <unicode hex="03A5"/>
  <outline>
    <contour>
      <point x="944" y="1396" type="line"/>
      <point x="944" y="290" type="line"/>
      <point x="944" y="122"/>
      <point x="875" y="21"/>
      <point x="736" y="-14" type="curve"/>
      <point x="724" y="22" type="line"/>
      <point x="800" y="42"/>
      <point x="904" y="84"/>
      <point x="904" y="304" type="curve"/>
      <point x="904" y="700" type="line"/>
      <point x="872" y="629"/>
      <point x="763" y="488"/>
      <point x="518" y="488" type="curve"/>
      <point x="377" y="488"/>
      <point x="263" y="525"/>
      <point x="186" y="592" type="curve"/>
      <point x="103" y="661"/>
      <point x="60" y="765"/>
      <point x="60" y="904" type="curve"/>
      <point x="60" y="1396" type="line"/>
      <point x="98" y="1396" type="line"/>
      <point x="98" y="914" type="line" smooth="yes"/>
      <point x="98" y="786"/>
      <point x="133" y="686"/>
      <point x="208" y="622" type="curve"/>
      <point x="277" y="558"/>
      <point x="379" y="526"/>
      <point x="518" y="526" type="curve"/>
      <point x="627" y="526"/>
      <point x="716" y="553"/>
      <point x="784" y="608" type="curve"/>
      <point x="861" y="667"/>
      <point x="904" y="761"/>
      <point x="904" y="860" type="curve"/>
      <point x="904" y="1396" type="line"/>
    </contour>
  </outline>
</glyph>
<glyph name="Phi" format="1">
  <advance width="1182"/>
  <unicode hex="03A6"/>
  <outline>
    <contour>
      <point x="296" y="1408" type="curve"/>
      <point x="312" y="1378" type="line"/>
      <point x="172" y="1334"/>
      <point x="98" y="1217"/>
      <point x="98" y="1032" type="curve"/>
      <point x="98" y="448" type="line" smooth="yes"/>
      <point x="98" y="200"/>
      <point x="233" y="92"/>
      <point x="444" y="92" type="curve"/>
      <point x="570" y="92" type="line"/>
      <point x="570" y="1206" type="line" smooth="yes"/>
      <point x="570" y="1341"/>
      <point x="642" y="1412"/>
      <point x="764" y="1416" type="curve"/>
      <point x="986" y="1424"/>
      <point x="1114" y="1262"/>
      <point x="1114" y="1016" type="curve"/>
      <point x="1114" y="446" type="line" smooth="yes"/>
      <point x="1114" y="210"/>
      <point x="997" y="60"/>
      <point x="740" y="60" type="curve"/>
      <point x="604" y="60" type="line"/>
      <point x="604" y="-70" type="line"/>
      <point x="570" y="-66" type="line"/>
      <point x="570" y="60" type="line"/>
      <point x="440" y="60" type="line" smooth="yes"/>
      <point x="187" y="60"/>
      <point x="64" y="208"/>
      <point x="64" y="448" type="curve"/>
      <point x="64" y="1032" type="line" smooth="yes"/>
      <point x="64" y="1232"/>
      <point x="141" y="1357"/>
    </contour>
    <contour>
      <point x="604" y="92" type="line"/>
      <point x="740" y="92" type="line"/>
      <point x="1006" y="92"/>
      <point x="1078" y="268"/>
      <point x="1078" y="446" type="curve"/>
      <point x="1078" y="1020" type="line" smooth="yes"/>
      <point x="1078" y="1248"/>
      <point x="956" y="1390"/>
      <point x="762" y="1382" type="curve"/>
      <point x="656" y="1378"/>
      <point x="604" y="1319"/>
      <point x="604" y="1210" type="curve"/>
    </contour>
  </outline>
</glyph>
<glyph name="Chi" format="1">
  <advance width="1114"/>
  <unicode hex="03A7"/>
  <outline>
    <contour>
      <point x="130" y="1396" type="line"/>
      <point x="556" y="762" type="line"/>
      <point x="980" y="1396" type="line"/>
      <point x="1028" y="1396" type="line"/>
      <point x="582" y="726" type="line"/>
      <point x="1068" y="0" type="line"/>
      <point x="1018" y="0" type="line"/>
      <point x="556" y="690" type="line"/>
      <point x="100" y="0" type="line"/>
      <point x="50" y="0" type="line"/>
      <point x="534" y="726" type="line"/>
      <point x="86" y="1396" type="line"/>
    </contour>
  </outline>
</glyph>
<glyph name="Psi" format="1">
  <advance width="1178"/>
  <unicode hex="03A8"/>
  <outline>
    <contour>
      <point x="102" y="1396" type="line"/>
      <point x="102" y="810" type="line"/>
      <point x="102" y="567"/>
      <point x="233" y="458"/>
      <point x="438" y="458" type="curve"/>
      <point x="560" y="458" type="line"/>
      <point x="560" y="1396" type="line"/>
      <point x="600" y="1396" type="line"/>
      <point x="600" y="458" type="line"/>
      <point x="740" y="458" type="line" smooth="yes"/>
      <point x="961" y="458"/>
      <point x="1078" y="586"/>
      <point x="1078" y="810" type="curve"/>
      <point x="1078" y="1194" type="line" smooth="yes"/>
      <point x="1078" y="1335"/>
      <point x="1013" y="1371"/>
      <point x="968" y="1400" type="curve"/>
      <point x="1002" y="1414" type="line"/>
      <point x="1022" y="1406"/>
      <point x="1112" y="1351"/>
      <point x="1112" y="1196" type="curve"/>
      <point x="1112" y="810" type="line" smooth="yes"/>
      <point x="1112" y="567"/>
      <point x="993" y="424"/>
      <point x="740" y="424" type="curve"/>
      <point x="600" y="424" type="line"/>
      <point x="600" y="0" type="line"/>
      <point x="560" y="0" type="line"/>
      <point x="560" y="424" type="line"/>
      <point x="438" y="424" type="line" smooth="yes"/>
      <point x="187" y="424"/>
      <point x="62" y="567"/>
      <point x="62" y="810" type="curve"/>
      <point x="62" y="1396" type="line"/>
    </contour>
  </outline>
</glyph>
<glyph name="Omegagreek" format="1">
  <advance width="1158"/>
  <unicode hex="03A9"/>
  <outline>
    <contour>
      <point x="1066" y="1014" type="curve"/>
      <point x="1066" y="372" type="line"/>
      <point x="1066" y="172"/>
      <point x="976" y="70"/>
      <point x="836" y="40" type="curve"/>
      <point x="1084" y="40" type="line"/>
      <point x="1098" y="0" type="line"/>
      <point x="636" y="0" type="line"/>
      <point x="636" y="40" type="line"/>
      <point x="836" y="53"/>
      <point x="1034" y="90"/>
      <point x="1034" y="372" type="curve"/>
      <point x="1034" y="1014" type="line" smooth="yes"/>
      <point x="1034" y="1260"/>
      <point x="897" y="1376"/>
      <point x="692" y="1376" type="curve"/>
      <point x="468" y="1376" type="line" smooth="yes"/>
      <point x="260" y="1376"/>
      <point x="128" y="1259"/>
      <point x="128" y="1014" type="curve"/>
      <point x="128" y="372" type="line" smooth="yes"/>
      <point x="128" y="90"/>
      <point x="325" y="53"/>
      <point x="522" y="40" type="curve"/>
      <point x="522" y="0" type="line"/>
      <point x="66" y="0" type="line"/>
      <point x="80" y="40" type="line"/>
      <point x="328" y="40" type="line"/>
      <point x="181" y="70"/>
      <point x="94" y="174"/>
      <point x="94" y="372" type="curve"/>
      <point x="94" y="1014" type="line" smooth="yes"/>
      <point x="94" y="1259"/>
      <point x="217" y="1410"/>
      <point x="468" y="1410" type="curve"/>
      <point x="692" y="1410" type="line" smooth="yes"/>
      <point x="944" y="1410"/>
      <point x="1066" y="1259"/>
    </contour>
  </outline>
</glyph>
<glyph name="alpha" format="1">
  <advance width="874"/>
  <unicode hex="03B1"/>
  <outline>
    <contour>
      <point x="770" y="976" type="curve"/>
      <point x="802" y="970" type="line"/>
      <point x="802" y="970"/>
      <point x="788" y="909"/>
      <point x="788" y="866" type="curve"/>
      <point x="788" y="8" type="line"/>
      <point x="791" y="10"/>
      <point x="559" y="-10"/>
      <point x="412" y="-8" type="curve"/>
      <point x="140" y="-8"/>
      <point x="60" y="151"/>
      <point x="60" y="314" type="curve"/>
      <point x="60" y="706" type="line" smooth="yes"/>
      <point x="60" y="948"/>
      <point x="215" y="1012"/>
      <point x="372" y="1012" type="curve"/>
      <point x="495" y="1012"/>
      <point x="631" y="967"/>
      <point x="754" y="906" type="curve"/>
      <point x="759" y="941"/>
      <point x="770" y="976"/>
    </contour>
    <contour>
      <point x="98" y="700" type="curve"/>
      <point x="98" y="324" type="line"/>
      <point x="98" y="129"/>
      <point x="201" y="28"/>
      <point x="412" y="28" type="curve"/>
      <point x="549" y="26"/>
      <point x="754" y="46"/>
      <point x="750" y="44" type="curve"/>
      <point x="750" y="864" type="line"/>
      <point x="632" y="932"/>
      <point x="487" y="974"/>
      <point x="362" y="974" type="curve"/>
      <point x="185" y="974"/>
      <point x="98" y="875"/>
    </contour>
  </outline>
</glyph>
<glyph name="beta" format="1">
  <advance width="882"/>
  <unicode hex="03B2"/>
  <outline>
    <contour>
      <point x="78" y="-412" type="line"/>
      <point x="78" y="1040" type="line"/>
      <point x="78" y="1233"/>
      <point x="209" y="1402"/>
      <point x="414" y="1402" type="curve"/>
      <point x="601" y="1402"/>
      <point x="714" y="1277"/>
      <point x="700" y="1104" type="curve"/>
      <point x="691" y="992"/>
      <point x="617" y="871"/>
      <point x="470" y="806" type="curve"/>
      <point x="524" y="808" type="line"/>
      <point x="793" y="808"/>
      <point x="822" y="634"/>
      <point x="822" y="506" type="curve"/>
      <point x="822" y="336" type="line" smooth="yes"/>
      <point x="822" y="99"/>
      <point x="728" y="-22"/>
      <point x="438" y="-22" type="curve"/>
      <point x="394" y="-22"/>
      <point x="200" y="-12"/>
      <point x="118" y="-4" type="curve"/>
      <point x="118" y="-424" type="line"/>
    </contour>
    <contour>
      <point x="118" y="1040" type="curve"/>
      <point x="118" y="772" type="line"/>
      <point x="306" y="794" type="line" smooth="yes"/>
      <point x="454" y="811"/>
      <point x="642" y="917"/>
      <point x="660" y="1106" type="curve"/>
      <point x="674" y="1254"/>
      <point x="573" y="1362"/>
      <point x="416" y="1362" type="curve"/>
      <point x="232" y="1362"/>
      <point x="118" y="1211"/>
    </contour>
    <contour>
      <point x="118" y="730" type="line"/>
      <point x="118" y="36" type="line"/>
      <point x="114" y="37"/>
      <point x="349" y="15"/>
      <point x="438" y="14" type="curve"/>
      <point x="753" y="9"/>
      <point x="788" y="179"/>
      <point x="788" y="322" type="curve"/>
      <point x="788" y="500" type="line" smooth="yes"/>
      <point x="788" y="647"/>
      <point x="736" y="770"/>
      <point x="528" y="770" type="curve"/>
      <point x="470" y="770"/>
      <point x="396" y="765"/>
      <point x="310" y="754" type="curve"/>
    </contour>
  </outline>
</glyph>
<glyph name="gamma" format="1">
  <advance width="998"/>
  <unicode hex="03B3"/>
  <outline>
    <contour>
      <point x="938" y="1012" type="curve"/>
      <point x="958" y="984" type="line"/>
      <point x="841" y="932"/>
      <point x="816" y="846"/>
      <point x="792" y="768" type="curve"/>
      <point x="504" y="-182" type="line" smooth="yes"/>
      <point x="478" y="-268"/>
      <point x="413" y="-396"/>
      <point x="226" y="-396" type="curve"/>
      <point x="216" y="-358" type="line"/>
      <point x="407" y="-358"/>
      <point x="446" y="-234"/>
      <point x="470" y="-158" type="curve"/>
      <point x="514" y="-12" type="line"/>
      <point x="376" y="-4"/>
      <point x="302" y="95"/>
      <point x="254" y="256" type="curve"/>
      <point x="38" y="996" type="line"/>
      <point x="76" y="996" type="line"/>
      <point x="286" y="278" type="line" smooth="yes"/>
      <point x="334" y="112"/>
      <point x="400" y="30"/>
      <point x="528" y="30" type="curve"/>
      <point x="754" y="772" type="line" smooth="yes"/>
      <point x="795" y="902"/>
      <point x="827" y="959"/>
    </contour>
  </outline>
</glyph>
<glyph name="delta" format="1">
  <advance width="858"/>
  <unicode hex="03B4"/>
  <outline>
    <contour>
      <point x="682" y="1358" type="line"/>
      <point x="478" y="1358" type="line"/>
      <point x="393" y="1358"/>
      <point x="293" y="1328"/>
      <point x="286" y="1212" type="curve"/>
      <point x="280" y="1110"/>
      <point x="363" y="1057"/>
      <point x="436" y="1012" type="curve"/>
      <point x="474" y="988"/>
      <point x="502" y="974"/>
      <point x="524" y="960" type="curve"/>
      <point x="556" y="942"/>
      <point x="580" y="928"/>
      <point x="622" y="902" type="curve"/>
      <point x="776" y="809"/>
      <point x="798" y="685"/>
      <point x="798" y="570" type="curve"/>
      <point x="798" y="366" type="line" smooth="yes"/>
      <point x="798" y="113"/>
      <point x="673" y="-22"/>
      <point x="428" y="-22" type="curve"/>
      <point x="175" y="-22"/>
      <point x="54" y="126"/>
      <point x="54" y="366" type="curve"/>
      <point x="54" y="620" type="line" smooth="yes"/>
      <point x="54" y="740"/>
      <point x="96" y="838"/>
      <point x="162" y="906" type="curve"/>
      <point x="214" y="960"/>
      <point x="280" y="996"/>
      <point x="358" y="1012" type="curve"/>
      <point x="334" y="1032" type="line" smooth="yes"/>
      <point x="280" y="1077"/>
      <point x="244" y="1133"/>
      <point x="244" y="1200" type="curve"/>
      <point x="244" y="1358"/>
      <point x="386" y="1396"/>
      <point x="478" y="1396" type="curve"/>
      <point x="702" y="1396" type="line"/>
    </contour>
    <contour>
      <point x="758" y="368" type="curve"/>
      <point x="758" y="602" type="line"/>
      <point x="758" y="716"/>
      <point x="710" y="808"/>
      <point x="570" y="888" type="curve"/>
      <point x="406" y="982" type="line"/>
      <point x="321" y="974"/>
      <point x="241" y="943"/>
      <point x="180" y="876" type="curve"/>
      <point x="117" y="808"/>
      <point x="92" y="719"/>
      <point x="92" y="618" type="curve"/>
      <point x="92" y="366" type="line" smooth="yes"/>
      <point x="92" y="182"/>
      <point x="173" y="16"/>
      <point x="422" y="16" type="curve"/>
      <point x="678" y="16"/>
      <point x="758" y="163"/>
    </contour>
  </outline>
</glyph>
<glyph name="epsilon" format="1">
  <advance width="784"/>
  <unicode hex="03B5"/>
  <outline>
    <contour>
      <point x="600" y="990" type="curve"/>
      <point x="600" y="948" type="line"/>
      <point x="551" y="968"/>
      <point x="445" y="984"/>
      <point x="398" y="984" type="curve"/>
      <point x="264" y="984"/>
      <point x="130" y="922"/>
      <point x="130" y="770" type="curve"/>
      <point x="130" y="669"/>
      <point x="197" y="600"/>
      <point x="304" y="600" type="curve"/>
      <point x="600" y="600" type="line"/>
      <point x="586" y="564" type="line"/>
      <point x="374" y="564" type="line" smooth="yes"/>
      <point x="182" y="564"/>
      <point x="90" y="450"/>
      <point x="90" y="296" type="curve"/>
      <point x="90" y="133"/>
      <point x="210" y="18"/>
      <point x="408" y="18" type="curve"/>
      <point x="586" y="18"/>
      <point x="728" y="89"/>
      <point x="726" y="86" type="curve"/>
      <point x="740" y="46" type="line"/>
      <point x="660" y="17"/>
      <point x="531" y="-22"/>
      <point x="414" y="-22" type="curve"/>
      <point x="142" y="-22"/>
      <point x="52" y="150"/>
      <point x="52" y="302" type="curve"/>
      <point x="52" y="443"/>
      <point x="124" y="538"/>
      <point x="244" y="576" type="curve"/>
      <point x="120" y="604"/>
      <point x="92" y="704"/>
      <point x="92" y="770" type="curve"/>
      <point x="92" y="894"/>
      <point x="190" y="1018"/>
      <point x="394" y="1018" type="curve"/>
      <point x="461" y="1018"/>
      <point x="531" y="1009"/>
    </contour>
  </outline>
</glyph>
<glyph name="zeta" format="1">
  <advance width="794"/>
  <unicode hex="03B6"/>
  <outline>
    <contour>
      <point x="732" y="1396" type="line"/>
      <point x="744" y="1356" type="line"/>
      <point x="608" y="1248"/>
      <point x="498" y="1126"/>
      <point x="406" y="1018" type="curve"/>
      <point x="329" y="927"/>
      <point x="259" y="835"/>
      <point x="212" y="746" type="curve"/>
      <point x="136" y="603"/>
      <point x="94" y="473"/>
      <point x="94" y="356" type="curve"/>
      <point x="94" y="257"/>
      <point x="121" y="179"/>
      <point x="184" y="124" type="curve"/>
      <point x="281" y="38"/>
      <point x="504" y="5"/>
      <point x="756" y="44" type="curve"/>
      <point x="756" y="-422" type="line"/>
      <point x="716" y="-410" type="line"/>
      <point x="716" y="-2" type="line"/>
      <point x="489" y="-34"/>
      <point x="262" y="-4"/>
      <point x="150" y="100" type="curve"/>
      <point x="78" y="169"/>
      <point x="47" y="261"/>
      <point x="50" y="368" type="curve"/>
      <point x="55" y="485"/>
      <point x="99" y="623"/>
      <point x="176" y="764" type="curve"/>
      <point x="229" y="857"/>
      <point x="294" y="948"/>
      <point x="370" y="1038" type="curve"/>
      <point x="468" y="1153"/>
      <point x="575" y="1263"/>
      <point x="672" y="1356" type="curve"/>
      <point x="188" y="1356" type="line"/>
      <point x="188" y="1396" type="line"/>
    </contour>
  </outline>
</glyph>
<glyph name="eta" format="1">
  <advance width="884"/>
  <unicode hex="03B7"/>
  <outline>
    <contour>
      <point x="772" y="-410" type="line"/>
      <point x="772" y="692" type="line"/>
      <point x="772" y="919"/>
      <point x="648" y="998"/>
      <point x="432" y="986" type="curve"/>
      <point x="317" y="981"/>
      <point x="189" y="943"/>
      <point x="112" y="906" type="curve"/>
      <point x="112" y="0" type="line"/>
      <point x="76" y="0" type="line"/>
      <point x="76" y="998" type="line"/>
      <point x="112" y="998" type="line"/>
      <point x="112" y="942" type="line"/>
      <point x="179" y="971"/>
      <point x="302" y="1011"/>
      <point x="406" y="1016" type="curve"/>
      <point x="579" y="1026"/>
      <point x="812" y="1003"/>
      <point x="812" y="690" type="curve"/>
      <point x="812" y="-424" type="line"/>
    </contour>
  </outline>
</glyph>
<glyph name="theta" format="1">
  <advance width="876"/>
  <unicode hex="03B8"/>
  <outline>
    <contour>
      <point x="422" y="1414" type="curve"/>
      <point x="675" y="1414"/>
      <point x="804" y="1257"/>
      <point x="804" y="1004" type="curve"/>
      <point x="804" y="376" type="line" smooth="yes"/>
      <point x="804" y="125"/>
      <point x="679" y="-12"/>
      <point x="434" y="-12" type="curve"/>
      <point x="183" y="-12"/>
      <point x="60" y="139"/>
      <point x="60" y="376" type="curve"/>
      <point x="60" y="624" type="line" smooth="yes"/>
      <point x="60" y="760"/>
      <point x="121" y="843"/>
      <point x="196" y="896" type="curve"/>
      <point x="108" y="984"/>
      <point x="98" y="1077"/>
      <point x="98" y="1114" type="curve"/>
      <point x="98" y="1273"/>
      <point x="212" y="1414"/>
    </contour>
    <contour>
      <point x="764" y="770" type="curve"/>
      <point x="764" y="1004" type="line"/>
      <point x="764" y="1239"/>
      <point x="641" y="1380"/>
      <point x="422" y="1380" type="curve"/>
      <point x="250" y="1380"/>
      <point x="138" y="1263"/>
      <point x="138" y="1118" type="curve"/>
      <point x="138" y="1018"/>
      <point x="196" y="914"/>
      <point x="340" y="846" type="curve"/>
      <point x="438" y="800"/>
      <point x="576" y="770"/>
    </contour>
    <contour>
      <point x="428" y="28" type="curve"/>
      <point x="684" y="28"/>
      <point x="764" y="167"/>
      <point x="764" y="372" type="curve"/>
      <point x="764" y="738" type="line"/>
      <point x="481" y="738"/>
      <point x="317" y="799"/>
      <point x="224" y="874" type="curve"/>
      <point x="149" y="823"/>
      <point x="98" y="739"/>
      <point x="98" y="622" type="curve"/>
      <point x="98" y="370" type="line" smooth="yes"/>
      <point x="98" y="191"/>
      <point x="182" y="28"/>
    </contour>
  </outline>
</glyph>
<glyph name="kappa" format="1">
  <advance width="856"/>
  <unicode hex="03BA"/>
  <outline>
    <contour>
      <point x="326" y="582" type="line"/>
      <point x="582" y="224" type="line"/>
      <point x="675" y="101"/>
      <point x="751" y="38"/>
      <point x="812" y="38" type="curve"/>
      <point x="812" y="-2" type="line"/>
      <point x="777" y="-2"/>
      <point x="739" y="13"/>
      <point x="698" y="44" type="curve"/>
      <point x="677" y="60"/>
      <point x="652" y="81"/>
      <point x="628" y="108" type="curve"/>
      <point x="607" y="135"/>
      <point x="581" y="161"/>
      <point x="560" y="196" type="curve"/>
      <point x="302" y="554" type="line"/>
      <point x="112" y="356" type="line"/>
      <point x="112" y="0" type="line"/>
      <point x="76" y="0" type="line"/>
      <point x="76" y="1020" type="line"/>
      <point x="112" y="1012" type="line"/>
      <point x="112" y="410" type="line"/>
      <point x="656" y="998" type="line"/>
      <point x="708" y="998" type="line"/>
    </contour>
  </outline>
</glyph>
<glyph name="lambda" format="1">
  <advance width="998"/>
  <unicode hex="03BB"/>
  <outline>
    <contour>
      <point x="512" y="1176" type="curve"/>
      <point x="800" y="226" type="line"/>
      <point x="825" y="147"/>
      <point x="844" y="67"/>
      <point x="966" y="10" type="curve"/>
      <point x="966" y="10"/>
      <point x="960" y="5"/>
      <point x="944" y="-16" type="curve"/>
      <point x="836" y="36"/>
      <point x="800" y="94"/>
      <point x="760" y="222" type="curve"/>
      <point x="709" y="394"/>
      <point x="536" y="968"/>
      <point x="536" y="966" type="curve"/>
      <point x="405" y="966"/>
      <point x="342" y="883"/>
      <point x="294" y="718" type="curve"/>
      <point x="293" y="708"/>
      <point x="80" y="-6"/>
      <point x="82" y="-2" type="curve"/>
      <point x="46" y="-2" type="line"/>
      <point x="46" y="-7"/>
      <point x="206" y="559"/>
      <point x="262" y="740" type="curve"/>
      <point x="306" y="898"/>
      <point x="384" y="1004"/>
      <point x="518" y="1008" type="curve"/>
      <point x="474" y="1152" type="line" smooth="yes"/>
      <point x="451" y="1230"/>
      <point x="413" y="1352"/>
      <point x="224" y="1352" type="curve"/>
      <point x="232" y="1390" type="line"/>
      <point x="421" y="1390"/>
      <point x="480" y="1261"/>
    </contour>
  </outline>
</glyph>
<glyph name="nu" format="1">
  <advance width="846"/>
  <unicode hex="03BD"/>
  <outline>
    <contour>
      <point x="404" y="0" type="line"/>
      <point x="34" y="998" type="line"/>
      <point x="72" y="998" type="line"/>
      <point x="416" y="72" type="line"/>
      <point x="762" y="998" type="line"/>
      <point x="802" y="998" type="line"/>
      <point x="430" y="0" type="line"/>
    </contour>
  </outline>
</glyph>
<glyph name="xi" format="1">
  <advance width="852"/>
  <unicode hex="03BE"/>
  <outline>
    <contour>
      <point x="762" y="1400" type="line"/>
      <point x="742" y="1358" type="line"/>
      <point x="468" y="1358" type="line" smooth="yes"/>
      <point x="310" y="1358"/>
      <point x="227" y="1274"/>
      <point x="224" y="1128" type="curve"/>
      <point x="220" y="936"/>
      <point x="393" y="833"/>
      <point x="556" y="814" type="curve"/>
      <point x="606" y="808" type="line"/>
      <point x="596" y="770" type="line"/>
      <point x="356" y="770" type="line" smooth="yes"/>
      <point x="148" y="770"/>
      <point x="96" y="652"/>
      <point x="96" y="502" type="curve"/>
      <point x="96" y="324" type="line" smooth="yes"/>
      <point x="96" y="178"/>
      <point x="129" y="20"/>
      <point x="444" y="20" type="curve"/>
      <point x="516" y="20"/>
      <point x="643" y="26"/>
      <point x="760" y="42" type="curve"/>
      <point x="760" y="-422" type="line"/>
      <point x="720" y="-410" type="line"/>
      <point x="720" y="-2" type="line"/>
      <point x="623" y="-14"/>
      <point x="485" y="-20"/>
      <point x="442" y="-20" type="curve"/>
      <point x="148" y="-20"/>
      <point x="56" y="100"/>
      <point x="56" y="336" type="curve"/>
      <point x="56" y="508" type="line" smooth="yes"/>
      <point x="56" y="636"/>
      <point x="89" y="810"/>
      <point x="356" y="810" type="curve"/>
      <point x="420" y="810" type="line"/>
      <point x="268" y="854"/>
      <point x="180" y="992"/>
      <point x="180" y="1126" type="curve"/>
      <point x="180" y="1282"/>
      <point x="276" y="1400"/>
      <point x="460" y="1400" type="curve"/>
    </contour>
  </outline>
</glyph>
<glyph name="pi" format="1">
  <advance width="936"/>
  <unicode hex="03C0"/>
  <outline>
    <contour>
      <point x="826" y="996" type="line"/>
      <point x="826" y="154" type="line"/>
      <point x="826" y="103"/>
      <point x="844" y="66"/>
      <point x="876" y="42" type="curve"/>
      <point x="850" y="8" type="line"/>
      <point x="811" y="41"/>
      <point x="790" y="88"/>
      <point x="790" y="158" type="curve"/>
      <point x="794" y="964" type="line"/>
      <point x="108" y="964" type="line"/>
      <point x="108" y="0" type="line"/>
      <point x="76" y="0" type="line"/>
      <point x="76" y="996" type="line"/>
    </contour>
  </outline>
</glyph>
<glyph name="rho" format="1">
  <advance width="870"/>
  <unicode hex="03C1"/>
  <outline>
    <contour>
      <point x="808" y="620" type="curve"/>
      <point x="808" y="340" type="line"/>
      <point x="808" y="95"/>
      <point x="680" y="-36"/>
      <point x="458" y="-36" type="curve"/>
      <point x="332" y="-36"/>
      <point x="157" y="32"/>
      <point x="110" y="152" type="curve"/>
      <point x="110" y="-424" type="line"/>
      <point x="70" y="-412" type="line"/>
      <point x="70" y="620" type="line" smooth="yes"/>
      <point x="70" y="873"/>
      <point x="205" y="1012"/>
      <point x="442" y="1012" type="curve"/>
      <point x="679" y="1012"/>
      <point x="808" y="863"/>
    </contour>
    <contour>
      <point x="768" y="328" type="curve"/>
      <point x="768" y="630" type="line"/>
      <point x="768" y="859"/>
      <point x="634" y="972"/>
      <point x="442" y="972" type="curve"/>
      <point x="222" y="972"/>
      <point x="110" y="846"/>
      <point x="110" y="630" type="curve"/>
      <point x="110" y="284" type="line"/>
      <point x="105" y="93"/>
      <point x="319" y="-15"/>
      <point x="490" y="-2" type="curve"/>
      <point x="663" y="9"/>
      <point x="768" y="125"/>
    </contour>
  </outline>
</glyph>
<glyph name="sigma1" format="1">
  <advance width="670"/>
  <unicode hex="03C2"/>
  <outline>
    <contour>
      <point x="82" y="696" type="curve"/>
      <point x="82" y="566" type="line"/>
      <point x="82" y="468"/>
      <point x="106" y="402"/>
      <point x="218" y="324" type="curve"/>
      <point x="416" y="188" type="line" smooth="yes"/>
      <point x="512" y="122"/>
      <point x="562" y="58"/>
      <point x="562" y="-44" type="curve"/>
      <point x="562" y="-158"/>
      <point x="460" y="-242"/>
      <point x="386" y="-284" type="curve"/>
      <point x="366" y="-248" type="line"/>
      <point x="438" y="-204"/>
      <point x="522" y="-136"/>
      <point x="522" y="-44" type="curve"/>
      <point x="522" y="38"/>
      <point x="474" y="98"/>
      <point x="394" y="154" type="curve"/>
      <point x="196" y="290" type="line" smooth="yes"/>
      <point x="82" y="368"/>
      <point x="42" y="448"/>
      <point x="42" y="566" type="curve"/>
      <point x="42" y="684" type="line" smooth="yes"/>
      <point x="42" y="912"/>
      <point x="214" y="1006"/>
      <point x="368" y="1006" type="curve"/>
      <point x="518" y="1006"/>
      <point x="616" y="938"/>
      <point x="616" y="936" type="curve"/>
      <point x="596" y="906" type="line"/>
      <point x="596" y="904"/>
      <point x="502" y="972"/>
      <point x="368" y="970" type="curve"/>
      <point x="248" y="970"/>
      <point x="82" y="900"/>
    </contour>
  </outline>
</glyph>
<glyph name="sigma" format="1">
  <advance width="850"/>
  <unicode hex="03C3"/>
  <outline>
    <contour>
      <point x="818" y="1082" type="curve"/>
      <point x="842" y="1058" type="line"/>
      <point x="826" y="1030"/>
      <point x="734" y="972"/>
      <point x="648" y="964" type="curve"/>
      <point x="749" y="895"/>
      <point x="790" y="801"/>
      <point x="790" y="638" type="curve"/>
      <point x="790" y="368" type="line" smooth="yes"/>
      <point x="790" y="134"/>
      <point x="669" y="-20"/>
      <point x="426" y="-20" type="curve"/>
      <point x="173" y="-20"/>
      <point x="54" y="154"/>
      <point x="54" y="368" type="curve"/>
      <point x="54" y="654" type="line" smooth="yes"/>
      <point x="54" y="921"/>
      <point x="238" y="1020"/>
      <point x="416" y="1020" type="curve"/>
      <point x="575" y="1020"/>
      <point x="612" y="992"/>
      <point x="668" y="1004" type="curve"/>
      <point x="720" y="1014"/>
      <point x="770" y="1039"/>
    </contour>
    <contour>
      <point x="752" y="368" type="curve"/>
      <point x="752" y="638" type="line"/>
      <point x="752" y="915"/>
      <point x="594" y="956"/>
      <point x="568" y="972" type="curve"/>
      <point x="525" y="983"/>
      <point x="468" y="988"/>
      <point x="414" y="986" type="curve"/>
      <point x="238" y="980"/>
      <point x="94" y="879"/>
      <point x="94" y="646" type="curve"/>
      <point x="94" y="368" type="line" smooth="yes"/>
      <point x="94" y="172"/>
      <point x="210" y="16"/>
      <point x="430" y="16" type="curve"/>
      <point x="658" y="16"/>
      <point x="752" y="168"/>
    </contour>
  </outline>
</glyph>
<glyph name="tau" format="1">
  <advance width="684"/>
  <unicode hex="03C4"/>
  <outline>
    <contour>
      <point x="350" y="958" type="line"/>
      <point x="350" y="264" type="line"/>
      <point x="350" y="157"/>
      <point x="349" y="48"/>
      <point x="498" y="8" type="curve"/>
      <point x="484" y="-26" type="line"/>
      <point x="332" y="21"/>
      <point x="310" y="117"/>
      <point x="310" y="264" type="curve"/>
      <point x="310" y="958" type="line"/>
      <point x="32" y="958" type="line"/>
      <point x="32" y="996" type="line"/>
      <point x="636" y="996" type="line"/>
      <point x="636" y="958" type="line"/>
    </contour>
  </outline>
</glyph>
<glyph name="upsilon" format="1">
  <advance width="876"/>
  <unicode hex="03C5"/>
  <outline>
    <contour>
      <point x="806" y="998" type="line"/>
      <point x="806" y="368" type="line"/>
      <point x="806" y="136"/>
      <point x="680" y="-20"/>
      <point x="440" y="-20" type="curve"/>
      <point x="188" y="-20"/>
      <point x="66" y="154"/>
      <point x="66" y="368" type="curve"/>
      <point x="66" y="998" type="line"/>
      <point x="106" y="998" type="line"/>
      <point x="106" y="368" type="line" smooth="yes"/>
      <point x="106" y="172"/>
      <point x="222" y="16"/>
      <point x="442" y="16" type="curve"/>
      <point x="672" y="16"/>
      <point x="772" y="168"/>
      <point x="772" y="368" type="curve"/>
      <point x="772" y="998" type="line"/>
    </contour>
  </outline>
</glyph>
<glyph name="phi" format="1">
  <advance width="1164"/>
  <unicode hex="03C6"/>
  <outline>
    <contour>
      <point x="56" y="376" type="curve"/>
      <point x="56" y="626" type="line"/>
      <point x="56" y="829"/>
      <point x="133" y="953"/>
      <point x="288" y="1004" type="curve"/>
      <point x="306" y="970" type="line"/>
      <point x="186" y="941"/>
      <point x="96" y="838"/>
      <point x="96" y="630" type="curve"/>
      <point x="96" y="356" type="line" smooth="yes"/>
      <point x="96" y="136"/>
      <point x="235" y="20"/>
      <point x="434" y="20" type="curve"/>
      <point x="562" y="20" type="line"/>
      <point x="562" y="816" type="line" smooth="yes"/>
      <point x="562" y="931"/>
      <point x="624" y="1010"/>
      <point x="750" y="1012" type="curve"/>
      <point x="982" y="1016"/>
      <point x="1104" y="847"/>
      <point x="1104" y="612" type="curve"/>
      <point x="1104" y="376" type="line" smooth="yes"/>
      <point x="1104" y="136"/>
      <point x="987" y="-14"/>
      <point x="734" y="-14" type="curve"/>
      <point x="594" y="-14" type="line"/>
      <point x="594" y="-422" type="line"/>
      <point x="562" y="-410" type="line"/>
      <point x="562" y="-14" type="line"/>
      <point x="434" y="-14" type="line" smooth="yes"/>
      <point x="178" y="-14"/>
      <point x="56" y="136"/>
    </contour>
    <contour>
      <point x="594" y="20" type="line"/>
      <point x="734" y="20" type="line"/>
      <point x="961" y="20"/>
      <point x="1072" y="151"/>
      <point x="1072" y="370" type="curve"/>
      <point x="1072" y="632" type="line" smooth="yes"/>
      <point x="1072" y="765"/>
      <point x="998" y="978"/>
      <point x="760" y="978" type="curve"/>
      <point x="654" y="978"/>
      <point x="594" y="925"/>
      <point x="594" y="802" type="curve"/>
    </contour>
  </outline>
</glyph>
<glyph name="chi" format="1">
  <advance width="902"/>
  <unicode hex="03C7"/>
  <outline>
    <contour>
      <point x="434" y="296" type="line"/>
      <point x="684" y="-214" type="line"/>
      <point x="745" y="-337"/>
      <point x="803" y="-391"/>
      <point x="894" y="-396" type="curve"/>
      <point x="876" y="-422" type="line"/>
      <point x="769" y="-422"/>
      <point x="717" y="-353"/>
      <point x="648" y="-214" type="curve"/>
      <point x="414" y="262" type="line"/>
      <point x="76" y="-392" type="line"/>
      <point x="42" y="-378" type="line"/>
      <point x="394" y="296" type="line"/>
      <point x="42" y="996" type="line"/>
      <point x="82" y="996" type="line"/>
      <point x="412" y="332" type="line"/>
      <point x="760" y="996" type="line"/>
      <point x="800" y="996" type="line"/>
    </contour>
  </outline>
</glyph>
<glyph name="psi" format="1">
  <advance width="1180"/>
  <unicode hex="03C8"/>
  <outline>
    <contour>
      <point x="1012" y="996" type="curve"/>
      <point x="1050" y="1008" type="line"/>
      <point x="1103" y="941"/>
      <point x="1114" y="863"/>
      <point x="1114" y="772" type="curve"/>
      <point x="1114" y="376" type="line" smooth="yes"/>
      <point x="1114" y="136"/>
      <point x="991" y="-14"/>
      <point x="738" y="-14" type="curve"/>
      <point x="610" y="-14" type="line"/>
      <point x="610" y="-422" type="line"/>
      <point x="576" y="-410" type="line"/>
      <point x="576" y="-14" type="line"/>
      <point x="436" y="-14" type="line" smooth="yes"/>
      <point x="185" y="-14"/>
      <point x="64" y="136"/>
      <point x="64" y="376" type="curve"/>
      <point x="64" y="996" type="line"/>
      <point x="100" y="996" type="line"/>
      <point x="100" y="370" type="line" smooth="yes"/>
      <point x="100" y="154"/>
      <point x="216" y="20"/>
      <point x="436" y="20" type="curve"/>
      <point x="576" y="20" type="line"/>
      <point x="576" y="996" type="line"/>
      <point x="610" y="996" type="line"/>
      <point x="610" y="20" type="line"/>
      <point x="738" y="20" type="line" smooth="yes"/>
      <point x="942" y="20"/>
      <point x="1076" y="132"/>
      <point x="1076" y="356" type="curve"/>
      <point x="1076" y="776" type="line" smooth="yes"/>
      <point x="1076" y="890"/>
      <point x="1058" y="943"/>
    </contour>
  </outline>
</glyph>
<glyph name="omega" format="1">
  <advance width="1186"/>
  <unicode hex="03C9"/>
  <outline>
    <contour>
      <point x="898" y="964" type="curve"/>
      <point x="910" y="994" type="line"/>
      <point x="1051" y="942"/>
      <point x="1122" y="821"/>
      <point x="1122" y="630" type="curve"/>
      <point x="1122" y="372" type="line" smooth="yes"/>
      <point x="1122" y="108"/>
      <point x="1019" y="-26"/>
      <point x="806" y="-26" type="curve"/>
      <point x="726" y="-26"/>
      <point x="604" y="22"/>
      <point x="592" y="146" type="curve"/>
      <point x="580" y="21"/>
      <point x="456" y="-26"/>
      <point x="376" y="-26" type="curve"/>
      <point x="156" y="-26"/>
      <point x="60" y="104"/>
      <point x="60" y="368" type="curve"/>
      <point x="60" y="630" type="line" smooth="yes"/>
      <point x="60" y="819"/>
      <point x="130" y="943"/>
      <point x="274" y="994" type="curve"/>
      <point x="284" y="964" type="line"/>
      <point x="172" y="919"/>
      <point x="92" y="827"/>
      <point x="92" y="630" type="curve"/>
      <point x="92" y="358" type="line" smooth="yes"/>
      <point x="92" y="129"/>
      <point x="186" y="8"/>
      <point x="370" y="8" type="curve"/>
      <point x="501" y="8"/>
      <point x="567" y="82"/>
      <point x="572" y="218" type="curve"/>
      <point x="572" y="592" type="line"/>
      <point x="612" y="592" type="line"/>
      <point x="612" y="218" type="line"/>
      <point x="617" y="82"/>
      <point x="681" y="8"/>
      <point x="812" y="8" type="curve"/>
      <point x="996" y="8"/>
      <point x="1090" y="129"/>
      <point x="1090" y="358" type="curve"/>
      <point x="1090" y="630" type="line" smooth="yes"/>
      <point x="1090" y="827"/>
      <point x="1010" y="919"/>
    </contour>
  </outline>
</glyph>
<glyph name="quoteright" format="1">
  <advance width="204"/>
  <unicode hex="2019"/>
  <outline>
    <contour>
      <point x="68" y="1170" type="curve"/>
      <point x="52" y="1182" type="line"/>
      <point x="89" y="1219"/>
      <point x="99" y="1263"/>
      <point x="102" y="1292" type="curve"/>
      <point x="89" y="1297"/>
      <point x="80" y="1306"/>
      <point x="80" y="1322" type="curve"/>
      <point x="80" y="1343"/>
      <point x="96" y="1358"/>
      <point x="112" y="1358" type="curve"/>
      <point x="133" y="1358"/>
      <point x="146" y="1343"/>
      <point x="146" y="1322" type="curve"/>
      <point x="147" y="1214"/>
      <point x="67" y="1171"/>
    </contour>
  </outline>
</glyph>
<glyph name="quotesinglbase" format="1">
  <advance width="226"/>
  <unicode hex="201A"/>
  <outline>
    <contour>
      <point x="80" y="-74" type="curve"/>
      <point x="62" y="-62" type="line"/>
      <point x="102" y="-25"/>
      <point x="111" y="21"/>
      <point x="114" y="48" type="curve"/>
      <point x="101" y="53"/>
      <point x="92" y="64"/>
      <point x="92" y="80" type="curve"/>
      <point x="92" y="101"/>
      <point x="105" y="114"/>
      <point x="124" y="114" type="curve"/>
      <point x="145" y="114"/>
      <point x="158" y="101"/>
      <point x="158" y="80" type="curve"/>
      <point x="159" y="-26"/>
      <point x="79" y="-74"/>
    </contour>
  </outline>
</glyph>
<glyph name="quotedblleft" format="1">
  <advance width="564"/>
  <unicode hex="201C"/>
  <outline>
    <contour>
      <point x="488" y="1344" type="curve"/>
      <point x="506" y="1330" type="line"/>
      <point x="466" y="1295"/>
      <point x="457" y="1249"/>
      <point x="454" y="1220" type="curve"/>
      <point x="470" y="1217"/>
      <point x="478" y="1206"/>
      <point x="478" y="1190" type="curve"/>
      <point x="478" y="1171"/>
      <point x="463" y="1158"/>
      <point x="444" y="1158" type="curve"/>
      <point x="425" y="1158"/>
      <point x="412" y="1171"/>
      <point x="412" y="1190" type="curve"/>
      <point x="409" y="1296"/>
      <point x="491" y="1344"/>
    </contour>
    <contour>
      <point x="130" y="1344" type="curve"/>
      <point x="148" y="1330" type="line"/>
      <point x="108" y="1295"/>
      <point x="99" y="1249"/>
      <point x="94" y="1220" type="curve"/>
      <point x="107" y="1217"/>
      <point x="120" y="1206"/>
      <point x="120" y="1190" type="curve"/>
      <point x="120" y="1171"/>
      <point x="105" y="1158"/>
      <point x="84" y="1158" type="curve"/>
      <point x="65" y="1158"/>
      <point x="54" y="1171"/>
      <point x="54" y="1190" type="curve"/>
      <point x="51" y="1296"/>
      <point x="133" y="1344"/>
    </contour>
  </outline>
</glyph>
<glyph name="quotedblright" format="1">
  <advance width="564"/>
  <unicode hex="201D"/>
  <outline>
    <contour>
      <point x="68" y="1170" type="curve"/>
      <point x="52" y="1182" type="line"/>
      <point x="89" y="1219"/>
      <point x="99" y="1263"/>
      <point x="102" y="1292" type="curve"/>
      <point x="89" y="1297"/>
      <point x="80" y="1306"/>
      <point x="80" y="1322" type="curve"/>
      <point x="80" y="1343"/>
      <point x="96" y="1358"/>
      <point x="112" y="1358" type="curve"/>
      <point x="133" y="1358"/>
      <point x="146" y="1343"/>
      <point x="146" y="1322" type="curve"/>
      <point x="147" y="1214"/>
      <point x="67" y="1171"/>
    </contour>
    <contour>
      <point x="428" y="1170" type="curve"/>
      <point x="410" y="1182" type="line"/>
      <point x="450" y="1219"/>
      <point x="457" y="1263"/>
      <point x="460" y="1292" type="curve"/>
      <point x="449" y="1297"/>
      <point x="438" y="1306"/>
      <point x="438" y="1322" type="curve"/>
      <point x="438" y="1343"/>
      <point x="453" y="1358"/>
      <point x="472" y="1358" type="curve"/>
      <point x="493" y="1358"/>
      <point x="504" y="1343"/>
      <point x="504" y="1322" type="curve"/>
      <point x="507" y="1214"/>
      <point x="425" y="1171"/>
    </contour>
  </outline>
</glyph>
<glyph name="quotedblbase" format="1">
  <advance width="584"/>
  <unicode hex="201E"/>
  <outline>
    <contour>
      <point x="80" y="-74" type="curve"/>
      <point x="62" y="-62" type="line"/>
      <point x="102" y="-25"/>
      <point x="111" y="21"/>
      <point x="114" y="48" type="curve"/>
      <point x="101" y="53"/>
      <point x="92" y="64"/>
      <point x="92" y="80" type="curve"/>
      <point x="92" y="101"/>
      <point x="105" y="114"/>
      <point x="124" y="114" type="curve"/>
      <point x="145" y="114"/>
      <point x="158" y="101"/>
      <point x="158" y="80" type="curve"/>
      <point x="159" y="-26"/>
      <point x="79" y="-74"/>
    </contour>
    <contour>
      <point x="440" y="-74" type="curve"/>
      <point x="422" y="-62" type="line"/>
      <point x="462" y="-25"/>
      <point x="469" y="21"/>
      <point x="472" y="48" type="curve"/>
      <point x="461" y="53"/>
      <point x="450" y="64"/>
      <point x="450" y="80" type="curve"/>
      <point x="450" y="101"/>
      <point x="465" y="114"/>
      <point x="484" y="114" type="curve"/>
      <point x="505" y="114"/>
      <point x="516" y="101"/>
      <point x="516" y="80" type="curve"/>
      <point x="519" y="-26"/>
      <point x="437" y="-74"/>
    </contour>
  </outline>
</glyph>
<glyph name="bullet" format="1">
  <advance width="538"/>
  <unicode hex="2022"/>
  <outline>
    <contour>
      <point x="412" y="816" type="curve"/>
      <point x="452" y="773"/>
      <point x="472" y="725"/>
      <point x="472" y="670" type="curve"/>
      <point x="472" y="617"/>
      <point x="449" y="566"/>
      <point x="412" y="526" type="curve"/>
      <point x="371" y="485"/>
      <point x="322" y="464"/>
      <point x="266" y="464" type="curve"/>
      <point x="209" y="464"/>
      <point x="160" y="485"/>
      <point x="120" y="526" type="curve"/>
      <point x="80" y="566"/>
      <point x="60" y="614"/>
      <point x="60" y="670" type="curve"/>
      <point x="60" y="727"/>
      <point x="80" y="776"/>
      <point x="120" y="816" type="curve"/>
      <point x="160" y="857"/>
      <point x="209" y="878"/>
      <point x="266" y="878" type="curve"/>
      <point x="322" y="878"/>
      <point x="371" y="857"/>
    </contour>
  </outline>
</glyph>
<glyph name="ellipsis" format="1">
  <advance width="908"/>
  <unicode hex="2026"/>
  <outline>
    <contour>
      <point x="102" y="60" type="curve"/>
      <point x="121" y="60"/>
      <point x="136" y="45"/>
      <point x="136" y="24" type="curve"/>
      <point x="136" y="5"/>
      <point x="121" y="-8"/>
      <point x="102" y="-8" type="curve"/>
      <point x="83" y="-8"/>
      <point x="70" y="5"/>
      <point x="70" y="24" type="curve"/>
      <point x="70" y="45"/>
      <point x="83" y="60"/>
    </contour>
    <contour>
      <point x="450" y="60" type="curve"/>
      <point x="471" y="60"/>
      <point x="486" y="45"/>
      <point x="486" y="24" type="curve"/>
      <point x="486" y="5"/>
      <point x="471" y="-8"/>
      <point x="450" y="-8" type="curve"/>
      <point x="431" y="-8"/>
      <point x="418" y="5"/>
      <point x="418" y="24" type="curve"/>
      <point x="418" y="45"/>
      <point x="431" y="60"/>
    </contour>
    <contour>
      <point x="808" y="60" type="curve"/>
      <point x="827" y="60"/>
      <point x="842" y="45"/>
      <point x="842" y="24" type="curve"/>
      <point x="842" y="5"/>
      <point x="827" y="-8"/>
      <point x="808" y="-8" type="curve"/>
      <point x="789" y="-8"/>
      <point x="776" y="5"/>
      <point x="776" y="24" type="curve"/>
      <point x="776" y="45"/>
      <point x="789" y="60"/>
    </contour>
  </outline>
</glyph>
